{"glyphs":{"0":{"ha":819,"x_min":65,"x_max":750,"o":"m 318 -14 q 213 10 260 -14 q 133 76 167 33 q 83 178 100 119 q 65 307 65 236 q 101 510 65 415 q 196 676 136 606 q 334 788 256 747 q 497 829 413 829 q 602 806 556 829 q 682 739 649 782 q 733 638 715 696 q 750 508 750 579 q 715 305 750 400 q 619 139 679 210 q 481 27 560 68 q 318 -14 403 -14 m 332 51 q 465 86 401 51 q 576 182 528 121 q 651 325 624 243 q 679 501 679 407 q 666 608 679 560 q 627 691 653 657 q 565 744 601 725 q 483 764 529 764 q 350 728 413 764 q 240 632 288 693 q 164 488 192 571 q 136 313 136 406 q 188 124 136 196 q 332 51 239 51 z "},"1":{"ha":540,"x_min":3,"x_max":443,"o":"m 17 64 l 204 64 l 340 706 q 296 669 325 689 q 232 633 267 650 q 162 603 197 615 q 100 592 126 592 l 114 661 q 188 680 147 661 q 266 722 229 699 q 329 767 303 746 q 358 793 356 789 l 429 793 l 275 64 l 443 64 l 429 0 l 3 0 l 17 64 z "},"2":{"ha":685,"x_min":-18,"x_max":647,"o":"m -18 0 q 7 87 -10 39 q 57 184 24 135 q 144 281 90 233 q 279 364 197 328 q 401 420 347 394 q 493 474 456 446 q 551 534 531 501 q 571 611 571 567 q 562 660 571 636 q 533 702 553 683 q 484 732 514 721 q 414 743 454 743 q 331 729 369 743 q 260 696 292 715 q 207 657 229 676 q 174 626 185 638 l 138 675 q 169 702 143 681 q 234 747 194 724 q 326 788 274 769 q 438 807 378 807 q 528 792 489 807 q 594 753 568 778 q 634 695 621 728 q 647 628 647 663 q 625 528 647 571 q 563 453 603 486 q 468 392 524 419 q 347 335 413 364 q 246 276 292 311 q 165 203 200 242 q 108 128 131 165 q 76 64 85 92 l 544 64 l 531 0 l -18 0 l -18 0 z "},"3":{"ha":699,"x_min":-43,"x_max":653,"o":"m 207 -204 q 41 -160 107 -204 q -43 -37 -25 -115 l 15 4 q 81 -101 28 -62 q 221 -140 133 -140 q 333 -122 282 -140 q 420 -69 383 -103 q 477 14 457 -35 q 497 122 497 63 q 447 249 497 201 q 299 296 396 296 l 267 296 l 279 357 l 314 357 q 424 374 375 357 q 508 420 474 390 q 560 491 542 450 q 578 581 578 532 q 531 694 578 653 q 407 736 485 736 q 263 698 329 736 q 153 594 196 660 l 114 633 q 172 701 138 671 q 247 754 206 732 q 333 788 288 776 q 426 800 379 800 q 520 785 478 800 q 592 742 563 769 q 637 678 621 715 q 653 594 653 640 q 635 499 653 544 q 585 419 617 454 q 512 359 554 383 q 419 328 469 335 q 530 262 490 317 q 569 128 569 207 q 541 -6 569 56 q 464 -110 513 -67 q 349 -179 415 -154 q 207 -204 283 -204 z "},"4":{"ha":718,"x_min":-37,"x_max":636,"o":"m 415 82 l -37 82 l -25 143 l 589 793 l 636 793 l 499 146 l 615 146 l 601 82 l 485 82 l 431 -176 l 361 -176 l 415 82 m 435 146 l 549 681 l 53 146 l 435 146 z "},"5":{"ha":729,"x_min":-39,"x_max":706,"o":"m 219 -207 q 51 -153 119 -207 q -39 -12 -18 -100 l 18 17 q 96 -99 39 -56 q 232 -143 153 -143 q 348 -119 292 -143 q 448 -54 404 -96 q 517 44 492 -12 q 543 165 543 100 q 490 311 543 256 q 350 367 438 367 q 218 335 283 367 q 103 246 153 304 l 36 246 q 60 306 42 260 q 103 413 79 351 q 155 540 128 474 q 204 663 182 607 q 242 756 226 719 q 257 793 257 793 l 706 793 l 692 728 l 294 728 l 140 338 q 248 406 189 382 q 369 431 307 431 q 469 412 424 431 q 547 360 515 393 q 597 280 579 326 q 615 178 615 233 q 581 24 615 94 q 492 -99 547 -47 q 365 -178 436 -150 q 219 -207 294 -207 z "},"6":{"ha":813,"x_min":67,"x_max":786,"o":"m 329 -14 q 138 67 208 -14 q 67 289 67 147 q 102 553 67 426 q 201 778 138 681 q 354 935 265 876 q 551 993 443 993 q 708 942 644 993 q 786 801 771 890 l 731 764 q 667 885 719 839 q 536 931 615 931 q 410 897 469 931 q 300 802 350 864 q 213 653 250 740 q 154 460 175 567 q 215 543 179 506 q 293 606 250 581 q 384 646 336 632 q 481 660 432 660 q 587 638 539 660 q 668 580 635 617 q 720 493 701 543 q 739 385 739 443 q 704 232 739 304 q 613 105 669 160 q 482 18 556 50 q 329 -14 408 -14 m 344 49 q 464 75 406 49 q 568 146 522 101 q 642 249 614 190 q 669 372 669 307 q 654 461 669 419 q 611 533 639 503 q 545 582 583 564 q 461 600 507 600 q 342 574 400 600 q 238 502 283 547 q 163 399 192 457 q 135 276 135 340 q 150 188 135 229 q 193 115 165 146 q 260 67 221 85 q 344 49 299 49 z "},"7":{"ha":713,"x_min":1,"x_max":767,"o":"m 640 744 l 117 744 l 131 810 l 767 810 l 81 -176 l 1 -176 l 640 744 z "},"8":{"ha":785,"x_min":35,"x_max":756,"o":"m 297 -10 q 188 9 236 -10 q 105 60 139 28 q 53 135 71 92 q 35 228 35 179 q 58 335 35 286 q 119 423 82 385 q 201 488 156 461 q 292 529 247 515 q 203 597 239 551 q 168 706 168 643 q 200 824 168 772 q 283 913 232 876 q 394 967 333 949 q 514 986 456 986 q 603 972 560 986 q 681 933 647 958 q 735 869 715 907 q 756 782 756 831 q 737 695 756 735 q 688 624 718 656 q 619 568 658 592 q 539 529 581 544 q 647 448 604 504 q 689 314 689 392 q 656 182 689 242 q 567 80 622 122 q 441 14 511 38 q 297 -10 371 -10 m 315 51 q 419 70 365 51 q 517 123 474 89 q 590 205 561 157 q 618 311 618 253 q 600 390 618 356 q 552 449 582 425 q 484 486 522 474 q 407 499 446 499 q 303 479 357 499 q 206 426 250 460 q 134 344 163 392 q 106 238 106 296 q 124 159 106 193 q 172 101 142 125 q 239 64 201 76 q 315 51 276 51 m 421 556 q 509 570 463 556 q 594 612 556 585 q 658 678 632 639 q 683 769 683 718 q 669 834 683 806 q 628 882 654 863 q 569 912 603 901 q 499 922 536 922 q 405 907 451 922 q 321 864 358 892 q 260 797 283 836 q 238 710 238 758 q 253 644 238 672 q 296 596 269 615 q 355 566 322 576 q 421 556 388 556 z "},"9":{"ha":790,"x_min":4,"x_max":724,"o":"m 240 -215 q 83 -165 146 -215 q 4 -24 21 -114 l 60 14 q 123 -107 71 -61 q 254 -153 175 -153 q 381 -119 321 -153 q 490 -24 440 -86 q 578 124 540 38 q 636 318 615 211 q 499 172 588 225 q 310 118 410 118 q 204 140 251 118 q 124 198 157 161 q 72 285 90 235 q 53 393 53 335 q 87 546 53 474 q 178 673 121 618 q 308 760 235 728 q 461 792 382 792 q 653 711 582 792 q 724 489 724 631 q 688 224 724 351 q 590 -1 653 97 q 438 -157 526 -99 q 240 -215 349 -215 m 331 178 q 450 204 392 178 q 554 276 508 231 q 628 379 600 321 q 656 501 656 438 q 640 590 656 549 q 597 663 625 632 q 531 711 569 693 q 446 729 492 729 q 326 703 385 729 q 222 632 268 676 q 149 529 176 588 q 121 406 121 471 q 136 317 121 358 q 179 244 151 275 q 246 196 207 214 q 331 178 285 178 z "},"A":{"ha":901,"x_min":-60,"x_max":793,"o":"m 547 986 l 608 986 l 793 0 l 718 0 l 657 325 l 214 325 l 17 0 l -60 0 l 547 986 m 651 383 l 560 900 l 243 383 l 651 383 z "},"Æ":{"ha":1281,"x_min":-114,"x_max":1331,"o":"m 703 986 l 1331 986 l 1315 922 l 778 922 l 697 536 l 1163 536 l 1149 471 l 682 471 l 596 64 l 1144 64 l 1132 0 l 513 0 l 582 325 l 231 325 l -35 0 l -114 0 l 703 986 m 592 389 l 699 897 l 278 389 l 592 389 z "},"Ǽ":{"ha":1281,"x_min":-114,"x_max":1331,"o":"m 775 1133 l 732 1156 l 838 1274 l 917 1274 l 775 1133 m 703 986 l 1331 986 l 1315 922 l 778 922 l 697 536 l 1163 536 l 1149 471 l 682 471 l 596 64 l 1144 64 l 1132 0 l 513 0 l 582 325 l 231 325 l -35 0 l -114 0 l 703 986 m 592 389 l 699 897 l 278 389 l 592 389 z "},"´":{"ha":282,"x_min":49,"x_max":233,"o":"m 92 874 l 49 896 l 154 1014 l 233 1014 l 92 874 z "},"Á":{"ha":901,"x_min":-60,"x_max":793,"o":"m 547 986 l 608 986 l 793 0 l 718 0 l 657 325 l 214 325 l 17 0 l -60 0 l 547 986 m 651 383 l 560 900 l 243 383 l 651 383 m 597 1133 l 554 1156 l 660 1274 l 739 1274 l 597 1133 z "},"Ă":{"ha":901,"x_min":-60,"x_max":793,"o":"m 547 986 l 608 986 l 793 0 l 718 0 l 657 325 l 214 325 l 17 0 l -60 0 l 547 986 m 651 383 l 560 900 l 243 383 l 651 383 m 608 1185 q 664 1210 636 1185 q 703 1274 692 1236 l 747 1274 q 727 1224 742 1247 q 692 1183 713 1200 q 649 1156 672 1165 q 601 1146 625 1146 q 531 1174 557 1146 q 504 1246 504 1203 q 508 1274 504 1258 l 554 1274 q 553 1254 553 1267 q 569 1206 553 1226 q 608 1185 585 1185 z "},"˘":{"ha":357,"x_min":75,"x_max":318,"o":"m 179 925 q 235 951 207 925 q 274 1014 263 976 l 318 1014 q 298 964 313 988 q 263 923 283 940 q 219 896 243 906 q 172 886 196 886 q 101 915 128 886 q 75 986 75 943 q 79 1014 75 999 l 125 1014 q 124 994 124 1007 q 140 946 124 967 q 179 925 156 925 z "},"Â":{"ha":901,"x_min":-60,"x_max":793,"o":"m 547 986 l 608 986 l 793 0 l 718 0 l 657 325 l 214 325 l 17 0 l -60 0 l 547 986 m 651 383 l 560 900 l 243 383 l 651 383 m 460 1161 l 611 1274 l 663 1274 l 767 1161 l 721 1138 l 626 1225 l 496 1138 l 460 1161 z "},"ˆ":{"ha":424,"x_min":75,"x_max":382,"o":"m 75 901 l 226 1014 l 278 1014 l 382 901 l 336 878 l 242 965 l 111 878 l 75 901 z "},"Ä":{"ha":901,"x_min":-60,"x_max":793,"o":"m 547 986 l 608 986 l 793 0 l 718 0 l 657 325 l 214 325 l 17 0 l -60 0 l 547 986 m 651 383 l 560 900 l 243 383 l 651 383 m 481 1150 l 506 1272 l 567 1272 l 540 1150 l 481 1150 m 663 1150 l 689 1272 l 749 1272 l 724 1150 l 663 1150 z "},"¨":{"ha":394,"x_min":76,"x_max":344,"o":"m 76 889 l 101 1011 l 163 1011 l 136 889 l 76 889 m 258 889 l 285 1011 l 344 1011 l 319 889 l 258 889 z "},"À":{"ha":901,"x_min":-60,"x_max":793,"o":"m 547 986 l 608 986 l 793 0 l 718 0 l 657 325 l 214 325 l 17 0 l -60 0 l 547 986 m 651 383 l 560 900 l 243 383 l 651 383 m 508 1275 l 585 1275 l 642 1157 l 590 1135 l 508 1275 z "},"`":{"ha":283,"x_min":88,"x_max":221,"o":"m 88 1014 l 164 1014 l 221 896 l 169 874 l 88 1014 z "},"Ā":{"ha":901,"x_min":-60,"x_max":815,"o":"m 547 986 l 608 986 l 793 0 l 718 0 l 657 325 l 214 325 l 17 0 l -60 0 l 547 986 m 651 383 l 560 900 l 243 383 l 651 383 m 426 1192 l 438 1243 l 815 1243 l 804 1192 l 426 1192 z "},"¯":{"ha":517,"x_min":86,"x_max":475,"o":"m 86 932 l 97 983 l 475 983 l 464 932 l 86 932 z "},"Ą":{"ha":901,"x_min":-60,"x_max":793,"o":"m 678 -235 q 624 -206 642 -226 q 607 -157 607 -185 q 636 -81 607 -117 q 736 0 665 -44 l 718 0 l 657 325 l 214 325 l 17 0 l -60 0 l 547 986 l 608 986 l 793 0 q 685 -78 715 -47 q 656 -142 656 -110 q 710 -193 656 -185 l 678 -235 m 651 383 l 560 900 l 243 383 l 651 383 z "},"˛":{"ha":300,"x_min":38,"x_max":224,"o":"m 108 -235 q 55 -206 72 -226 q 38 -157 38 -185 q 75 -72 38 -112 q 203 22 113 -32 l 224 0 q 116 -78 146 -47 q 86 -142 86 -110 q 140 -193 86 -185 l 108 -235 l 108 -235 z "},"Å":{"ha":901,"x_min":-60,"x_max":793,"o":"m 547 986 l 608 986 l 793 0 l 718 0 l 657 325 l 214 325 l 17 0 l -60 0 l 547 986 m 651 383 l 560 900 l 243 383 l 651 383 m 525 1171 q 558 1244 525 1215 q 636 1274 592 1274 q 689 1254 669 1274 q 708 1204 708 1235 q 676 1130 708 1160 q 599 1100 643 1100 q 544 1119 564 1100 q 525 1171 525 1139 m 628 1242 q 583 1224 603 1242 q 563 1176 563 1206 q 574 1144 563 1157 q 606 1132 586 1132 q 650 1151 628 1132 q 672 1197 672 1169 q 660 1230 672 1218 q 628 1242 647 1242 z "},"˚":{"ha":322,"x_min":88,"x_max":271,"o":"m 88 911 q 121 985 88 956 q 199 1014 154 1014 q 251 994 232 1014 q 271 944 271 975 q 238 870 271 900 q 161 840 206 840 q 107 860 126 840 q 88 911 88 879 m 190 982 q 145 964 165 982 q 125 917 125 946 q 137 885 125 897 q 168 872 149 872 q 213 891 190 872 q 235 938 235 910 q 222 970 235 958 q 190 982 210 982 z "},"Ǻ":{"ha":903,"x_min":-60,"x_max":793,"o":"m 497 1025 q 531 1099 497 1069 q 608 1128 564 1128 q 661 1108 642 1128 q 681 1058 681 1089 q 662 999 681 1025 q 613 961 643 972 l 793 0 l 718 0 l 657 325 l 214 325 l 17 0 l -60 0 l 532 963 q 497 1025 497 979 m 651 383 l 560 900 l 243 383 l 651 383 m 600 1096 q 555 1078 575 1096 q 535 1031 535 1060 q 547 999 535 1011 q 578 986 558 986 q 622 1005 600 986 q 644 1051 644 1024 q 632 1084 644 1072 q 600 1096 619 1096 m 610 1138 l 567 1160 l 672 1275 l 751 1275 l 610 1138 z "},"Ã":{"ha":901,"x_min":-60,"x_max":835,"o":"m 547 986 l 608 986 l 793 0 l 718 0 l 657 325 l 214 325 l 17 0 l -60 0 l 547 986 m 651 383 l 560 900 l 243 383 l 651 383 m 689 1158 q 639 1167 660 1158 q 601 1185 618 1175 q 569 1205 585 1196 q 533 1214 554 1214 q 496 1204 511 1214 q 472 1183 481 1194 q 458 1160 463 1171 q 453 1147 453 1150 l 406 1147 q 415 1172 407 1153 q 440 1210 424 1190 q 482 1247 457 1231 q 543 1263 507 1263 q 588 1253 569 1263 q 624 1234 607 1244 q 657 1215 640 1224 q 699 1207 674 1207 q 742 1217 725 1207 q 769 1238 758 1226 q 784 1260 779 1250 q 789 1274 789 1271 l 835 1274 q 825 1248 833 1267 q 799 1210 817 1229 q 755 1174 782 1190 q 689 1158 728 1158 z "},"˜":{"ha":525,"x_min":60,"x_max":489,"o":"m 343 899 q 293 907 314 899 q 256 926 272 915 q 224 945 239 936 q 188 954 208 954 q 150 944 165 954 q 126 923 135 935 q 112 901 117 911 q 107 888 107 890 l 60 888 q 69 912 61 893 q 94 951 78 931 q 136 987 111 971 q 197 1003 161 1003 q 242 994 224 1003 q 278 974 261 985 q 311 956 294 964 q 353 947 328 947 q 396 957 379 947 q 423 978 413 967 q 438 1001 433 990 q 443 1014 443 1011 l 489 1014 q 479 988 488 1007 q 453 950 471 969 q 409 915 436 931 q 343 899 382 899 z "},"B":{"ha":883,"x_min":38,"x_max":853,"o":"m 247 986 l 686 986 q 759 969 728 986 q 811 924 790 951 q 842 860 832 896 q 853 785 853 824 q 839 697 853 740 q 799 618 825 654 q 739 553 774 582 q 663 506 704 524 q 758 430 725 485 q 790 304 790 375 q 763 185 790 240 q 692 88 736 129 q 592 24 649 47 q 478 0 536 0 l 38 0 l 247 986 m 490 64 q 574 85 533 64 q 648 139 615 106 q 700 215 681 172 q 719 304 719 258 q 710 367 719 338 q 684 419 701 396 q 642 455 667 442 q 586 468 617 468 l 208 468 l 122 64 l 490 64 m 561 528 q 644 548 604 528 q 714 601 683 568 q 763 678 744 635 q 781 767 781 721 q 747 877 781 832 q 653 922 714 922 l 304 922 l 221 528 l 561 528 z "},"C":{"ha":915,"x_min":68,"x_max":928,"o":"m 410 -8 q 265 26 328 -8 q 158 119 201 61 q 91 253 114 178 q 68 407 68 328 q 110 612 68 508 q 228 800 153 715 q 406 938 303 885 q 629 992 508 992 q 742 976 692 992 q 829 931 792 960 q 892 863 867 903 q 928 776 917 824 l 863 743 q 824 829 850 794 q 763 885 797 864 q 690 917 729 907 q 610 926 650 926 q 480 905 542 926 q 366 846 418 883 q 272 758 314 808 q 200 650 229 707 q 155 531 171 593 q 139 411 139 469 q 159 275 139 339 q 217 163 179 211 q 308 85 254 114 q 428 57 361 57 q 517 68 469 57 q 610 103 564 79 q 698 163 656 126 q 775 250 740 200 l 831 221 q 745 122 794 165 q 639 50 696 79 q 523 6 582 21 q 410 -8 464 -8 z "},"\r":{"ha":0,"x_min":0,"x_max":0,"o":""},"Ć":{"ha":915,"x_min":68,"x_max":928,"o":"m 656 1133 l 613 1156 l 718 1274 l 797 1274 l 656 1133 m 410 -8 q 265 26 328 -8 q 158 119 201 61 q 91 253 114 178 q 68 407 68 328 q 110 612 68 508 q 228 800 153 715 q 406 938 303 885 q 629 992 508 992 q 742 976 692 992 q 829 931 792 960 q 892 863 867 903 q 928 776 917 824 l 863 743 q 824 829 850 794 q 763 885 797 864 q 690 917 729 907 q 610 926 650 926 q 480 905 542 926 q 366 846 418 883 q 272 758 314 808 q 200 650 229 707 q 155 531 171 593 q 139 411 139 469 q 159 275 139 339 q 217 163 179 211 q 308 85 254 114 q 428 57 361 57 q 517 68 469 57 q 610 103 564 79 q 698 163 656 126 q 775 250 740 200 l 831 221 q 745 122 794 165 q 639 50 696 79 q 523 6 582 21 q 410 -8 464 -8 z "},"Č":{"ha":915,"x_min":68,"x_max":928,"o":"m 533 1250 l 579 1274 l 674 1186 l 804 1274 l 840 1250 l 689 1138 l 638 1138 l 533 1250 m 410 -8 q 265 26 328 -8 q 158 119 201 61 q 91 253 114 178 q 68 407 68 328 q 110 612 68 508 q 228 800 153 715 q 406 938 303 885 q 629 992 508 992 q 742 976 692 992 q 829 931 792 960 q 892 863 867 903 q 928 776 917 824 l 863 743 q 824 829 850 794 q 763 885 797 864 q 690 917 729 907 q 610 926 650 926 q 480 905 542 926 q 366 846 418 883 q 272 758 314 808 q 200 650 229 707 q 155 531 171 593 q 139 411 139 469 q 159 275 139 339 q 217 163 179 211 q 308 85 254 114 q 428 57 361 57 q 517 68 469 57 q 610 103 564 79 q 698 163 656 126 q 775 250 740 200 l 831 221 q 745 122 794 165 q 639 50 696 79 q 523 6 582 21 q 410 -8 464 -8 z "},"ˇ":{"ha":424,"x_min":83,"x_max":390,"o":"m 83 990 l 129 1014 l 224 926 l 354 1014 l 390 990 l 239 878 l 188 878 l 83 990 z "},"Ç":{"ha":910,"x_min":64,"x_max":924,"o":"m 263 -174 q 310 -192 281 -183 q 372 -200 339 -200 q 463 -137 463 -200 q 447 -107 463 -115 q 406 -99 431 -99 q 346 -106 378 -99 q 296 -118 314 -112 l 378 -7 q 244 35 303 -1 q 145 129 185 72 q 85 258 106 186 q 64 407 64 331 q 106 612 64 508 q 224 800 149 715 q 401 938 299 885 q 625 992 504 992 q 738 976 688 992 q 825 931 788 960 q 888 863 863 903 q 924 776 913 824 l 858 743 q 819 829 846 794 q 759 885 793 864 q 685 917 725 907 q 606 926 646 926 q 476 905 538 926 q 362 846 414 883 q 267 758 310 808 q 196 650 225 707 q 151 531 167 593 q 135 411 135 469 q 155 275 135 339 q 213 163 175 211 q 303 85 250 114 q 424 57 357 57 q 513 68 465 57 q 606 103 560 79 q 694 163 651 126 q 771 250 736 200 l 826 221 q 744 126 792 167 q 643 56 697 85 q 532 10 589 26 q 422 -7 475 -6 l 371 -74 q 398 -67 383 -68 q 424 -65 413 -65 q 504 -129 504 -65 q 467 -210 504 -182 q 358 -237 429 -237 q 291 -230 322 -237 q 236 -211 260 -222 l 263 -174 z "},"¸":{"ha":358,"x_min":-15,"x_max":253,"o":"m 11 -174 q 58 -192 29 -183 q 121 -200 88 -200 q 211 -137 211 -200 q 195 -107 211 -115 q 154 -99 179 -99 q 94 -106 126 -99 q 44 -118 63 -112 l 147 21 l 181 4 l 119 -74 q 147 -67 132 -68 q 172 -65 161 -65 q 253 -129 253 -65 q 215 -210 253 -182 q 107 -237 178 -237 q 40 -230 71 -237 q -15 -211 8 -222 l 11 -174 z "},"Ĉ":{"ha":915,"x_min":68,"x_max":928,"o":"m 524 1161 l 675 1274 l 726 1274 l 831 1161 l 785 1138 l 690 1225 l 560 1138 l 524 1161 m 410 -8 q 265 26 328 -8 q 158 119 201 61 q 91 253 114 178 q 68 407 68 328 q 110 612 68 508 q 228 800 153 715 q 406 938 303 885 q 629 992 508 992 q 742 976 692 992 q 829 931 792 960 q 892 863 867 903 q 928 776 917 824 l 863 743 q 824 829 850 794 q 763 885 797 864 q 690 917 729 907 q 610 926 650 926 q 480 905 542 926 q 366 846 418 883 q 272 758 314 808 q 200 650 229 707 q 155 531 171 593 q 139 411 139 469 q 159 275 139 339 q 217 163 179 211 q 308 85 254 114 q 428 57 361 57 q 517 68 469 57 q 610 103 564 79 q 698 163 656 126 q 775 250 740 200 l 831 221 q 745 122 794 165 q 639 50 696 79 q 523 6 582 21 q 410 -8 464 -8 z "},"Ċ":{"ha":915,"x_min":68,"x_max":928,"o":"m 410 -8 q 265 26 328 -8 q 158 119 201 61 q 91 253 114 178 q 68 407 68 328 q 110 612 68 508 q 228 800 153 715 q 406 938 303 885 q 629 992 508 992 q 742 976 692 992 q 829 931 792 960 q 892 863 867 903 q 928 776 917 824 l 863 743 q 824 829 850 794 q 763 885 797 864 q 690 917 729 907 q 610 926 650 926 q 480 905 542 926 q 366 846 418 883 q 272 758 314 808 q 200 650 229 707 q 155 531 171 593 q 139 411 139 469 q 159 275 139 339 q 217 163 179 211 q 308 85 254 114 q 428 57 361 57 q 517 68 469 57 q 610 103 564 79 q 698 163 656 126 q 775 250 740 200 l 831 221 q 745 122 794 165 q 639 50 696 79 q 523 6 582 21 q 410 -8 464 -8 m 642 1149 l 668 1274 l 732 1274 l 706 1149 l 642 1149 z "},"˙":{"ha":194,"x_min":65,"x_max":156,"o":"m 65 889 l 92 1014 l 156 1014 l 129 889 l 65 889 z "},"D":{"ha":956,"x_min":38,"x_max":917,"o":"m 247 986 l 560 986 q 719 957 651 986 q 830 877 786 928 q 895 758 874 826 q 917 610 917 689 q 874 367 917 478 q 756 174 832 256 q 576 46 681 92 q 350 0 472 0 l 38 0 l 247 986 m 364 64 q 564 108 475 64 q 715 225 653 151 q 810 395 776 299 q 843 597 843 492 q 824 728 843 668 q 768 831 806 788 q 675 898 731 874 q 546 922 619 922 l 304 922 l 122 64 l 364 64 z "},"Ď":{"ha":956,"x_min":38,"x_max":917,"o":"m 472 1250 l 518 1274 l 613 1186 l 743 1274 l 779 1250 l 628 1138 l 576 1138 l 472 1250 m 247 986 l 560 986 q 719 957 651 986 q 830 877 786 928 q 895 758 874 826 q 917 610 917 689 q 874 367 917 478 q 756 174 832 256 q 576 46 681 92 q 350 0 472 0 l 38 0 l 247 986 m 364 64 q 564 108 475 64 q 715 225 653 151 q 810 395 776 299 q 843 597 843 492 q 824 728 843 668 q 768 831 806 788 q 675 898 731 874 q 546 922 619 922 l 304 922 l 122 64 l 364 64 z "},"Đ":{"ha":965,"x_min":47,"x_max":926,"o":"m 75 525 l 158 525 l 257 986 l 569 986 q 728 957 661 986 q 840 877 796 928 q 905 758 883 826 q 926 610 926 689 q 884 367 926 478 q 766 174 842 256 q 586 46 690 92 q 360 0 482 0 l 47 0 l 146 467 l 63 467 l 75 525 m 374 64 q 574 108 485 64 q 724 225 663 151 q 819 395 786 299 q 853 597 853 492 q 834 728 853 668 q 778 831 815 788 q 685 898 740 874 q 556 922 629 922 l 314 922 l 229 525 l 464 525 l 451 467 l 217 467 l 132 64 l 374 64 z "},"E":{"ha":811,"x_min":38,"x_max":860,"o":"m 247 986 l 860 986 l 847 922 l 304 922 l 222 535 l 696 535 l 682 474 l 210 474 l 122 64 l 676 64 l 663 0 l 38 0 l 247 986 z "},"É":{"ha":811,"x_min":38,"x_max":860,"o":"m 574 1133 l 531 1156 l 636 1274 l 715 1274 l 574 1133 m 247 986 l 860 986 l 847 922 l 304 922 l 222 535 l 696 535 l 682 474 l 210 474 l 122 64 l 676 64 l 663 0 l 38 0 l 247 986 z "},"Ĕ":{"ha":811,"x_min":38,"x_max":860,"o":"m 247 986 l 860 986 l 847 922 l 304 922 l 222 535 l 696 535 l 682 474 l 210 474 l 122 64 l 676 64 l 663 0 l 38 0 l 247 986 m 588 1185 q 643 1210 615 1185 q 682 1274 671 1236 l 726 1274 q 706 1224 721 1247 q 672 1183 692 1200 q 628 1156 651 1165 q 581 1146 604 1146 q 510 1174 536 1146 q 483 1246 483 1203 q 488 1274 483 1258 l 533 1274 q 532 1254 532 1267 q 548 1206 532 1226 q 588 1185 564 1185 z "},"Ě":{"ha":811,"x_min":38,"x_max":860,"o":"m 449 1250 l 494 1274 l 589 1186 l 719 1274 l 756 1250 l 604 1138 l 553 1138 l 449 1250 m 247 986 l 860 986 l 847 922 l 304 922 l 222 535 l 696 535 l 682 474 l 210 474 l 122 64 l 676 64 l 663 0 l 38 0 l 247 986 z "},"Ê":{"ha":811,"x_min":38,"x_max":860,"o":"m 449 1161 l 600 1274 l 651 1274 l 756 1161 l 710 1138 l 615 1225 l 485 1138 l 449 1161 m 247 986 l 860 986 l 847 922 l 304 922 l 222 535 l 696 535 l 682 474 l 210 474 l 122 64 l 676 64 l 663 0 l 38 0 l 247 986 z "},"Ë":{"ha":811,"x_min":38,"x_max":860,"o":"m 467 1150 l 492 1272 l 553 1272 l 526 1150 l 467 1150 m 649 1150 l 675 1272 l 735 1272 l 710 1150 l 649 1150 m 247 986 l 860 986 l 847 922 l 304 922 l 222 535 l 696 535 l 682 474 l 210 474 l 122 64 l 676 64 l 663 0 l 38 0 l 247 986 z "},"Ė":{"ha":811,"x_min":38,"x_max":860,"o":"m 247 986 l 860 986 l 847 922 l 304 922 l 222 535 l 696 535 l 682 474 l 210 474 l 122 64 l 676 64 l 663 0 l 38 0 l 247 986 m 561 1149 l 588 1274 l 651 1274 l 625 1149 l 561 1149 z "},"È":{"ha":811,"x_min":38,"x_max":860,"o":"m 247 986 l 860 986 l 847 922 l 304 922 l 222 535 l 696 535 l 682 474 l 210 474 l 122 64 l 676 64 l 663 0 l 38 0 l 247 986 m 501 1275 l 578 1275 l 635 1157 l 583 1135 l 501 1275 z "},"Ē":{"ha":811,"x_min":38,"x_max":860,"o":"m 247 986 l 860 986 l 847 922 l 304 922 l 222 535 l 696 535 l 682 474 l 210 474 l 122 64 l 676 64 l 663 0 l 38 0 l 247 986 m 408 1192 l 419 1243 l 797 1243 l 786 1192 l 408 1192 z "},"Ŋ":{"ha":1026,"x_min":38,"x_max":1018,"o":"m 563 -246 q 487 -234 521 -246 q 429 -194 453 -222 l 476 -149 q 518 -175 493 -168 q 569 -182 543 -182 q 619 -172 594 -182 q 667 -142 644 -161 q 706 -98 689 -124 q 731 -42 724 -72 l 742 6 l 290 851 l 108 0 l 38 0 l 247 986 l 301 986 l 764 121 l 949 985 l 1018 985 l 801 -40 q 767 -124 792 -86 q 708 -188 742 -161 q 637 -231 675 -215 q 563 -246 599 -246 z "},"Ę":{"ha":811,"x_min":38,"x_max":860,"o":"m 247 986 l 860 986 l 847 922 l 304 922 l 222 535 l 696 535 l 682 474 l 210 474 l 122 64 l 676 64 l 663 0 l 390 0 q 283 -78 313 -47 q 253 -142 253 -110 q 307 -193 253 -185 l 275 -235 q 222 -206 239 -226 q 204 -157 204 -185 q 233 -81 204 -117 q 333 0 263 -44 l 38 0 l 247 986 z "},"Ð":{"ha":965,"x_min":47,"x_max":926,"o":"m 75 525 l 158 525 l 257 986 l 569 986 q 728 957 661 986 q 840 877 796 928 q 905 758 883 826 q 926 610 926 689 q 884 367 926 478 q 766 174 842 256 q 586 46 690 92 q 360 0 482 0 l 47 0 l 146 467 l 63 467 l 75 525 m 374 64 q 574 108 485 64 q 724 225 663 151 q 819 395 786 299 q 853 597 853 492 q 834 728 853 668 q 778 831 815 788 q 685 898 740 874 q 556 922 629 922 l 314 922 l 229 525 l 464 525 l 451 467 l 217 467 l 132 64 l 374 64 z "},"Ẽ":{"ha":811,"x_min":38,"x_max":860,"o":"m 247 986 l 860 986 l 847 922 l 304 922 l 222 535 l 696 535 l 682 474 l 210 474 l 122 64 l 676 64 l 663 0 l 38 0 l 247 986 m 661 1158 q 611 1167 632 1158 q 574 1185 590 1175 q 542 1205 557 1196 q 506 1214 526 1214 q 468 1204 483 1214 q 444 1183 453 1194 q 430 1160 435 1171 q 425 1147 425 1150 l 378 1147 q 388 1172 379 1153 q 413 1210 396 1190 q 454 1247 429 1231 q 515 1263 479 1263 q 560 1253 542 1263 q 596 1234 579 1244 q 629 1215 613 1224 q 671 1207 646 1207 q 714 1217 697 1207 q 741 1238 731 1226 q 756 1260 751 1250 q 761 1274 761 1271 l 807 1274 q 797 1248 806 1267 q 772 1210 789 1229 q 727 1174 754 1190 q 661 1158 700 1158 z "},"€":{"ha":1067,"x_min":39,"x_max":1053,"o":"m 218 569 q 295 728 244 651 q 415 863 346 804 q 569 956 483 921 q 753 992 656 992 q 866 976 815 992 q 954 931 917 960 q 1017 863 992 903 q 1053 776 1042 824 l 988 743 q 948 829 974 794 q 888 885 922 864 q 815 917 854 907 q 735 926 775 926 q 584 897 654 926 q 456 817 514 867 q 356 703 399 768 q 290 569 314 639 l 765 569 l 735 522 l 278 522 q 269 476 272 499 q 264 432 265 454 l 686 432 l 656 385 l 264 385 q 290 257 268 317 q 349 153 311 197 q 438 83 386 108 q 553 57 489 57 q 641 68 594 57 q 733 103 688 79 q 822 163 779 126 q 901 250 865 200 l 954 221 q 869 122 919 165 q 763 50 819 79 q 647 6 707 21 q 533 -8 588 -8 q 392 24 454 -8 q 287 112 331 57 q 219 238 243 167 q 192 385 194 308 l 39 385 l 69 432 l 192 432 q 197 476 193 454 q 206 522 200 499 l 110 522 l 142 569 l 218 569 z "},"F":{"ha":803,"x_min":38,"x_max":858,"o":"m 247 986 l 858 986 l 844 922 l 304 922 l 222 531 l 679 531 l 667 469 l 208 469 l 108 0 l 38 0 l 247 986 z "},"G":{"ha":954,"x_min":68,"x_max":929,"o":"m 758 153 q 414 -7 590 -7 q 268 28 332 -7 q 160 120 204 63 q 92 252 115 178 q 68 406 68 326 q 113 621 68 515 q 235 809 158 726 q 410 942 311 892 q 617 993 510 993 q 740 977 688 993 q 831 933 793 961 q 892 865 868 904 q 929 778 917 825 l 865 743 q 769 884 838 840 q 601 928 701 928 q 422 881 506 928 q 275 760 338 835 q 176 594 213 686 q 139 410 139 501 q 160 275 139 339 q 219 163 181 211 q 310 87 257 115 q 431 58 364 58 q 600 99 515 58 q 775 231 685 140 l 817 422 l 606 422 l 618 479 l 890 479 l 789 0 l 726 0 l 758 153 z "},"Ğ":{"ha":954,"x_min":68,"x_max":929,"o":"m 758 153 q 414 -7 590 -7 q 268 28 332 -7 q 160 120 204 63 q 92 252 115 178 q 68 406 68 326 q 113 621 68 515 q 235 809 158 726 q 410 942 311 892 q 617 993 510 993 q 740 977 688 993 q 831 933 793 961 q 892 865 868 904 q 929 778 917 825 l 865 743 q 769 884 838 840 q 601 928 701 928 q 422 881 506 928 q 275 760 338 835 q 176 594 213 686 q 139 410 139 501 q 160 275 139 339 q 219 163 181 211 q 310 87 257 115 q 431 58 364 58 q 600 99 515 58 q 775 231 685 140 l 817 422 l 606 422 l 618 479 l 890 479 l 789 0 l 726 0 l 758 153 m 650 1185 q 706 1210 678 1185 q 744 1274 733 1236 l 789 1274 q 769 1224 783 1247 q 734 1183 754 1200 q 690 1156 714 1165 q 643 1146 667 1146 q 572 1174 599 1146 q 546 1246 546 1203 q 550 1274 546 1258 l 596 1274 q 594 1254 594 1267 q 610 1206 594 1226 q 650 1185 626 1185 z "},"Ĝ":{"ha":954,"x_min":68,"x_max":929,"o":"m 500 1161 l 651 1274 l 703 1274 l 807 1161 l 761 1138 l 667 1225 l 536 1138 l 500 1161 m 758 153 q 414 -7 590 -7 q 268 28 332 -7 q 160 120 204 63 q 92 252 115 178 q 68 406 68 326 q 113 621 68 515 q 235 809 158 726 q 410 942 311 892 q 617 993 510 993 q 740 977 688 993 q 831 933 793 961 q 892 865 868 904 q 929 778 917 825 l 865 743 q 769 884 838 840 q 601 928 701 928 q 422 881 506 928 q 275 760 338 835 q 176 594 213 686 q 139 410 139 501 q 160 275 139 339 q 219 163 181 211 q 310 87 257 115 q 431 58 364 58 q 600 99 515 58 q 775 231 685 140 l 817 422 l 606 422 l 618 479 l 890 479 l 789 0 l 726 0 l 758 153 z "},"Ģ":{"ha":954,"x_min":68,"x_max":929,"o":"m 322 -260 l 363 -165 l 340 -165 l 361 -68 l 428 -68 l 408 -165 l 360 -260 l 322 -260 m 758 153 q 414 -7 590 -7 q 268 28 332 -7 q 160 120 204 63 q 92 252 115 178 q 68 406 68 326 q 113 621 68 515 q 235 809 158 726 q 410 942 311 892 q 617 993 510 993 q 740 977 688 993 q 831 933 793 961 q 892 865 868 904 q 929 778 917 825 l 865 743 q 769 884 838 840 q 601 928 701 928 q 422 881 506 928 q 275 760 338 835 q 176 594 213 686 q 139 410 139 501 q 160 275 139 339 q 219 163 181 211 q 310 87 257 115 q 431 58 364 58 q 600 99 515 58 q 775 231 685 140 l 817 422 l 606 422 l 618 479 l 890 479 l 789 0 l 726 0 l 758 153 z "},"":{"ha":189,"x_min":21,"x_max":126,"o":"m 21 -260 l 61 -165 l 39 -165 l 60 -68 l 126 -68 l 107 -165 l 58 -260 l 21 -260 z "},"Ġ":{"ha":954,"x_min":68,"x_max":929,"o":"m 758 153 q 414 -7 590 -7 q 268 28 332 -7 q 160 120 204 63 q 92 252 115 178 q 68 406 68 326 q 113 621 68 515 q 235 809 158 726 q 410 942 311 892 q 617 993 510 993 q 740 977 688 993 q 831 933 793 961 q 892 865 868 904 q 929 778 917 825 l 865 743 q 769 884 838 840 q 601 928 701 928 q 422 881 506 928 q 275 760 338 835 q 176 594 213 686 q 139 410 139 501 q 160 275 139 339 q 219 163 181 211 q 310 87 257 115 q 431 58 364 58 q 600 99 515 58 q 775 231 685 140 l 817 422 l 606 422 l 618 479 l 890 479 l 789 0 l 726 0 l 758 153 m 624 1149 l 650 1274 l 714 1274 l 688 1149 l 624 1149 z "},"H":{"ha":981,"x_min":38,"x_max":975,"o":"m 247 986 l 318 986 l 222 536 l 808 536 l 904 986 l 975 986 l 765 0 l 694 0 l 794 472 l 210 472 l 108 0 l 38 0 l 247 986 z "},"Ħ":{"ha":993,"x_min":44,"x_max":1010,"o":"m 151 810 l 217 810 l 254 986 l 325 986 l 288 810 l 874 810 l 911 986 l 982 986 l 944 810 l 1010 810 l 1000 765 l 935 765 l 772 0 l 701 0 l 801 472 l 215 472 l 115 0 l 44 0 l 207 765 l 142 765 l 151 810 m 815 536 l 864 765 l 278 765 l 229 536 l 815 536 z "},"Ĥ":{"ha":981,"x_min":38,"x_max":975,"o":"m 493 1161 l 644 1274 l 696 1274 l 800 1161 l 754 1138 l 660 1225 l 529 1138 l 493 1161 m 247 986 l 318 986 l 222 536 l 808 536 l 904 986 l 975 986 l 765 0 l 694 0 l 794 472 l 210 472 l 108 0 l 38 0 l 247 986 z "},"I":{"ha":324,"x_min":38,"x_max":318,"o":"m 247 985 l 318 985 l 108 0 l 38 0 l 247 985 z "},"Ĳ":{"ha":969,"x_min":38,"x_max":975,"o":"m 247 985 l 318 985 l 108 0 l 38 0 l 247 985 m 465 -15 q 275 46 347 -15 l 310 103 q 379 65 336 79 q 479 50 422 50 q 606 79 554 50 q 692 164 657 108 q 751 301 728 219 q 797 485 775 382 l 904 985 l 975 985 l 868 485 q 815 280 844 372 q 742 122 786 188 q 631 21 697 57 q 465 -15 564 -15 z "},"J":{"ha":644,"x_min":-49,"x_max":651,"o":"m 142 -15 q -49 46 24 -15 l -14 103 q 56 65 13 79 q 156 50 99 50 q 282 79 231 50 q 369 164 333 108 q 428 301 404 219 q 474 485 451 382 l 581 985 l 651 985 l 544 485 q 492 280 521 372 q 418 122 463 188 q 307 21 374 57 q 142 -15 240 -15 z "},"Í":{"ha":324,"x_min":38,"x_max":444,"o":"m 247 985 l 318 985 l 108 0 l 38 0 l 247 985 m 303 1133 l 260 1156 l 365 1274 l 444 1274 l 303 1133 z "},"Ĭ":{"ha":324,"x_min":38,"x_max":449,"o":"m 247 985 l 318 985 l 108 0 l 38 0 l 247 985 m 310 1185 q 365 1210 338 1185 q 404 1274 393 1236 l 449 1274 q 428 1224 443 1247 q 394 1183 414 1200 q 350 1156 374 1165 q 303 1146 326 1146 q 232 1174 258 1146 q 206 1246 206 1203 q 210 1274 206 1258 l 256 1274 q 254 1254 254 1267 q 270 1206 254 1226 q 310 1185 286 1185 z "},"Î":{"ha":324,"x_min":38,"x_max":472,"o":"m 247 985 l 318 985 l 108 0 l 38 0 l 247 985 m 165 1161 l 317 1274 l 368 1274 l 472 1161 l 426 1138 l 332 1225 l 201 1138 l 165 1161 z "},"Ï":{"ha":324,"x_min":38,"x_max":463,"o":"m 247 985 l 318 985 l 108 0 l 38 0 l 247 985 m 194 1150 l 219 1272 l 281 1272 l 254 1150 l 194 1150 m 376 1150 l 403 1272 l 463 1272 l 438 1150 l 376 1150 z "},"İ":{"ha":324,"x_min":38,"x_max":375,"o":"m 247 985 l 318 985 l 108 0 l 38 0 l 247 985 m 285 1149 l 311 1274 l 375 1274 l 349 1149 l 285 1149 z "},"Ì":{"ha":324,"x_min":38,"x_max":358,"o":"m 247 985 l 318 985 l 108 0 l 38 0 l 247 985 m 225 1275 l 301 1275 l 358 1157 l 307 1135 l 225 1275 z "},"Ī":{"ha":324,"x_min":38,"x_max":526,"o":"m 247 985 l 318 985 l 108 0 l 38 0 l 247 985 m 138 1192 l 149 1243 l 526 1243 l 515 1192 l 138 1192 z "},"Į":{"ha":325,"x_min":-76,"x_max":319,"o":"m 249 985 l 319 985 l 110 0 q 2 -78 32 -47 q -28 -142 -28 -110 q 26 -193 -28 -185 l -6 -235 q -59 -206 -42 -226 q -76 -157 -76 -185 q -47 -81 -76 -117 q 53 0 -17 -44 l 39 0 l 249 985 z "},"Ĩ":{"ha":324,"x_min":38,"x_max":542,"o":"m 247 985 l 318 985 l 108 0 l 38 0 l 247 985 m 396 1158 q 346 1167 367 1158 q 308 1185 325 1175 q 276 1205 292 1196 q 240 1214 261 1214 q 203 1204 218 1214 q 178 1183 188 1194 q 165 1160 169 1171 q 160 1147 160 1150 l 113 1147 q 122 1172 114 1153 q 147 1210 131 1190 q 189 1247 164 1231 q 250 1263 214 1263 q 295 1253 276 1263 q 331 1234 314 1244 q 364 1215 347 1224 q 406 1207 381 1207 q 449 1217 432 1207 q 476 1238 465 1226 q 491 1260 486 1250 q 496 1274 496 1271 l 542 1274 q 532 1248 540 1267 q 506 1210 524 1229 q 462 1174 489 1190 q 396 1158 435 1158 z "},"Ĵ":{"ha":644,"x_min":-49,"x_max":803,"o":"m 496 1161 l 647 1274 l 699 1274 l 803 1161 l 757 1138 l 663 1225 l 532 1138 l 496 1161 m 142 -15 q -49 46 24 -15 l -14 103 q 56 65 13 79 q 156 50 99 50 q 282 79 231 50 q 369 164 333 108 q 428 301 404 219 q 474 485 451 382 l 581 985 l 651 985 l 544 485 q 492 280 521 372 q 418 122 463 188 q 307 21 374 57 q 142 -15 240 -15 z "},"K":{"ha":842,"x_min":38,"x_max":942,"o":"m 247 985 l 318 985 l 190 388 l 860 986 l 942 986 l 461 554 l 751 0 l 671 0 l 407 511 l 174 304 l 108 0 l 38 0 l 247 985 z "},"Ķ":{"ha":842,"x_min":38,"x_max":942,"o":"m 265 -260 l 306 -165 l 283 -165 l 304 -68 l 371 -68 l 351 -165 l 303 -260 l 265 -260 m 247 985 l 318 985 l 190 388 l 860 986 l 942 986 l 461 554 l 751 0 l 671 0 l 407 511 l 174 304 l 108 0 l 38 0 l 247 985 z "},"L":{"ha":771,"x_min":38,"x_max":679,"o":"m 247 986 l 318 986 l 122 64 l 679 64 l 665 0 l 38 0 l 247 986 z "},"Ĺ":{"ha":771,"x_min":38,"x_max":679,"o":"m 314 1133 l 271 1156 l 376 1274 l 456 1274 l 314 1133 m 247 986 l 318 986 l 122 64 l 679 64 l 665 0 l 38 0 l 247 986 z "},"Ľ":{"ha":771,"x_min":38,"x_max":679,"o":"m 392 896 l 497 1014 l 576 1014 l 435 874 l 392 896 m 247 986 l 318 986 l 122 64 l 679 64 l 665 0 l 38 0 l 247 986 z "},"Ļ":{"ha":771,"x_min":38,"x_max":679,"o":"m 265 -260 l 306 -165 l 283 -165 l 304 -68 l 371 -68 l 351 -165 l 303 -260 l 265 -260 m 247 986 l 318 986 l 122 64 l 679 64 l 665 0 l 38 0 l 247 986 z "},"Ŀ":{"ha":771,"x_min":38,"x_max":679,"o":"m 247 986 l 318 986 l 122 64 l 679 64 l 665 0 l 38 0 l 247 986 m 460 490 l 490 631 l 550 631 l 521 490 l 460 490 z "},"·":{"ha":242,"x_min":74,"x_max":164,"o":"m 74 344 l 104 485 l 164 485 l 135 344 l 74 344 z "},"Ł":{"ha":781,"x_min":19,"x_max":689,"o":"m 19 357 l 146 454 l 258 986 l 329 986 l 229 519 l 492 725 l 508 683 l 215 454 l 132 64 l 689 64 l 676 0 l 49 0 l 131 388 l 36 314 l 19 357 z "},"M":{"ha":1169,"x_min":38,"x_max":1164,"o":"m 247 986 l 318 986 l 556 281 l 1094 986 l 1164 986 l 954 0 l 883 0 l 1065 853 l 558 188 l 514 188 l 290 853 l 108 0 l 38 0 l 247 986 z "},"N":{"ha":1029,"x_min":38,"x_max":1024,"o":"m 247 986 l 303 986 l 769 118 l 953 985 l 1024 985 l 814 0 l 751 0 l 290 853 l 108 0 l 38 0 l 247 986 z "},"\u0000":{"ha":0,"x_min":0,"x_max":0,"o":""},"Ń":{"ha":1029,"x_min":38,"x_max":1024,"o":"m 665 1133 l 622 1156 l 728 1274 l 807 1274 l 665 1133 m 247 986 l 303 986 l 769 118 l 953 985 l 1024 985 l 814 0 l 751 0 l 290 853 l 108 0 l 38 0 l 247 986 z "},"Ň":{"ha":1029,"x_min":38,"x_max":1024,"o":"m 535 1250 l 581 1274 l 675 1186 l 806 1274 l 842 1250 l 690 1138 l 639 1138 l 535 1250 m 247 986 l 303 986 l 769 118 l 953 985 l 1024 985 l 814 0 l 751 0 l 290 853 l 108 0 l 38 0 l 247 986 z "},"Ņ":{"ha":1029,"x_min":38,"x_max":1024,"o":"m 346 -260 l 386 -165 l 364 -165 l 385 -68 l 451 -68 l 432 -165 l 383 -260 l 346 -260 m 247 986 l 303 986 l 769 118 l 953 985 l 1024 985 l 814 0 l 751 0 l 290 853 l 108 0 l 38 0 l 247 986 z "},"Ṅ":{"ha":1029,"x_min":38,"x_max":1024,"o":"m 644 1149 l 671 1274 l 735 1274 l 708 1149 l 644 1149 m 247 986 l 303 986 l 769 118 l 953 985 l 1024 985 l 814 0 l 751 0 l 290 853 l 108 0 l 38 0 l 247 986 z "},"Ñ":{"ha":1029,"x_min":38,"x_max":1024,"o":"m 247 986 l 303 986 l 769 118 l 953 985 l 1024 985 l 814 0 l 751 0 l 290 853 l 108 0 l 38 0 l 247 986 m 760 1158 q 710 1167 731 1158 q 672 1185 689 1175 q 640 1205 656 1196 q 604 1214 625 1214 q 567 1204 582 1214 q 542 1183 551 1194 q 528 1160 533 1171 q 524 1147 524 1150 l 476 1147 q 486 1172 478 1153 q 511 1210 494 1190 q 553 1247 528 1231 q 614 1263 578 1263 q 659 1253 640 1263 q 694 1234 678 1244 q 728 1215 711 1224 q 769 1207 744 1207 q 813 1217 796 1207 q 840 1238 829 1226 q 855 1260 850 1250 q 860 1274 860 1271 l 906 1274 q 896 1248 904 1267 q 870 1210 888 1229 q 826 1174 853 1190 q 760 1158 799 1158 z "},"O":{"ha":1006,"x_min":67,"x_max":969,"o":"m 413 -7 q 265 26 329 -7 q 156 116 200 60 q 90 246 113 172 q 67 399 67 319 q 114 619 67 513 q 239 810 161 726 q 418 943 317 893 q 626 993 519 993 q 774 958 710 993 q 881 867 838 924 q 947 736 925 810 q 969 585 969 663 q 922 365 969 472 q 797 176 875 258 q 619 43 719 93 q 413 -7 519 -7 m 426 58 q 608 105 522 58 q 758 226 694 151 q 860 393 822 300 q 897 578 897 486 q 878 712 897 649 q 822 823 858 775 q 731 899 785 871 q 611 928 678 928 q 429 881 515 928 q 278 760 343 835 q 176 593 214 686 q 139 407 139 500 q 158 273 139 336 q 215 162 178 210 q 305 86 251 114 q 426 58 358 58 z "},"Œ":{"ha":1551,"x_min":67,"x_max":1601,"o":"m 414 -7 q 266 27 331 -7 q 157 117 201 61 q 90 247 113 174 q 67 400 67 321 q 114 619 67 513 q 239 810 161 726 q 418 943 317 893 q 626 993 519 993 q 744 970 692 993 q 835 908 797 947 q 899 817 874 869 q 932 707 924 765 l 992 986 l 1601 986 l 1586 922 l 1049 922 l 968 536 l 1433 536 l 1419 471 l 953 471 l 867 64 l 1415 64 l 1403 0 l 782 0 l 842 278 q 758 166 806 218 q 656 76 711 114 q 538 15 600 38 q 414 -7 476 -7 m 426 58 q 608 105 522 58 q 758 226 693 151 q 860 393 822 300 q 897 579 897 486 q 878 712 897 649 q 822 823 858 775 q 731 899 785 871 q 611 928 678 928 q 429 881 515 928 q 278 760 343 835 q 176 593 214 686 q 139 407 139 500 q 158 273 139 336 q 215 162 178 210 q 305 86 251 114 q 426 58 358 58 z "},"Ó":{"ha":1006,"x_min":67,"x_max":969,"o":"m 651 1133 l 608 1156 l 714 1274 l 793 1274 l 651 1133 m 413 -7 q 265 26 329 -7 q 156 116 200 60 q 90 246 113 172 q 67 399 67 319 q 114 619 67 513 q 239 810 161 726 q 418 943 317 893 q 626 993 519 993 q 774 958 710 993 q 881 867 838 924 q 947 736 925 810 q 969 585 969 663 q 922 365 969 472 q 797 176 875 258 q 619 43 719 93 q 413 -7 519 -7 m 426 58 q 608 105 522 58 q 758 226 694 151 q 860 393 822 300 q 897 578 897 486 q 878 712 897 649 q 822 823 858 775 q 731 899 785 871 q 611 928 678 928 q 429 881 515 928 q 278 760 343 835 q 176 593 214 686 q 139 407 139 500 q 158 273 139 336 q 215 162 178 210 q 305 86 251 114 q 426 58 358 58 z "},"Ŏ":{"ha":1006,"x_min":67,"x_max":969,"o":"m 413 -7 q 265 26 329 -7 q 156 116 200 60 q 90 246 113 172 q 67 399 67 319 q 114 619 67 513 q 239 810 161 726 q 418 943 317 893 q 626 993 519 993 q 774 958 710 993 q 881 867 838 924 q 947 736 925 810 q 969 585 969 663 q 922 365 969 472 q 797 176 875 258 q 619 43 719 93 q 413 -7 519 -7 m 426 58 q 608 105 522 58 q 758 226 694 151 q 860 393 822 300 q 897 578 897 486 q 878 712 897 649 q 822 823 858 775 q 731 899 785 871 q 611 928 678 928 q 429 881 515 928 q 278 760 343 835 q 176 593 214 686 q 139 407 139 500 q 158 273 139 336 q 215 162 178 210 q 305 86 251 114 q 426 58 358 58 m 657 1185 q 713 1210 685 1185 q 751 1274 740 1236 l 796 1274 q 776 1224 790 1247 q 741 1183 761 1200 q 697 1156 721 1165 q 650 1146 674 1146 q 579 1174 606 1146 q 553 1246 553 1203 q 557 1274 553 1258 l 603 1274 q 601 1254 601 1267 q 617 1206 601 1226 q 657 1185 633 1185 z "},"Ô":{"ha":1006,"x_min":67,"x_max":969,"o":"m 515 1161 l 667 1274 l 718 1274 l 822 1161 l 776 1138 l 682 1225 l 551 1138 l 515 1161 m 413 -7 q 265 26 329 -7 q 156 116 200 60 q 90 246 113 172 q 67 399 67 319 q 114 619 67 513 q 239 810 161 726 q 418 943 317 893 q 626 993 519 993 q 774 958 710 993 q 881 867 838 924 q 947 736 925 810 q 969 585 969 663 q 922 365 969 472 q 797 176 875 258 q 619 43 719 93 q 413 -7 519 -7 m 426 58 q 608 105 522 58 q 758 226 694 151 q 860 393 822 300 q 897 578 897 486 q 878 712 897 649 q 822 823 858 775 q 731 899 785 871 q 611 928 678 928 q 429 881 515 928 q 278 760 343 835 q 176 593 214 686 q 139 407 139 500 q 158 273 139 336 q 215 162 178 210 q 305 86 251 114 q 426 58 358 58 z "},"Ö":{"ha":1006,"x_min":67,"x_max":969,"o":"m 539 1150 l 564 1272 l 625 1272 l 599 1150 l 539 1150 m 721 1150 l 747 1272 l 807 1272 l 782 1150 l 721 1150 m 413 -7 q 265 26 329 -7 q 156 116 200 60 q 90 246 113 172 q 67 399 67 319 q 114 619 67 513 q 239 810 161 726 q 418 943 317 893 q 626 993 519 993 q 774 958 710 993 q 881 867 838 924 q 947 736 925 810 q 969 585 969 663 q 922 365 969 472 q 797 176 875 258 q 619 43 719 93 q 413 -7 519 -7 m 426 58 q 608 105 522 58 q 758 226 694 151 q 860 393 822 300 q 897 578 897 486 q 878 712 897 649 q 822 823 858 775 q 731 899 785 871 q 611 928 678 928 q 429 881 515 928 q 278 760 343 835 q 176 593 214 686 q 139 407 139 500 q 158 273 139 336 q 215 162 178 210 q 305 86 251 114 q 426 58 358 58 z "},"Ò":{"ha":1006,"x_min":67,"x_max":969,"o":"m 413 -7 q 265 26 329 -7 q 156 116 200 60 q 90 246 113 172 q 67 399 67 319 q 114 619 67 513 q 239 810 161 726 q 418 943 317 893 q 626 993 519 993 q 774 958 710 993 q 881 867 838 924 q 947 736 925 810 q 969 585 969 663 q 922 365 969 472 q 797 176 875 258 q 619 43 719 93 q 413 -7 519 -7 m 426 58 q 608 105 522 58 q 758 226 694 151 q 860 393 822 300 q 897 578 897 486 q 878 712 897 649 q 822 823 858 775 q 731 899 785 871 q 611 928 678 928 q 429 881 515 928 q 278 760 343 835 q 176 593 214 686 q 139 407 139 500 q 158 273 139 336 q 215 162 178 210 q 305 86 251 114 q 426 58 358 58 m 589 1275 l 665 1275 l 722 1157 l 671 1135 l 589 1275 z "},"Ő":{"ha":1006,"x_min":67,"x_max":969,"o":"m 558 1135 l 522 1157 l 626 1275 l 697 1275 l 558 1135 m 714 1135 l 678 1157 l 781 1275 l 853 1275 l 714 1135 m 413 -7 q 265 26 329 -7 q 156 116 200 60 q 90 246 113 172 q 67 399 67 319 q 114 619 67 513 q 239 810 161 726 q 418 943 317 893 q 626 993 519 993 q 774 958 710 993 q 881 867 838 924 q 947 736 925 810 q 969 585 969 663 q 922 365 969 472 q 797 176 875 258 q 619 43 719 93 q 413 -7 519 -7 m 426 58 q 608 105 522 58 q 758 226 694 151 q 860 393 822 300 q 897 578 897 486 q 878 712 897 649 q 822 823 858 775 q 731 899 785 871 q 611 928 678 928 q 429 881 515 928 q 278 760 343 835 q 176 593 214 686 q 139 407 139 500 q 158 273 139 336 q 215 162 178 210 q 305 86 251 114 q 426 58 358 58 z "},"˝":{"ha":419,"x_min":57,"x_max":388,"o":"m 93 874 l 57 896 l 161 1014 l 232 1014 l 93 874 m 249 874 l 213 896 l 315 1014 l 388 1014 l 249 874 z "},"Ō":{"ha":1006,"x_min":67,"x_max":969,"o":"m 479 1192 l 490 1243 l 868 1243 l 857 1192 l 479 1192 m 413 -7 q 265 26 329 -7 q 156 116 200 60 q 90 246 113 172 q 67 399 67 319 q 114 619 67 513 q 239 810 161 726 q 418 943 317 893 q 626 993 519 993 q 774 958 710 993 q 881 867 838 924 q 947 736 925 810 q 969 585 969 663 q 922 365 969 472 q 797 176 875 258 q 619 43 719 93 q 413 -7 519 -7 m 426 58 q 608 105 522 58 q 758 226 694 151 q 860 393 822 300 q 897 578 897 486 q 878 712 897 649 q 822 823 858 775 q 731 899 785 871 q 611 928 678 928 q 429 881 515 928 q 278 760 343 835 q 176 593 214 686 q 139 407 139 500 q 158 273 139 336 q 215 162 178 210 q 305 86 251 114 q 426 58 358 58 z "},"Ǫ":{"ha":1004,"x_min":67,"x_max":969,"o":"m 325 -237 q 272 -208 289 -229 q 254 -160 254 -187 q 283 -85 254 -121 q 379 -6 311 -50 q 246 38 304 1 q 148 128 188 74 q 88 253 108 183 q 67 399 67 324 q 114 619 67 513 q 239 810 161 726 q 418 943 317 893 q 626 993 519 993 q 774 958 710 993 q 881 867 838 924 q 947 736 925 810 q 969 585 969 663 q 925 370 969 474 q 806 185 881 267 q 635 51 732 103 q 435 -6 539 0 q 331 -82 360 -51 q 303 -144 303 -112 q 357 -196 303 -187 l 325 -237 m 426 58 q 608 105 522 58 q 758 226 694 151 q 860 393 822 300 q 897 578 897 486 q 878 712 897 649 q 822 823 858 775 q 731 899 785 871 q 611 928 678 928 q 429 881 515 928 q 278 760 343 835 q 176 593 214 686 q 139 407 139 500 q 158 273 139 336 q 215 162 178 210 q 305 86 251 114 q 426 58 358 58 z "},"Ø":{"ha":1006,"x_min":67,"x_max":974,"o":"m 974 986 l 876 871 q 946 738 922 813 q 969 585 969 664 q 922 365 969 472 q 797 176 875 258 q 619 43 719 93 q 413 -7 519 -7 q 297 13 349 -7 q 203 67 244 32 l 147 0 l 68 0 l 161 111 q 90 242 114 168 q 67 399 67 317 q 114 619 67 513 q 239 810 161 726 q 418 943 317 893 q 626 993 519 993 q 742 972 690 993 q 835 915 794 951 l 894 986 l 974 986 m 139 407 q 210 168 139 267 l 788 858 q 708 909 753 890 q 611 928 664 928 q 429 881 515 928 q 278 760 343 835 q 176 593 214 686 q 139 407 139 500 m 426 58 q 608 105 522 58 q 758 226 694 151 q 860 393 822 300 q 897 578 897 486 q 879 705 897 644 q 828 813 861 765 l 250 124 q 329 75 285 92 q 426 58 374 58 z "},"/":{"ha":797,"x_min":-36,"x_max":869,"o":"m 869 986 l 43 0 l -36 0 l 790 986 l 869 986 z "},"Ǿ":{"ha":1006,"x_min":67,"x_max":974,"o":"m 974 986 l 876 871 q 946 738 922 813 q 969 585 969 664 q 922 365 969 472 q 797 176 875 258 q 619 43 719 93 q 413 -7 519 -7 q 297 13 349 -7 q 203 67 244 32 l 147 0 l 68 0 l 161 111 q 90 242 114 168 q 67 399 67 317 q 114 619 67 513 q 239 810 161 726 q 418 943 317 893 q 626 993 519 993 q 742 972 690 993 q 835 915 794 951 l 894 986 l 974 986 m 139 407 q 210 168 139 267 l 788 858 q 708 909 753 890 q 611 928 664 928 q 429 881 515 928 q 278 760 343 835 q 176 593 214 686 q 139 407 139 500 m 426 58 q 608 105 522 58 q 758 226 694 151 q 860 393 822 300 q 897 578 897 486 q 879 705 897 644 q 828 813 861 765 l 250 124 q 329 75 285 92 q 426 58 374 58 m 646 1133 l 603 1156 l 708 1274 l 788 1274 l 646 1133 z "},"Õ":{"ha":1006,"x_min":67,"x_max":969,"o":"m 413 -7 q 265 26 329 -7 q 156 116 200 60 q 90 246 113 172 q 67 399 67 319 q 114 619 67 513 q 239 810 161 726 q 418 943 317 893 q 626 993 519 993 q 774 958 710 993 q 881 867 838 924 q 947 736 925 810 q 969 585 969 663 q 922 365 969 472 q 797 176 875 258 q 619 43 719 93 q 413 -7 519 -7 m 426 58 q 608 105 522 58 q 758 226 694 151 q 860 393 822 300 q 897 578 897 486 q 878 712 897 649 q 822 823 858 775 q 731 899 785 871 q 611 928 678 928 q 429 881 515 928 q 278 760 343 835 q 176 593 214 686 q 139 407 139 500 q 158 273 139 336 q 215 162 178 210 q 305 86 251 114 q 426 58 358 58 m 742 1158 q 692 1167 713 1158 q 654 1185 671 1175 q 622 1205 638 1196 q 586 1214 607 1214 q 549 1204 564 1214 q 524 1183 533 1194 q 510 1160 515 1171 q 506 1147 506 1150 l 458 1147 q 468 1172 460 1153 q 493 1210 476 1190 q 535 1247 510 1231 q 596 1263 560 1263 q 641 1253 622 1263 q 676 1234 660 1244 q 710 1215 693 1224 q 751 1207 726 1207 q 794 1217 778 1207 q 822 1238 811 1226 q 837 1260 832 1250 q 842 1274 842 1271 l 888 1274 q 878 1248 886 1267 q 852 1210 869 1229 q 808 1174 835 1190 q 742 1158 781 1158 z "},"P":{"ha":831,"x_min":38,"x_max":849,"o":"m 247 986 l 633 986 q 724 965 685 986 q 792 908 764 943 q 834 827 819 872 q 849 733 849 782 q 822 603 849 668 q 749 488 794 539 q 641 404 703 436 q 511 372 579 372 l 188 372 l 108 0 l 38 0 l 247 986 m 522 438 q 622 463 575 438 q 702 531 668 489 q 756 624 736 572 q 776 726 776 675 q 765 802 776 767 q 732 865 753 838 q 681 907 711 892 q 615 922 651 922 l 304 922 l 201 438 l 522 438 z "},"Q":{"ha":1004,"x_min":67,"x_max":969,"o":"m 697 89 q 560 19 632 44 q 413 -7 488 -7 q 265 26 329 -7 q 157 116 201 60 q 90 246 113 172 q 67 399 67 319 q 114 619 67 513 q 239 810 161 726 q 418 943 317 893 q 626 993 519 993 q 774 958 710 993 q 881 867 838 924 q 947 736 925 810 q 969 585 969 663 q 953 456 969 519 q 908 334 938 393 q 838 223 879 275 q 747 128 797 171 l 824 0 l 750 0 l 697 89 m 426 58 q 553 81 493 58 q 667 142 614 103 l 583 286 l 656 286 l 717 182 q 790 267 757 221 q 847 365 824 314 q 884 471 871 417 q 897 578 897 525 q 878 712 897 649 q 822 823 858 775 q 731 899 785 871 q 611 928 678 928 q 429 881 515 928 q 278 760 343 835 q 176 593 214 686 q 139 407 139 500 q 158 273 139 336 q 215 162 178 210 q 305 86 251 114 q 426 58 358 58 z "},"R":{"ha":867,"x_min":38,"x_max":854,"o":"m 38 0 l 247 986 l 639 986 q 729 965 689 986 q 797 908 769 943 q 840 827 825 872 q 854 733 854 782 q 831 613 854 672 q 769 506 808 554 q 677 425 729 458 q 565 383 625 392 l 715 0 l 635 0 l 488 372 l 188 372 l 108 0 l 38 0 m 528 438 q 626 463 579 438 q 706 530 672 489 q 760 622 740 571 q 781 725 781 674 q 769 800 781 764 q 736 863 757 836 q 686 906 715 890 q 621 922 657 922 l 304 922 l 201 438 l 528 438 z "},"Ŕ":{"ha":867,"x_min":38,"x_max":854,"o":"m 556 1138 l 513 1160 l 618 1278 l 697 1278 l 556 1138 m 38 0 l 247 986 l 639 986 q 729 965 689 986 q 797 908 769 943 q 840 827 825 872 q 854 733 854 782 q 831 613 854 672 q 769 506 808 554 q 677 425 729 458 q 565 383 625 392 l 715 0 l 635 0 l 488 372 l 188 372 l 108 0 l 38 0 m 528 438 q 626 463 579 438 q 706 530 672 489 q 760 622 740 571 q 781 725 781 674 q 769 800 781 764 q 736 863 757 836 q 686 906 715 890 q 621 922 657 922 l 304 922 l 201 438 l 528 438 z "},"Ř":{"ha":867,"x_min":38,"x_max":854,"o":"m 454 1254 l 500 1278 l 594 1190 l 725 1278 l 761 1254 l 610 1142 l 558 1142 l 454 1254 m 38 0 l 247 986 l 639 986 q 729 965 689 986 q 797 908 769 943 q 840 827 825 872 q 854 733 854 782 q 831 613 854 672 q 769 506 808 554 q 677 425 729 458 q 565 383 625 392 l 715 0 l 635 0 l 488 372 l 188 372 l 108 0 l 38 0 m 528 438 q 626 463 579 438 q 706 530 672 489 q 760 622 740 571 q 781 725 781 674 q 769 800 781 764 q 736 863 757 836 q 686 906 715 890 q 621 922 657 922 l 304 922 l 201 438 l 528 438 z "},"Ŗ":{"ha":867,"x_min":38,"x_max":854,"o":"m 261 -260 l 301 -165 l 279 -165 l 300 -68 l 367 -68 l 347 -165 l 299 -260 l 261 -260 m 38 0 l 247 986 l 639 986 q 729 965 689 986 q 797 908 769 943 q 840 827 825 872 q 854 733 854 782 q 831 613 854 672 q 769 506 808 554 q 677 425 729 458 q 565 383 625 392 l 715 0 l 635 0 l 488 372 l 188 372 l 108 0 l 38 0 m 528 438 q 626 463 579 438 q 706 530 672 489 q 760 622 740 571 q 781 725 781 674 q 769 800 781 764 q 736 863 757 836 q 686 906 715 890 q 621 922 657 922 l 304 922 l 201 438 l 528 438 z "},"S":{"ha":810,"x_min":-8,"x_max":807,"o":"m 333 -8 q -8 139 114 -8 l 42 196 q 163 92 86 131 q 349 54 240 54 q 571 113 489 54 q 653 281 653 171 q 588 397 653 357 q 401 464 524 436 q 291 494 339 478 q 210 534 243 511 q 159 590 176 557 q 142 668 142 622 q 172 805 142 744 q 256 907 203 865 q 381 971 308 949 q 539 993 454 993 q 697 965 631 993 q 807 878 763 936 l 758 822 q 525 929 692 929 q 385 910 443 929 q 290 860 328 892 q 235 784 253 828 q 218 689 218 740 q 233 628 218 653 q 276 585 247 603 q 349 553 306 567 q 451 525 393 539 q 566 492 514 510 q 654 449 618 475 q 710 388 690 424 q 731 301 731 353 q 701 168 731 226 q 617 71 671 110 q 491 12 564 32 q 333 -8 418 -8 z "},"Ś":{"ha":810,"x_min":-8,"x_max":807,"o":"m 557 1160 l 514 1182 l 619 1300 l 699 1300 l 557 1160 m 333 -8 q -8 139 114 -8 l 42 196 q 163 92 86 131 q 349 54 240 54 q 571 113 489 54 q 653 281 653 171 q 588 397 653 357 q 401 464 524 436 q 291 494 339 478 q 210 534 243 511 q 159 590 176 557 q 142 668 142 622 q 172 805 142 744 q 256 907 203 865 q 381 971 308 949 q 539 993 454 993 q 697 965 631 993 q 807 878 763 936 l 758 822 q 525 929 692 929 q 385 910 443 929 q 290 860 328 892 q 235 784 253 828 q 218 689 218 740 q 233 628 218 653 q 276 585 247 603 q 349 553 306 567 q 451 525 393 539 q 566 492 514 510 q 654 449 618 475 q 710 388 690 424 q 731 301 731 353 q 701 168 731 226 q 617 71 671 110 q 491 12 564 32 q 333 -8 418 -8 z "},"Š":{"ha":810,"x_min":-8,"x_max":807,"o":"m 440 1276 l 486 1300 l 581 1213 l 711 1300 l 747 1276 l 596 1164 l 544 1164 l 440 1276 m 333 -8 q -8 139 114 -8 l 42 196 q 163 92 86 131 q 349 54 240 54 q 571 113 489 54 q 653 281 653 171 q 588 397 653 357 q 401 464 524 436 q 291 494 339 478 q 210 534 243 511 q 159 590 176 557 q 142 668 142 622 q 172 805 142 744 q 256 907 203 865 q 381 971 308 949 q 539 993 454 993 q 697 965 631 993 q 807 878 763 936 l 758 822 q 525 929 692 929 q 385 910 443 929 q 290 860 328 892 q 235 784 253 828 q 218 689 218 740 q 233 628 218 653 q 276 585 247 603 q 349 553 306 567 q 451 525 393 539 q 566 492 514 510 q 654 449 618 475 q 710 388 690 424 q 731 301 731 353 q 701 168 731 226 q 617 71 671 110 q 491 12 564 32 q 333 -8 418 -8 z "},"Ŝ":{"ha":810,"x_min":-8,"x_max":807,"o":"m 429 1188 l 581 1300 l 632 1300 l 736 1188 l 690 1164 l 596 1251 l 465 1164 l 429 1188 m 333 -8 q -8 139 114 -8 l 42 196 q 163 92 86 131 q 349 54 240 54 q 571 113 489 54 q 653 281 653 171 q 588 397 653 357 q 401 464 524 436 q 291 494 339 478 q 210 534 243 511 q 159 590 176 557 q 142 668 142 622 q 172 805 142 744 q 256 907 203 865 q 381 971 308 949 q 539 993 454 993 q 697 965 631 993 q 807 878 763 936 l 758 822 q 525 929 692 929 q 385 910 443 929 q 290 860 328 892 q 235 784 253 828 q 218 689 218 740 q 233 628 218 653 q 276 585 247 603 q 349 553 306 567 q 451 525 393 539 q 566 492 514 510 q 654 449 618 475 q 710 388 690 424 q 731 301 731 353 q 701 168 731 226 q 617 71 671 110 q 491 12 564 32 q 333 -8 418 -8 z "},"T":{"ha":804,"x_min":129,"x_max":897,"o":"m 471 922 l 129 922 l 142 986 l 897 986 l 883 922 l 542 922 l 344 0 l 275 0 l 471 922 z "},"Ŧ":{"ha":856,"x_min":114,"x_max":924,"o":"m 122 572 l 422 572 l 497 922 l 156 922 l 168 986 l 924 986 l 910 922 l 568 922 l 493 572 l 793 572 l 783 528 l 483 528 l 372 0 l 301 0 l 413 528 l 114 528 l 122 572 z "},"Ť":{"ha":804,"x_min":129,"x_max":897,"o":"m 413 1250 l 458 1274 l 553 1186 l 683 1274 l 719 1250 l 568 1138 l 517 1138 l 413 1250 m 471 922 l 129 922 l 142 986 l 897 986 l 883 922 l 542 922 l 344 0 l 275 0 l 471 922 z "},"Þ":{"ha":801,"x_min":38,"x_max":781,"o":"m 247 986 l 318 986 l 275 786 l 565 786 q 656 765 617 786 q 724 708 696 743 q 766 627 751 672 q 781 533 781 582 q 753 403 781 468 q 681 288 726 339 q 573 204 635 236 q 443 172 511 172 l 144 172 l 108 0 l 38 0 l 247 986 m 454 238 q 555 263 508 238 q 635 331 601 289 q 690 424 669 372 q 710 525 710 475 q 698 600 710 564 q 665 663 686 636 q 615 705 644 689 q 549 721 585 721 l 263 721 l 160 238 l 454 238 z "},"U":{"ha":1006,"x_min":108,"x_max":1014,"o":"m 414 -7 q 269 19 328 -7 q 176 88 211 44 q 124 191 140 132 q 108 318 108 250 q 128 490 108 400 l 233 986 l 304 986 l 199 490 q 185 408 190 449 q 179 329 179 368 q 192 223 179 272 q 233 137 204 174 q 310 79 263 100 q 426 58 357 58 q 591 96 521 58 q 710 194 661 133 q 791 333 760 256 q 839 490 822 411 l 943 986 l 1014 986 l 910 490 q 849 301 889 390 q 749 142 810 211 q 605 33 688 74 q 414 -7 522 -7 z "},"Ú":{"ha":1006,"x_min":108,"x_max":1014,"o":"m 629 1133 l 586 1156 l 692 1274 l 771 1274 l 629 1133 m 414 -7 q 269 19 328 -7 q 176 88 211 44 q 124 191 140 132 q 108 318 108 250 q 128 490 108 400 l 233 986 l 304 986 l 199 490 q 185 408 190 449 q 179 329 179 368 q 192 223 179 272 q 233 137 204 174 q 310 79 263 100 q 426 58 357 58 q 591 96 521 58 q 710 194 661 133 q 791 333 760 256 q 839 490 822 411 l 943 986 l 1014 986 l 910 490 q 849 301 889 390 q 749 142 810 211 q 605 33 688 74 q 414 -7 522 -7 z "},"Ŭ":{"ha":1006,"x_min":108,"x_max":1014,"o":"m 414 -7 q 269 19 328 -7 q 176 88 211 44 q 124 191 140 132 q 108 318 108 250 q 128 490 108 400 l 233 986 l 304 986 l 199 490 q 185 408 190 449 q 179 329 179 368 q 192 223 179 272 q 233 137 204 174 q 310 79 263 100 q 426 58 357 58 q 591 96 521 58 q 710 194 661 133 q 791 333 760 256 q 839 490 822 411 l 943 986 l 1014 986 l 910 490 q 849 301 889 390 q 749 142 810 211 q 605 33 688 74 q 414 -7 522 -7 m 653 1185 q 708 1210 681 1185 q 747 1274 736 1236 l 792 1274 q 772 1224 786 1247 q 737 1183 757 1200 q 693 1156 717 1165 q 646 1146 669 1146 q 575 1174 601 1146 q 549 1246 549 1203 q 553 1274 549 1258 l 599 1274 q 597 1254 597 1267 q 613 1206 597 1226 q 653 1185 629 1185 z "},"Û":{"ha":1006,"x_min":108,"x_max":1014,"o":"m 506 1161 l 657 1274 l 708 1274 l 813 1161 l 767 1138 l 672 1225 l 542 1138 l 506 1161 m 414 -7 q 269 19 328 -7 q 176 88 211 44 q 124 191 140 132 q 108 318 108 250 q 128 490 108 400 l 233 986 l 304 986 l 199 490 q 185 408 190 449 q 179 329 179 368 q 192 223 179 272 q 233 137 204 174 q 310 79 263 100 q 426 58 357 58 q 591 96 521 58 q 710 194 661 133 q 791 333 760 256 q 839 490 822 411 l 943 986 l 1014 986 l 910 490 q 849 301 889 390 q 749 142 810 211 q 605 33 688 74 q 414 -7 522 -7 z "},"Ü":{"ha":1006,"x_min":108,"x_max":1014,"o":"m 532 1150 l 557 1272 l 618 1272 l 592 1150 l 532 1150 m 714 1150 l 740 1272 l 800 1272 l 775 1150 l 714 1150 m 414 -7 q 269 19 328 -7 q 176 88 211 44 q 124 191 140 132 q 108 318 108 250 q 128 490 108 400 l 233 986 l 304 986 l 199 490 q 185 408 190 449 q 179 329 179 368 q 192 223 179 272 q 233 137 204 174 q 310 79 263 100 q 426 58 357 58 q 591 96 521 58 q 710 194 661 133 q 791 333 760 256 q 839 490 822 411 l 943 986 l 1014 986 l 910 490 q 849 301 889 390 q 749 142 810 211 q 605 33 688 74 q 414 -7 522 -7 z "},"Ù":{"ha":1006,"x_min":108,"x_max":1014,"o":"m 414 -7 q 269 19 328 -7 q 176 88 211 44 q 124 191 140 132 q 108 318 108 250 q 128 490 108 400 l 233 986 l 304 986 l 199 490 q 185 408 190 449 q 179 329 179 368 q 192 223 179 272 q 233 137 204 174 q 310 79 263 100 q 426 58 357 58 q 591 96 521 58 q 710 194 661 133 q 791 333 760 256 q 839 490 822 411 l 943 986 l 1014 986 l 910 490 q 849 301 889 390 q 749 142 810 211 q 605 33 688 74 q 414 -7 522 -7 m 578 1275 l 654 1275 l 711 1157 l 660 1135 l 578 1275 z "},"Ű":{"ha":1006,"x_min":108,"x_max":1014,"o":"m 414 -7 q 269 19 328 -7 q 176 88 211 44 q 124 191 140 132 q 108 318 108 250 q 128 490 108 400 l 233 986 l 304 986 l 199 490 q 185 408 190 449 q 179 329 179 368 q 192 223 179 272 q 233 137 204 174 q 310 79 263 100 q 426 58 357 58 q 591 96 521 58 q 710 194 661 133 q 791 333 760 256 q 839 490 822 411 l 943 986 l 1014 986 l 910 490 q 849 301 889 390 q 749 142 810 211 q 605 33 688 74 q 414 -7 522 -7 m 547 1135 l 511 1157 l 615 1275 l 686 1275 l 547 1135 m 703 1135 l 667 1157 l 769 1275 l 842 1275 l 703 1135 z "},"Ū":{"ha":1006,"x_min":108,"x_max":1014,"o":"m 414 -7 q 269 19 328 -7 q 176 88 211 44 q 124 191 140 132 q 108 318 108 250 q 128 490 108 400 l 233 986 l 304 986 l 199 490 q 185 408 190 449 q 179 329 179 368 q 192 223 179 272 q 233 137 204 174 q 310 79 263 100 q 426 58 357 58 q 591 96 521 58 q 710 194 661 133 q 791 333 760 256 q 839 490 822 411 l 943 986 l 1014 986 l 910 490 q 849 301 889 390 q 749 142 810 211 q 605 33 688 74 q 414 -7 522 -7 m 472 1192 l 483 1243 l 861 1243 l 850 1192 l 472 1192 z "},"Ų":{"ha":1006,"x_min":108,"x_max":1014,"o":"m 325 -237 q 272 -208 289 -229 q 254 -160 254 -187 q 283 -85 254 -121 q 378 -6 311 -50 q 251 27 303 0 q 168 97 200 54 q 122 197 136 140 q 108 318 108 254 q 128 490 108 400 l 233 986 l 304 986 l 199 490 q 185 408 190 449 q 179 329 179 368 q 192 223 179 272 q 233 137 204 174 q 310 79 263 100 q 426 58 357 58 q 591 96 521 58 q 710 194 661 133 q 791 333 760 256 q 839 490 822 411 l 943 986 l 1014 986 l 910 490 q 851 305 889 393 q 754 149 813 217 q 616 40 696 81 q 433 -6 536 -1 q 331 -82 360 -51 q 303 -144 303 -112 q 357 -196 303 -187 l 325 -237 l 325 -237 z "},"Ů":{"ha":1006,"x_min":108,"x_max":1014,"o":"m 571 1171 q 604 1244 571 1215 q 682 1274 638 1274 q 735 1254 715 1274 q 754 1204 754 1235 q 722 1130 754 1160 q 644 1100 689 1100 q 590 1119 610 1100 q 571 1171 571 1139 m 674 1242 q 628 1224 649 1242 q 608 1176 608 1206 q 620 1144 608 1157 q 651 1132 632 1132 q 696 1151 674 1132 q 718 1197 718 1169 q 706 1230 718 1218 q 674 1242 693 1242 m 414 -7 q 269 19 328 -7 q 176 88 211 44 q 124 191 140 132 q 108 318 108 250 q 128 490 108 400 l 233 986 l 304 986 l 199 490 q 185 408 190 449 q 179 329 179 368 q 192 223 179 272 q 233 137 204 174 q 310 79 263 100 q 426 58 357 58 q 591 96 521 58 q 710 194 661 133 q 791 333 760 256 q 839 490 822 411 l 943 986 l 1014 986 l 910 490 q 849 301 889 390 q 749 142 810 211 q 605 33 688 74 q 414 -7 522 -7 z "},"Ũ":{"ha":1006,"x_min":108,"x_max":1014,"o":"m 414 -7 q 269 19 328 -7 q 176 88 211 44 q 124 191 140 132 q 108 318 108 250 q 128 490 108 400 l 233 986 l 304 986 l 199 490 q 185 408 190 449 q 179 329 179 368 q 192 223 179 272 q 233 137 204 174 q 310 79 263 100 q 426 58 357 58 q 591 96 521 58 q 710 194 661 133 q 791 333 760 256 q 839 490 822 411 l 943 986 l 1014 986 l 910 490 q 849 301 889 390 q 749 142 810 211 q 605 33 688 74 q 414 -7 522 -7 m 733 1158 q 683 1167 704 1158 q 646 1185 663 1175 q 614 1205 629 1196 q 578 1214 599 1214 q 540 1204 556 1214 q 516 1183 525 1194 q 502 1160 507 1171 q 497 1147 497 1150 l 450 1147 q 460 1172 451 1153 q 485 1210 468 1190 q 526 1247 501 1231 q 588 1263 551 1263 q 633 1253 614 1263 q 668 1234 651 1244 q 701 1215 685 1224 q 743 1207 718 1207 q 786 1217 769 1207 q 813 1238 803 1226 q 828 1260 824 1250 q 833 1274 833 1271 l 879 1274 q 869 1248 878 1267 q 844 1210 861 1229 q 799 1174 826 1190 q 733 1158 772 1158 z "},"V":{"ha":899,"x_min":136,"x_max":993,"o":"m 136 986 l 211 986 l 375 89 l 918 986 l 993 986 l 388 0 l 322 0 l 136 986 z "},"W":{"ha":1379,"x_min":135,"x_max":1475,"o":"m 135 986 l 213 986 l 376 83 l 672 564 l 594 979 l 664 979 l 726 621 l 942 979 l 1011 979 l 758 564 l 850 83 l 1397 986 l 1475 986 l 865 0 l 801 0 l 704 507 l 389 0 l 325 0 l 135 986 z "},"Ẃ":{"ha":1379,"x_min":135,"x_max":1475,"o":"m 817 1133 l 774 1156 l 879 1274 l 958 1274 l 817 1133 m 135 986 l 213 986 l 376 83 l 672 564 l 594 979 l 664 979 l 726 621 l 942 979 l 1011 979 l 758 564 l 850 83 l 1397 986 l 1475 986 l 865 0 l 801 0 l 704 507 l 389 0 l 325 0 l 135 986 z "},"Ŵ":{"ha":1379,"x_min":135,"x_max":1475,"o":"m 688 1161 l 839 1274 l 890 1274 l 994 1161 l 949 1138 l 854 1225 l 724 1138 l 688 1161 m 135 986 l 213 986 l 376 83 l 672 564 l 594 979 l 664 979 l 726 621 l 942 979 l 1011 979 l 758 564 l 850 83 l 1397 986 l 1475 986 l 865 0 l 801 0 l 704 507 l 389 0 l 325 0 l 135 986 z "},"Ẅ":{"ha":1379,"x_min":135,"x_max":1475,"o":"m 707 1150 l 732 1272 l 793 1272 l 767 1150 l 707 1150 m 889 1150 l 915 1272 l 975 1272 l 950 1150 l 889 1150 m 135 986 l 213 986 l 376 83 l 672 564 l 594 979 l 664 979 l 726 621 l 942 979 l 1011 979 l 758 564 l 850 83 l 1397 986 l 1475 986 l 865 0 l 801 0 l 704 507 l 389 0 l 325 0 l 135 986 z "},"Ẁ":{"ha":1379,"x_min":135,"x_max":1475,"o":"m 135 986 l 213 986 l 376 83 l 672 564 l 594 979 l 664 979 l 726 621 l 942 979 l 1011 979 l 758 564 l 850 83 l 1397 986 l 1475 986 l 865 0 l 801 0 l 704 507 l 389 0 l 325 0 l 135 986 m 754 1275 l 831 1275 l 888 1157 l 836 1135 l 754 1275 z "},"X":{"ha":831,"x_min":-68,"x_max":942,"o":"m 390 486 l 131 986 l 211 986 l 442 538 l 861 986 l 942 986 l 469 486 l 721 0 l 640 0 l 419 435 l 13 0 l -68 0 l 390 486 z "},"Y":{"ha":836,"x_min":129,"x_max":936,"o":"m 367 375 l 129 986 l 208 986 l 417 440 l 858 986 l 936 986 l 438 372 l 357 0 l 288 0 l 367 375 z "},"Ý":{"ha":836,"x_min":129,"x_max":936,"o":"m 367 375 l 129 986 l 208 986 l 417 440 l 858 986 l 936 986 l 438 372 l 357 0 l 288 0 l 367 375 m 538 1133 l 494 1156 l 600 1274 l 679 1274 l 538 1133 z "},"Ŷ":{"ha":836,"x_min":129,"x_max":936,"o":"m 367 375 l 129 986 l 208 986 l 417 440 l 858 986 l 936 986 l 438 372 l 357 0 l 288 0 l 367 375 m 411 1161 l 563 1274 l 614 1274 l 718 1161 l 672 1138 l 578 1225 l 447 1138 l 411 1161 z "},"Ÿ":{"ha":836,"x_min":129,"x_max":936,"o":"m 367 375 l 129 986 l 208 986 l 417 440 l 858 986 l 936 986 l 438 372 l 357 0 l 288 0 l 367 375 m 442 1150 l 467 1272 l 528 1272 l 501 1150 l 442 1150 m 624 1150 l 650 1272 l 710 1272 l 685 1150 l 624 1150 z "},"Ỳ":{"ha":836,"x_min":129,"x_max":936,"o":"m 367 375 l 129 986 l 208 986 l 417 440 l 858 986 l 936 986 l 438 372 l 357 0 l 288 0 l 367 375 m 478 1275 l 554 1275 l 611 1157 l 560 1135 l 478 1275 z "},"Ỹ":{"ha":836,"x_min":129,"x_max":936,"o":"m 367 375 l 129 986 l 208 986 l 417 440 l 858 986 l 936 986 l 438 372 l 357 0 l 288 0 l 367 375 m 629 1158 q 579 1167 600 1158 q 542 1185 558 1175 q 510 1205 525 1196 q 474 1214 494 1214 q 436 1204 451 1214 q 412 1183 421 1194 q 398 1160 403 1171 q 393 1147 393 1150 l 346 1147 q 356 1172 347 1153 q 381 1210 364 1190 q 422 1247 397 1231 q 483 1263 447 1263 q 528 1253 510 1263 q 564 1234 547 1244 q 597 1215 581 1224 q 639 1207 614 1207 q 682 1217 665 1207 q 709 1238 699 1226 q 724 1260 719 1250 q 729 1274 729 1271 l 775 1274 q 765 1248 774 1267 q 740 1210 757 1229 q 695 1174 722 1190 q 629 1158 668 1158 z "},"Z":{"ha":824,"x_min":-51,"x_max":904,"o":"m -39 58 l 806 922 l 153 922 l 167 986 l 904 986 l 890 928 l 50 64 l 704 64 l 692 0 l -51 0 l -39 58 z "},"Ź":{"ha":824,"x_min":-51,"x_max":904,"o":"m 533 1133 l 490 1156 l 596 1274 l 675 1274 l 533 1133 m -39 58 l 806 922 l 153 922 l 167 986 l 904 986 l 890 928 l 50 64 l 704 64 l 692 0 l -51 0 l -39 58 z "},"Ž":{"ha":824,"x_min":-51,"x_max":904,"o":"m 425 1250 l 471 1274 l 565 1186 l 696 1274 l 732 1250 l 581 1138 l 529 1138 l 425 1250 m -39 58 l 806 922 l 153 922 l 167 986 l 904 986 l 890 928 l 50 64 l 704 64 l 692 0 l -51 0 l -39 58 z "},"Ż":{"ha":824,"x_min":-51,"x_max":904,"o":"m -39 58 l 806 922 l 153 922 l 167 986 l 904 986 l 890 928 l 50 64 l 704 64 l 692 0 l -51 0 l -39 58 m 529 1149 l 556 1274 l 619 1274 l 593 1149 l 529 1149 z "},"a":{"ha":821,"x_min":38,"x_max":776,"o":"m 294 -14 q 187 11 235 -14 q 106 78 139 36 q 55 174 72 119 q 38 290 38 229 q 71 455 38 375 q 160 597 104 535 q 289 697 217 660 q 440 735 361 735 q 523 721 486 735 q 589 684 560 707 q 639 631 618 661 q 672 565 660 600 l 706 722 l 776 722 l 643 100 q 640 83 640 89 q 664 63 640 63 l 650 0 q 638 -2 643 -1 q 629 -3 633 -3 q 587 11 601 -3 q 572 47 572 25 q 573 58 572 51 q 576 74 574 64 q 581 101 578 85 q 589 144 583 118 q 453 29 532 72 q 294 -14 374 -14 m 319 49 q 401 65 357 49 q 487 107 446 81 q 560 169 528 133 q 604 243 592 204 l 654 481 q 630 554 649 519 q 583 615 611 589 q 518 657 554 642 q 440 672 482 672 q 314 639 374 672 q 209 552 254 606 q 137 432 164 499 q 110 299 110 365 q 125 203 110 249 q 168 123 140 157 q 235 69 196 89 q 319 49 274 49 z "},"á":{"ha":821,"x_min":38,"x_max":776,"o":"m 294 -14 q 187 11 235 -14 q 106 78 139 36 q 55 174 72 119 q 38 290 38 229 q 71 455 38 375 q 160 597 104 535 q 289 697 217 660 q 440 735 361 735 q 523 721 486 735 q 589 684 560 707 q 639 631 618 661 q 672 565 660 600 l 706 722 l 776 722 l 643 100 q 640 83 640 89 q 664 63 640 63 l 650 0 q 638 -2 643 -1 q 629 -3 633 -3 q 587 11 601 -3 q 572 47 572 25 q 573 58 572 51 q 576 74 574 64 q 581 101 578 85 q 589 144 583 118 q 453 29 532 72 q 294 -14 374 -14 m 319 49 q 401 65 357 49 q 487 107 446 81 q 560 169 528 133 q 604 243 592 204 l 654 481 q 630 554 649 519 q 583 615 611 589 q 518 657 554 642 q 440 672 482 672 q 314 639 374 672 q 209 552 254 606 q 137 432 164 499 q 110 299 110 365 q 125 203 110 249 q 168 123 140 157 q 235 69 196 89 q 319 49 274 49 m 481 874 l 438 896 l 543 1014 l 622 1014 l 481 874 z "},"ă":{"ha":821,"x_min":38,"x_max":776,"o":"m 294 -14 q 187 11 235 -14 q 106 78 139 36 q 55 174 72 119 q 38 290 38 229 q 71 455 38 375 q 160 597 104 535 q 289 697 217 660 q 440 735 361 735 q 523 721 486 735 q 589 684 560 707 q 639 631 618 661 q 672 565 660 600 l 706 722 l 776 722 l 643 100 q 640 83 640 89 q 664 63 640 63 l 650 0 q 638 -2 643 -1 q 629 -3 633 -3 q 587 11 601 -3 q 572 47 572 25 q 573 58 572 51 q 576 74 574 64 q 581 101 578 85 q 589 144 583 118 q 453 29 532 72 q 294 -14 374 -14 m 319 49 q 401 65 357 49 q 487 107 446 81 q 560 169 528 133 q 604 243 592 204 l 654 481 q 630 554 649 519 q 583 615 611 589 q 518 657 554 642 q 440 672 482 672 q 314 639 374 672 q 209 552 254 606 q 137 432 164 499 q 110 299 110 365 q 125 203 110 249 q 168 123 140 157 q 235 69 196 89 q 319 49 274 49 m 492 925 q 547 951 519 925 q 586 1014 575 976 l 631 1014 q 610 964 625 988 q 576 923 596 940 q 532 896 556 906 q 485 886 508 886 q 414 915 440 886 q 388 986 388 943 q 392 1014 388 999 l 438 1014 q 436 994 436 1007 q 452 946 436 967 q 492 925 468 925 z "},"â":{"ha":821,"x_min":38,"x_max":776,"o":"m 294 -14 q 187 11 235 -14 q 106 78 139 36 q 55 174 72 119 q 38 290 38 229 q 71 455 38 375 q 160 597 104 535 q 289 697 217 660 q 440 735 361 735 q 523 721 486 735 q 589 684 560 707 q 639 631 618 661 q 672 565 660 600 l 706 722 l 776 722 l 643 100 q 640 83 640 89 q 664 63 640 63 l 650 0 q 638 -2 643 -1 q 629 -3 633 -3 q 587 11 601 -3 q 572 47 572 25 q 573 58 572 51 q 576 74 574 64 q 581 101 578 85 q 589 144 583 118 q 453 29 532 72 q 294 -14 374 -14 m 319 49 q 401 65 357 49 q 487 107 446 81 q 560 169 528 133 q 604 243 592 204 l 654 481 q 630 554 649 519 q 583 615 611 589 q 518 657 554 642 q 440 672 482 672 q 314 639 374 672 q 209 552 254 606 q 137 432 164 499 q 110 299 110 365 q 125 203 110 249 q 168 123 140 157 q 235 69 196 89 q 319 49 274 49 m 346 901 l 497 1014 l 549 1014 l 653 901 l 607 878 l 513 965 l 382 878 l 346 901 z "},"ä":{"ha":821,"x_min":38,"x_max":776,"o":"m 294 -14 q 187 11 235 -14 q 106 78 139 36 q 55 174 72 119 q 38 290 38 229 q 71 455 38 375 q 160 597 104 535 q 289 697 217 660 q 440 735 361 735 q 523 721 486 735 q 589 684 560 707 q 639 631 618 661 q 672 565 660 600 l 706 722 l 776 722 l 643 100 q 640 83 640 89 q 664 63 640 63 l 650 0 q 638 -2 643 -1 q 629 -3 633 -3 q 587 11 601 -3 q 572 47 572 25 q 573 58 572 51 q 576 74 574 64 q 581 101 578 85 q 589 144 583 118 q 453 29 532 72 q 294 -14 374 -14 m 319 49 q 401 65 357 49 q 487 107 446 81 q 560 169 528 133 q 604 243 592 204 l 654 481 q 630 554 649 519 q 583 615 611 589 q 518 657 554 642 q 440 672 482 672 q 314 639 374 672 q 209 552 254 606 q 137 432 164 499 q 110 299 110 365 q 125 203 110 249 q 168 123 140 157 q 235 69 196 89 q 319 49 274 49 m 372 889 l 397 1011 l 458 1011 l 432 889 l 372 889 m 554 889 l 581 1011 l 640 1011 l 615 889 l 554 889 z "},"æ":{"ha":1229,"x_min":-3,"x_max":1188,"o":"m 188 -14 q 106 1 142 -14 q 46 40 69 15 q 10 99 22 65 q -3 169 -3 132 q 24 272 -3 225 q 95 353 50 319 q 202 405 140 386 q 335 424 264 424 q 426 416 381 424 q 508 396 471 408 q 533 463 519 432 q 558 525 547 493 q 517 637 558 594 q 397 679 475 679 q 284 657 344 679 q 157 593 224 635 l 140 640 q 285 711 218 688 q 415 735 353 735 q 550 695 497 735 q 615 581 603 656 q 752 692 674 650 q 917 735 831 735 q 1028 713 978 735 q 1113 651 1078 690 q 1168 559 1149 613 q 1188 444 1188 506 q 1181 379 1188 408 q 1168 333 1175 350 l 563 333 q 560 308 561 321 q 560 283 560 296 q 576 186 560 231 q 620 110 592 142 q 688 60 649 78 q 776 42 728 42 q 849 52 813 42 q 918 81 885 63 q 979 124 951 99 q 1026 181 1007 150 l 1085 164 q 1026 92 1061 125 q 948 36 990 60 q 858 -1 906 13 q 763 -14 810 -14 q 609 31 672 -14 q 515 149 546 75 q 442 74 485 104 q 355 24 400 43 q 266 -5 310 4 q 188 -14 222 -14 m 214 42 q 298 54 253 42 q 384 88 343 67 q 456 139 425 110 q 499 201 488 168 q 490 269 490 232 q 499 347 490 310 q 418 368 461 361 q 335 375 375 375 q 227 361 276 375 q 142 322 178 347 q 85 262 106 297 q 65 183 65 226 q 74 130 65 156 q 101 85 83 104 q 148 53 119 65 q 214 42 176 42 m 1113 385 q 1117 417 1115 400 q 1118 449 1118 433 q 1104 538 1118 496 q 1063 610 1090 579 q 996 660 1036 642 q 904 678 956 678 q 797 656 849 678 q 700 594 744 633 q 622 502 656 556 q 572 385 589 449 l 1113 385 z "},"ǽ":{"ha":1229,"x_min":-3,"x_max":1188,"o":"m 679 874 l 636 896 l 742 1014 l 821 1014 l 679 874 m 188 -14 q 106 1 142 -14 q 46 40 69 15 q 10 99 22 65 q -3 169 -3 132 q 24 272 -3 225 q 95 353 50 319 q 202 405 140 386 q 335 424 264 424 q 426 416 381 424 q 508 396 471 408 q 533 463 519 432 q 558 525 547 493 q 517 637 558 594 q 397 679 475 679 q 284 657 344 679 q 157 593 224 635 l 140 640 q 285 711 218 688 q 415 735 353 735 q 550 695 497 735 q 615 581 603 656 q 752 692 674 650 q 917 735 831 735 q 1028 713 978 735 q 1113 651 1078 690 q 1168 559 1149 613 q 1188 444 1188 506 q 1181 379 1188 408 q 1168 333 1175 350 l 563 333 q 560 308 561 321 q 560 283 560 296 q 576 186 560 231 q 620 110 592 142 q 688 60 649 78 q 776 42 728 42 q 849 52 813 42 q 918 81 885 63 q 979 124 951 99 q 1026 181 1007 150 l 1085 164 q 1026 92 1061 125 q 948 36 990 60 q 858 -1 906 13 q 763 -14 810 -14 q 609 31 672 -14 q 515 149 546 75 q 442 74 485 104 q 355 24 400 43 q 266 -5 310 4 q 188 -14 222 -14 m 214 42 q 298 54 253 42 q 384 88 343 67 q 456 139 425 110 q 499 201 488 168 q 490 269 490 232 q 499 347 490 310 q 418 368 461 361 q 335 375 375 375 q 227 361 276 375 q 142 322 178 347 q 85 262 106 297 q 65 183 65 226 q 74 130 65 156 q 101 85 83 104 q 148 53 119 65 q 214 42 176 42 m 1113 385 q 1117 417 1115 400 q 1118 449 1118 433 q 1104 538 1118 496 q 1063 610 1090 579 q 996 660 1036 642 q 904 678 956 678 q 797 656 849 678 q 700 594 744 633 q 622 502 656 556 q 572 385 589 449 l 1113 385 z "},"à":{"ha":821,"x_min":38,"x_max":776,"o":"m 294 -14 q 187 11 235 -14 q 106 78 139 36 q 55 174 72 119 q 38 290 38 229 q 71 455 38 375 q 160 597 104 535 q 289 697 217 660 q 440 735 361 735 q 523 721 486 735 q 589 684 560 707 q 639 631 618 661 q 672 565 660 600 l 706 722 l 776 722 l 643 100 q 640 83 640 89 q 664 63 640 63 l 650 0 q 638 -2 643 -1 q 629 -3 633 -3 q 587 11 601 -3 q 572 47 572 25 q 573 58 572 51 q 576 74 574 64 q 581 101 578 85 q 589 144 583 118 q 453 29 532 72 q 294 -14 374 -14 m 319 49 q 401 65 357 49 q 487 107 446 81 q 560 169 528 133 q 604 243 592 204 l 654 481 q 630 554 649 519 q 583 615 611 589 q 518 657 554 642 q 440 672 482 672 q 314 639 374 672 q 209 552 254 606 q 137 432 164 499 q 110 299 110 365 q 125 203 110 249 q 168 123 140 157 q 235 69 196 89 q 319 49 274 49 m 415 1014 l 492 1014 l 549 896 l 497 874 l 415 1014 z "},"ā":{"ha":821,"x_min":38,"x_max":776,"o":"m 294 -14 q 187 11 235 -14 q 106 78 139 36 q 55 174 72 119 q 38 290 38 229 q 71 455 38 375 q 160 597 104 535 q 289 697 217 660 q 440 735 361 735 q 523 721 486 735 q 589 684 560 707 q 639 631 618 661 q 672 565 660 600 l 706 722 l 776 722 l 643 100 q 640 83 640 89 q 664 63 640 63 l 650 0 q 638 -2 643 -1 q 629 -3 633 -3 q 587 11 601 -3 q 572 47 572 25 q 573 58 572 51 q 576 74 574 64 q 581 101 578 85 q 589 144 583 118 q 453 29 532 72 q 294 -14 374 -14 m 319 49 q 401 65 357 49 q 487 107 446 81 q 560 169 528 133 q 604 243 592 204 l 654 481 q 630 554 649 519 q 583 615 611 589 q 518 657 554 642 q 440 672 482 672 q 314 639 374 672 q 209 552 254 606 q 137 432 164 499 q 110 299 110 365 q 125 203 110 249 q 168 123 140 157 q 235 69 196 89 q 319 49 274 49 m 321 932 l 332 983 l 710 983 l 699 932 l 321 932 z "},"&":{"ha":931,"x_min":26,"x_max":910,"o":"m 575 153 q 424 30 506 74 q 258 -14 343 -14 q 165 3 207 -14 q 92 50 122 19 q 44 123 61 81 q 26 215 26 165 q 97 403 26 322 q 296 561 168 485 q 235 672 253 628 q 217 757 217 717 q 240 849 217 806 q 301 926 263 893 q 391 979 340 960 q 499 999 442 999 q 631 960 574 999 q 719 853 689 922 l 671 810 q 599 907 647 871 q 488 943 550 943 q 410 928 447 943 q 344 890 372 914 q 299 833 315 865 q 282 767 282 801 q 301 689 282 733 q 368 576 319 644 l 588 263 q 660 408 629 329 q 708 578 692 488 l 910 578 l 897 519 l 761 519 q 703 353 739 431 q 622 211 668 276 l 771 0 l 681 0 l 575 153 m 272 46 q 414 87 344 46 q 543 200 483 128 l 331 510 l 326 514 q 155 377 214 446 q 96 224 96 308 q 145 94 96 142 q 272 46 194 46 z "},"ą":{"ha":821,"x_min":38,"x_max":776,"o":"m 535 -235 q 481 -206 499 -226 q 464 -157 464 -185 q 494 -80 464 -117 q 599 3 525 -43 q 572 47 572 15 q 573 58 572 51 q 576 74 574 64 q 581 101 578 85 q 589 144 583 118 q 453 29 532 72 q 294 -14 374 -14 q 187 11 235 -14 q 106 78 139 36 q 55 174 72 119 q 38 290 38 229 q 71 455 38 375 q 160 597 104 535 q 289 697 217 660 q 440 735 361 735 q 523 721 486 735 q 589 684 560 707 q 639 631 618 661 q 672 565 660 600 l 706 722 l 776 722 l 643 100 q 640 83 640 89 q 664 63 640 63 l 650 0 q 542 -78 572 -47 q 513 -142 513 -110 q 567 -193 513 -185 l 535 -235 m 319 49 q 401 65 357 49 q 487 107 446 81 q 560 169 528 133 q 604 243 592 204 l 654 481 q 630 554 649 519 q 583 615 611 589 q 518 657 554 642 q 440 672 482 672 q 314 639 374 672 q 209 552 254 606 q 137 432 164 499 q 110 299 110 365 q 125 203 110 249 q 168 123 140 157 q 235 69 196 89 q 319 49 274 49 z "},"ʼ":{"ha":746,"x_min":403,"x_max":588,"o":"m 403 896 l 469 971 l 479 1014 l 588 1014 l 444 874 l 403 896 z "},"å":{"ha":821,"x_min":38,"x_max":776,"o":"m 294 -14 q 187 11 235 -14 q 106 78 139 36 q 55 174 72 119 q 38 290 38 229 q 71 455 38 375 q 160 597 104 535 q 289 697 217 660 q 440 735 361 735 q 523 721 486 735 q 589 684 560 707 q 639 631 618 661 q 672 565 660 600 l 706 722 l 776 722 l 643 100 q 640 83 640 89 q 664 63 640 63 l 650 0 q 638 -2 643 -1 q 629 -3 633 -3 q 587 11 601 -3 q 572 47 572 25 q 573 58 572 51 q 576 74 574 64 q 581 101 578 85 q 589 144 583 118 q 453 29 532 72 q 294 -14 374 -14 m 319 49 q 401 65 357 49 q 487 107 446 81 q 560 169 528 133 q 604 243 592 204 l 654 481 q 630 554 649 519 q 583 615 611 589 q 518 657 554 642 q 440 672 482 672 q 314 639 374 672 q 209 552 254 606 q 137 432 164 499 q 110 299 110 365 q 125 203 110 249 q 168 123 140 157 q 235 69 196 89 q 319 49 274 49 m 407 911 q 440 985 407 956 q 518 1014 474 1014 q 571 994 551 1014 q 590 944 590 975 q 558 870 590 900 q 481 840 525 840 q 426 860 446 840 q 407 911 407 879 m 510 982 q 465 964 485 982 q 444 917 444 946 q 456 885 444 897 q 488 872 468 872 q 532 891 510 872 q 554 938 554 910 q 542 970 554 958 q 510 982 529 982 z "},"ǻ":{"ha":821,"x_min":38,"x_max":776,"o":"m 294 -14 q 187 11 235 -14 q 106 78 139 36 q 55 174 72 119 q 38 290 38 229 q 71 455 38 375 q 160 597 104 535 q 289 697 217 660 q 440 735 361 735 q 523 721 486 735 q 589 684 560 707 q 639 631 618 661 q 672 565 660 600 l 706 722 l 776 722 l 643 100 q 640 83 640 89 q 664 63 640 63 l 650 0 q 638 -2 643 -1 q 629 -3 633 -3 q 587 11 601 -3 q 572 47 572 25 q 573 58 572 51 q 576 74 574 64 q 581 101 578 85 q 589 144 583 118 q 453 29 532 72 q 294 -14 374 -14 m 319 49 q 401 65 357 49 q 487 107 446 81 q 560 169 528 133 q 604 243 592 204 l 654 481 q 630 554 649 519 q 583 615 611 589 q 518 657 554 642 q 440 672 482 672 q 314 639 374 672 q 209 552 254 606 q 137 432 164 499 q 110 299 110 365 q 125 203 110 249 q 168 123 140 157 q 235 69 196 89 q 319 49 274 49 m 514 1074 l 471 1096 l 576 1214 l 656 1214 l 514 1074 m 407 911 q 440 985 407 956 q 518 1014 474 1014 q 571 994 551 1014 q 590 944 590 975 q 558 870 590 900 q 481 840 525 840 q 426 860 446 840 q 407 911 407 879 m 510 982 q 465 964 485 982 q 444 917 444 946 q 456 885 444 897 q 488 872 468 872 q 532 891 510 872 q 554 938 554 910 q 542 970 554 958 q 510 982 529 982 z "},"^":{"ha":733,"x_min":74,"x_max":682,"o":"m 74 421 l 349 986 l 408 986 l 682 421 l 618 421 l 379 915 l 135 421 l 74 421 z "},"~":{"ha":657,"x_min":74,"x_max":576,"o":"m 74 340 q 85 366 75 344 q 113 411 94 388 q 158 453 131 435 q 222 472 186 472 q 278 459 253 472 q 328 431 304 446 q 376 402 351 415 q 428 389 400 389 q 472 399 453 389 q 504 423 492 410 q 523 448 517 436 q 529 463 529 460 l 576 463 q 567 441 576 460 q 538 399 557 422 q 490 358 519 376 q 419 340 460 340 q 359 353 386 340 q 308 381 332 365 q 261 410 283 397 q 215 422 239 422 q 174 410 192 422 q 145 382 157 397 q 127 354 133 367 q 121 340 121 342 l 74 340 l 74 340 z "},"*":{"ha":425,"x_min":183,"x_max":429,"o":"m 192 768 l 265 851 l 183 882 l 204 922 l 288 889 l 306 989 l 353 989 l 329 889 l 428 922 l 429 882 l 335 851 l 374 768 l 332 743 l 296 828 l 221 743 l 192 768 z "},"@":{"ha":1110,"x_min":35,"x_max":1022,"o":"m 768 21 q 851 58 813 21 q 919 154 890 96 q 964 283 947 213 q 981 418 981 353 q 956 567 981 497 q 884 687 931 636 q 772 767 838 738 q 624 797 706 797 q 422 751 521 797 q 247 626 324 704 q 123 443 169 547 q 76 224 76 339 q 101 70 76 140 q 173 -52 126 0 q 284 -133 219 -104 q 428 -162 349 -162 q 533 -149 482 -162 q 638 -110 585 -136 l 646 -147 q 528 -189 588 -175 q 414 -203 468 -203 q 261 -171 331 -203 q 142 -83 192 -139 q 63 51 92 -26 q 35 219 35 128 q 59 383 35 304 q 125 531 83 463 q 224 656 167 600 q 348 753 282 713 q 487 815 414 793 q 632 838 560 838 q 792 806 719 838 q 915 719 864 774 q 994 589 967 664 q 1022 428 1022 514 q 1004 281 1022 360 q 951 134 986 201 q 866 22 917 67 q 751 -22 815 -22 q 692 -2 713 -22 q 671 65 671 18 q 672 87 671 75 q 675 110 672 99 q 567 37 628 65 q 446 8 506 8 q 360 27 399 8 q 295 79 322 46 q 253 158 268 113 q 239 256 239 203 q 266 397 239 329 q 339 516 293 464 q 445 599 385 568 q 571 629 506 629 q 687 595 640 629 q 756 503 733 561 l 781 625 l 831 625 l 726 138 q 719 99 721 114 q 718 76 718 85 q 768 21 718 21 m 465 56 q 534 67 499 56 q 601 100 569 79 q 656 149 632 121 q 693 208 681 176 l 739 443 q 674 547 719 513 q 568 582 628 582 q 466 556 515 582 q 377 488 417 531 q 314 388 338 444 q 290 267 290 331 q 303 182 290 221 q 340 115 317 143 q 395 71 363 86 q 465 56 428 56 z "},"ã":{"ha":821,"x_min":38,"x_max":776,"o":"m 294 -14 q 187 11 235 -14 q 106 78 139 36 q 55 174 72 119 q 38 290 38 229 q 71 455 38 375 q 160 597 104 535 q 289 697 217 660 q 440 735 361 735 q 523 721 486 735 q 589 684 560 707 q 639 631 618 661 q 672 565 660 600 l 706 722 l 776 722 l 643 100 q 640 83 640 89 q 664 63 640 63 l 650 0 q 638 -2 643 -1 q 629 -3 633 -3 q 587 11 601 -3 q 572 47 572 25 q 573 58 572 51 q 576 74 574 64 q 581 101 578 85 q 589 144 583 118 q 453 29 532 72 q 294 -14 374 -14 m 319 49 q 401 65 357 49 q 487 107 446 81 q 560 169 528 133 q 604 243 592 204 l 654 481 q 630 554 649 519 q 583 615 611 589 q 518 657 554 642 q 440 672 482 672 q 314 639 374 672 q 209 552 254 606 q 137 432 164 499 q 110 299 110 365 q 125 203 110 249 q 168 123 140 157 q 235 69 196 89 q 319 49 274 49 m 569 899 q 519 907 540 899 q 482 926 499 915 q 450 945 465 936 q 414 954 435 954 q 376 944 392 954 q 352 923 361 935 q 338 901 343 911 q 333 888 333 890 l 286 888 q 296 912 288 893 q 321 951 304 931 q 363 987 338 971 q 424 1003 388 1003 q 469 994 450 1003 q 504 974 488 985 q 538 956 521 964 q 579 947 554 947 q 622 957 606 947 q 649 978 639 967 q 665 1001 660 990 q 669 1014 669 1011 l 715 1014 q 706 988 714 1007 q 680 950 697 969 q 635 915 663 931 q 569 899 608 899 z "},"b":{"ha":814,"x_min":17,"x_max":754,"o":"m 340 -14 q 193 32 251 -14 q 110 144 135 78 l 79 0 l 17 0 l 232 1014 l 301 1014 l 206 565 q 347 688 271 640 q 507 735 422 735 q 615 709 569 735 q 692 642 661 683 q 739 547 724 600 q 754 438 754 493 q 719 267 754 349 q 625 122 683 185 q 492 23 567 60 q 340 -14 418 -14 m 340 49 q 467 81 406 49 q 576 166 529 113 q 652 288 624 219 q 681 428 681 356 q 667 519 681 475 q 628 598 654 564 q 564 652 601 632 q 476 672 526 672 q 395 657 435 672 q 319 617 356 642 q 251 558 283 592 q 189 488 218 525 l 133 221 q 156 151 138 183 q 201 97 174 119 q 265 61 229 74 q 340 49 300 49 z "},"\\":{"ha":714,"x_min":147,"x_max":592,"o":"m 228 986 l 592 0 l 513 0 l 147 986 l 228 986 z "},"|":{"ha":382,"x_min":167,"x_max":229,"o":"m 167 -181 l 167 1076 l 229 1076 l 229 -181 l 167 -181 z "},"{":{"ha":331,"x_min":36,"x_max":393,"o":"m 308 968 l 226 583 q 212 544 224 569 q 175 500 200 519 q 190 474 186 489 q 193 443 193 458 q 192 428 193 436 q 192 417 192 421 l 106 17 l 179 17 l 165 -43 l 58 -43 q 43 -37 50 -43 q 36 -17 36 -32 q 38 -1 36 -7 l 124 401 q 125 413 125 407 q 125 424 125 418 q 117 457 125 443 q 92 474 110 471 l 103 529 q 128 538 117 529 q 147 557 139 546 q 159 580 154 568 q 165 599 164 592 l 247 986 q 266 1021 253 1014 q 286 1028 279 1028 l 393 1028 l 381 968 l 308 968 z "},"}":{"ha":331,"x_min":-31,"x_max":326,"o":"m 185 968 l 197 1028 l 303 1028 q 317 1023 308 1028 q 326 999 326 1018 q 325 986 326 990 l 242 599 q 240 590 240 596 q 240 578 240 585 q 248 545 240 561 q 275 529 256 529 l 263 474 q 222 449 238 471 q 200 401 206 426 l 115 -1 q 98 -34 110 -25 q 75 -43 86 -43 l -31 -43 l -18 17 l 54 17 l 139 417 q 153 455 142 429 q 189 500 165 481 q 176 527 179 513 q 172 556 172 542 q 175 583 172 572 l 257 968 l 185 968 z "},"[":{"ha":331,"x_min":24,"x_max":390,"o":"m 24 -56 l 254 1028 l 390 1028 l 378 968 l 307 968 l 101 4 l 174 4 l 161 -56 l 24 -56 z "},"]":{"ha":329,"x_min":-32,"x_max":335,"o":"m -32 -56 l -19 4 l 51 4 l 257 968 l 186 968 l 199 1028 l 335 1028 l 106 -56 l -32 -56 z "},"¦":{"ha":374,"x_min":163,"x_max":225,"o":"m 225 389 l 225 -181 l 163 -181 l 163 389 l 225 389 m 225 1076 l 225 507 l 163 507 l 163 1076 l 225 1076 z "},"•":{"ha":468,"x_min":129,"x_max":361,"o":"m 361 500 q 349 447 361 472 q 317 401 338 421 q 272 371 297 382 q 219 360 246 360 q 154 388 179 360 q 129 458 129 417 q 142 511 129 486 q 174 556 154 536 q 219 586 194 575 q 271 597 244 597 q 337 569 313 597 q 361 500 361 540 z "},"c":{"ha":725,"x_min":38,"x_max":703,"o":"m 308 -14 q 196 10 246 -14 q 110 75 146 33 q 56 172 75 117 q 38 292 38 228 q 72 460 38 381 q 166 601 107 540 q 302 699 225 663 q 465 735 379 735 q 622 690 560 735 q 703 567 683 646 l 629 544 q 564 638 613 604 q 449 672 515 672 q 322 642 383 672 q 214 562 261 613 q 138 444 167 511 q 108 301 108 376 q 124 202 108 249 q 166 122 139 156 q 232 68 193 88 q 317 49 271 49 q 390 60 353 49 q 461 89 428 71 q 520 131 494 107 q 560 182 546 156 l 624 163 q 569 92 603 125 q 493 36 535 60 q 403 -1 451 13 q 308 -14 356 -14 z "},"ć":{"ha":725,"x_min":38,"x_max":703,"o":"m 464 874 l 421 896 l 526 1014 l 606 1014 l 464 874 m 308 -14 q 196 10 246 -14 q 110 75 146 33 q 56 172 75 117 q 38 292 38 228 q 72 460 38 381 q 166 601 107 540 q 302 699 225 663 q 465 735 379 735 q 622 690 560 735 q 703 567 683 646 l 629 544 q 564 638 613 604 q 449 672 515 672 q 322 642 383 672 q 214 562 261 613 q 138 444 167 511 q 108 301 108 376 q 124 202 108 249 q 166 122 139 156 q 232 68 193 88 q 317 49 271 49 q 390 60 353 49 q 461 89 428 71 q 520 131 494 107 q 560 182 546 156 l 624 163 q 569 92 603 125 q 493 36 535 60 q 403 -1 451 13 q 308 -14 356 -14 z "},"č":{"ha":725,"x_min":38,"x_max":703,"o":"m 363 990 l 408 1014 l 503 926 l 633 1014 l 669 990 l 518 878 l 467 878 l 363 990 m 308 -14 q 196 10 246 -14 q 110 75 146 33 q 56 172 75 117 q 38 292 38 228 q 72 460 38 381 q 166 601 107 540 q 302 699 225 663 q 465 735 379 735 q 622 690 560 735 q 703 567 683 646 l 629 544 q 564 638 613 604 q 449 672 515 672 q 322 642 383 672 q 214 562 261 613 q 138 444 167 511 q 108 301 108 376 q 124 202 108 249 q 166 122 139 156 q 232 68 193 88 q 317 49 271 49 q 390 60 353 49 q 461 89 428 71 q 520 131 494 107 q 560 182 546 156 l 624 163 q 569 92 603 125 q 493 36 535 60 q 403 -1 451 13 q 308 -14 356 -14 z "},"ç":{"ha":725,"x_min":38,"x_max":703,"o":"m 167 -174 q 214 -192 185 -183 q 276 -200 243 -200 q 367 -137 367 -200 q 351 -107 367 -115 q 310 -99 335 -99 q 250 -106 282 -99 q 200 -118 218 -112 l 278 -12 q 178 19 222 -7 q 102 85 133 44 q 54 179 71 126 q 38 292 38 232 q 72 460 38 381 q 166 601 107 540 q 302 699 225 663 q 465 735 379 735 q 622 690 560 735 q 703 567 683 646 l 629 544 q 564 638 613 604 q 449 672 515 672 q 322 642 383 672 q 214 562 261 613 q 138 444 167 511 q 108 301 108 376 q 124 202 108 249 q 166 122 139 156 q 232 68 193 88 q 317 49 271 49 q 390 60 353 49 q 461 89 428 71 q 520 131 494 107 q 560 182 546 156 l 624 163 q 570 94 603 125 q 498 40 538 63 q 413 2 458 17 q 322 -14 368 -12 l 275 -74 q 302 -67 288 -68 q 328 -65 317 -65 q 408 -129 408 -65 q 371 -210 408 -182 q 263 -237 333 -237 q 195 -230 226 -237 q 140 -211 164 -222 l 167 -174 z "},"ĉ":{"ha":725,"x_min":38,"x_max":703,"o":"m 353 901 l 504 1014 l 556 1014 l 660 901 l 614 878 l 519 965 l 389 878 l 353 901 m 308 -14 q 196 10 246 -14 q 110 75 146 33 q 56 172 75 117 q 38 292 38 228 q 72 460 38 381 q 166 601 107 540 q 302 699 225 663 q 465 735 379 735 q 622 690 560 735 q 703 567 683 646 l 629 544 q 564 638 613 604 q 449 672 515 672 q 322 642 383 672 q 214 562 261 613 q 138 444 167 511 q 108 301 108 376 q 124 202 108 249 q 166 122 139 156 q 232 68 193 88 q 317 49 271 49 q 390 60 353 49 q 461 89 428 71 q 520 131 494 107 q 560 182 546 156 l 624 163 q 569 92 603 125 q 493 36 535 60 q 403 -1 451 13 q 308 -14 356 -14 z "},"ċ":{"ha":725,"x_min":38,"x_max":703,"o":"m 308 -14 q 196 10 246 -14 q 110 75 146 33 q 56 172 75 117 q 38 292 38 228 q 72 460 38 381 q 166 601 107 540 q 302 699 225 663 q 465 735 379 735 q 622 690 560 735 q 703 567 683 646 l 629 544 q 564 638 613 604 q 449 672 515 672 q 322 642 383 672 q 214 562 261 613 q 138 444 167 511 q 108 301 108 376 q 124 202 108 249 q 166 122 139 156 q 232 68 193 88 q 317 49 271 49 q 390 60 353 49 q 461 89 428 71 q 520 131 494 107 q 560 182 546 156 l 624 163 q 569 92 603 125 q 493 36 535 60 q 403 -1 451 13 q 308 -14 356 -14 m 468 889 l 494 1014 l 558 1014 l 532 889 l 468 889 z "},"¢":{"ha":740,"x_min":42,"x_max":706,"o":"m 243 -167 l 276 -12 q 177 19 221 -8 q 103 89 133 47 q 58 183 74 131 q 42 292 42 236 q 72 446 42 369 q 156 584 103 522 q 281 686 208 646 q 435 733 353 726 l 469 896 l 511 896 l 476 733 q 631 686 576 731 q 706 567 686 642 l 633 544 q 570 638 614 607 q 464 671 526 668 l 332 50 q 394 60 360 50 q 461 87 428 69 q 522 128 494 104 q 564 182 550 153 l 628 163 q 566 85 604 118 q 485 31 528 53 q 399 -3 443 8 q 318 -14 354 -14 l 285 -167 l 243 -167 m 113 300 q 125 212 113 254 q 160 136 138 169 q 216 81 183 103 q 290 53 249 58 l 421 668 q 298 627 354 663 q 201 539 242 592 q 136 423 160 486 q 113 300 113 360 z "},":":{"ha":242,"x_min":1,"x_max":214,"o":"m 128 600 l 154 718 l 214 718 l 189 600 l 128 600 m 1 0 l 26 118 l 86 118 l 61 0 l 1 0 z "},",":{"ha":326,"x_min":21,"x_max":135,"o":"m 21 -112 l 64 -3 l 39 -3 l 64 118 l 135 118 l 108 -3 l 58 -112 l 21 -112 z "},"©":{"ha":1169,"x_min":93,"x_max":1108,"o":"m 599 -10 q 397 28 490 -10 q 237 134 304 67 q 131 293 169 201 q 93 493 93 385 q 131 692 93 600 q 237 850 169 783 q 397 955 304 917 q 599 993 490 993 q 801 955 708 993 q 963 850 894 917 q 1069 692 1031 783 q 1108 493 1108 600 q 1069 293 1108 385 q 963 134 1031 201 q 801 28 894 67 q 599 -10 708 -10 m 600 29 q 784 63 699 29 q 932 157 869 96 q 1031 302 994 218 q 1067 489 1067 386 q 1031 674 1067 589 q 933 822 996 760 q 785 919 871 885 q 600 954 700 954 q 415 919 500 954 q 267 823 329 885 q 169 676 204 761 q 133 492 133 592 q 168 308 133 393 q 265 162 203 224 q 413 65 328 100 q 600 29 499 29 m 610 172 q 493 194 550 172 q 392 258 436 217 q 320 360 347 300 q 293 493 293 419 q 311 608 293 550 q 367 712 329 665 q 463 788 406 758 q 600 817 521 817 q 756 779 686 817 q 856 668 825 742 l 789 646 q 750 701 774 679 q 701 734 726 722 q 648 750 675 746 q 600 754 621 754 q 494 731 539 754 q 421 669 450 707 q 378 585 392 632 q 364 493 364 539 q 386 383 364 431 q 444 302 408 335 q 522 252 479 269 q 604 235 564 235 q 661 242 632 235 q 717 265 690 250 q 766 301 744 279 q 800 349 788 322 l 867 329 q 837 278 858 306 q 782 228 815 251 q 705 188 749 204 q 610 172 661 172 z "},"d":{"ha":821,"x_min":38,"x_max":838,"o":"m 297 -14 q 188 11 236 -14 q 106 78 139 36 q 55 174 72 119 q 38 290 38 229 q 71 455 38 375 q 160 597 104 535 q 290 697 217 660 q 442 735 363 735 q 523 721 486 735 q 589 684 560 707 q 639 631 618 661 q 672 565 660 600 l 767 1014 l 838 1014 l 643 100 q 640 83 640 86 q 664 63 640 63 l 650 0 q 633 -1 640 -1 q 619 -1 626 -1 q 572 49 572 6 q 573 58 572 53 q 575 73 574 63 q 580 100 576 83 q 589 144 583 117 q 453 29 532 72 q 297 -14 374 -14 m 324 49 q 402 64 358 49 q 486 106 446 79 q 559 168 526 133 q 604 243 592 203 l 654 481 q 629 555 649 519 q 581 616 610 590 q 517 657 553 642 q 444 672 482 672 q 315 639 376 672 q 208 552 254 606 q 136 433 163 499 q 110 301 110 367 q 125 204 110 250 q 168 124 140 158 q 235 69 196 89 q 324 49 275 49 z "},"†":{"ha":529,"x_min":42,"x_max":469,"o":"m 104 -181 l 215 344 l 42 344 l 56 408 l 231 408 l 372 1076 l 439 1076 l 297 408 l 469 408 l 457 344 l 283 344 l 172 -181 l 104 -181 z "},"‡":{"ha":535,"x_min":24,"x_max":497,"o":"m 108 -181 l 197 243 l 24 243 l 38 307 l 211 307 l 244 461 l 71 461 l 83 525 l 257 525 l 375 1076 l 442 1076 l 325 525 l 497 525 l 483 461 l 311 461 l 278 307 l 451 307 l 438 243 l 264 243 l 175 -181 l 108 -181 z "},"ď":{"ha":821,"x_min":38,"x_max":1057,"o":"m 872 896 l 978 1014 l 1057 1014 l 915 874 l 872 896 m 297 -14 q 188 11 236 -14 q 106 78 139 36 q 55 174 72 119 q 38 290 38 229 q 71 455 38 375 q 160 597 104 535 q 290 697 217 660 q 442 735 363 735 q 523 721 486 735 q 589 684 560 707 q 639 631 618 661 q 672 565 660 600 l 767 1014 l 838 1014 l 643 100 q 640 83 640 86 q 664 63 640 63 l 650 0 q 633 -1 640 -1 q 619 -1 626 -1 q 572 49 572 6 q 573 58 572 53 q 575 73 574 63 q 580 100 576 83 q 589 144 583 117 q 453 29 532 72 q 297 -14 374 -14 m 324 49 q 402 64 358 49 q 486 106 446 79 q 559 168 526 133 q 604 243 592 203 l 654 481 q 629 555 649 519 q 581 616 610 590 q 517 657 553 642 q 444 672 482 672 q 315 639 376 672 q 208 552 254 606 q 136 433 163 499 q 110 301 110 367 q 125 204 110 250 q 168 124 140 158 q 235 69 196 89 q 324 49 275 49 z "},"đ":{"ha":821,"x_min":38,"x_max":918,"o":"m 597 910 l 744 910 l 767 1014 l 838 1014 l 815 910 l 918 910 l 907 860 l 804 860 l 643 100 q 640 83 640 86 q 664 63 640 63 l 650 0 q 633 -1 640 -1 q 619 -1 626 -1 q 572 49 572 6 q 573 58 572 53 q 575 73 574 63 q 580 100 576 83 q 589 144 583 117 q 453 29 532 72 q 297 -14 374 -14 q 188 11 236 -14 q 106 78 139 36 q 55 174 72 119 q 38 290 38 229 q 71 455 38 375 q 160 597 104 535 q 290 697 217 660 q 442 735 363 735 q 523 721 486 735 q 589 684 560 707 q 639 631 618 661 q 672 565 660 600 l 733 860 l 588 860 l 597 910 m 324 49 q 402 64 358 49 q 486 106 446 79 q 559 168 526 133 q 604 243 592 203 l 654 481 q 629 555 649 519 q 581 616 610 590 q 517 657 553 642 q 444 672 482 672 q 315 639 376 672 q 208 552 254 606 q 136 433 163 499 q 110 301 110 367 q 125 204 110 250 q 168 124 140 158 q 235 69 196 89 q 324 49 275 49 z "},"°":{"ha":353,"x_min":168,"x_max":381,"o":"m 251 789 q 191 813 214 789 q 168 874 168 838 q 178 922 168 899 q 206 965 189 946 q 247 994 224 983 q 297 1006 271 1006 q 358 980 335 1006 q 381 918 381 954 q 370 868 381 892 q 342 827 360 844 q 300 799 324 810 q 251 789 276 789 m 261 833 q 311 856 286 833 q 336 910 336 878 q 323 946 336 933 q 288 958 310 958 q 237 938 260 958 q 214 886 214 917 q 226 848 214 863 q 261 833 239 833 z "},"÷":{"ha":751,"x_min":89,"x_max":649,"o":"m 338 547 l 338 660 l 399 660 l 399 547 l 338 547 m 338 113 l 338 224 l 399 224 l 399 113 l 338 113 m 89 357 l 89 417 l 649 417 l 649 357 l 89 357 z "},"$":{"ha":822,"x_min":-1,"x_max":814,"o":"m 767 822 q 540 929 700 928 l 456 525 q 572 492 519 510 q 661 449 625 475 q 717 388 697 424 q 738 301 738 353 q 708 169 738 226 q 627 72 679 111 q 503 13 575 33 q 346 -8 431 -8 l 318 -137 l 276 -137 l 304 -7 q -1 139 111 3 l 49 196 q 158 99 89 136 q 321 54 226 61 l 407 464 q 298 494 346 478 q 217 534 250 511 q 166 590 183 557 q 149 668 149 622 q 176 799 149 740 q 253 899 204 857 q 369 964 301 940 q 517 992 438 988 l 547 1132 l 589 1132 l 558 993 q 708 962 646 990 q 814 878 769 933 l 767 822 m 660 281 q 604 390 660 353 q 440 456 549 428 l 356 54 q 578 113 496 54 q 660 281 660 171 m 225 689 q 274 590 225 622 q 422 533 322 558 l 506 928 q 378 906 431 925 q 291 854 325 886 q 241 780 257 822 q 225 689 225 738 z "},"ı":{"ha":279,"x_min":17,"x_max":239,"o":"m 169 722 l 239 722 l 86 0 l 17 0 l 169 722 z "},"ȷ":{"ha":279,"x_min":-294,"x_max":239,"o":"m -161 -246 q -237 -234 -203 -246 q -294 -194 -271 -222 l -247 -149 q -206 -175 -231 -168 q -154 -182 -181 -182 q -103 -172 -129 -182 q -56 -142 -78 -161 q -17 -98 -33 -124 q 7 -42 0 -72 l 169 722 l 239 722 l 76 -39 q 42 -122 67 -85 q -15 -187 18 -160 q -87 -231 -49 -215 q -161 -246 -125 -246 z "},"e":{"ha":735,"x_min":38,"x_max":692,"o":"m 311 -14 q 195 10 246 -14 q 109 76 144 35 q 56 174 74 118 q 38 292 38 229 q 70 456 38 376 q 161 598 103 536 q 298 697 219 660 q 468 735 376 735 q 551 722 511 735 q 623 685 592 710 q 673 625 654 661 q 692 542 692 589 q 314 333 692 333 q 220 335 269 333 q 111 340 171 336 q 109 317 110 329 q 108 293 108 304 q 122 196 108 242 q 162 116 135 150 q 230 62 189 82 q 325 42 271 42 q 397 52 360 42 q 467 81 433 63 q 528 127 500 100 q 576 188 557 154 l 635 169 q 574 94 610 128 q 497 37 539 61 q 407 -1 454 13 q 311 -14 360 -14 m 460 678 q 340 653 394 678 q 242 590 285 629 q 168 499 199 550 q 122 393 138 447 q 227 388 181 389 q 318 386 274 386 q 463 398 404 386 q 558 431 522 410 q 610 480 594 451 q 626 543 626 508 q 612 603 626 578 q 574 646 597 629 q 521 670 551 663 q 460 678 490 678 z "},"é":{"ha":735,"x_min":38,"x_max":692,"o":"m 467 874 l 424 896 l 529 1014 l 608 1014 l 467 874 m 311 -14 q 195 10 246 -14 q 109 76 144 35 q 56 174 74 118 q 38 292 38 229 q 70 456 38 376 q 161 598 103 536 q 298 697 219 660 q 468 735 376 735 q 551 722 511 735 q 623 685 592 710 q 673 625 654 661 q 692 542 692 589 q 314 333 692 333 q 220 335 269 333 q 111 340 171 336 q 109 317 110 329 q 108 293 108 304 q 122 196 108 242 q 162 116 135 150 q 230 62 189 82 q 325 42 271 42 q 397 52 360 42 q 467 81 433 63 q 528 127 500 100 q 576 188 557 154 l 635 169 q 574 94 610 128 q 497 37 539 61 q 407 -1 454 13 q 311 -14 360 -14 m 460 678 q 340 653 394 678 q 242 590 285 629 q 168 499 199 550 q 122 393 138 447 q 227 388 181 389 q 318 386 274 386 q 463 398 404 386 q 558 431 522 410 q 610 480 594 451 q 626 543 626 508 q 612 603 626 578 q 574 646 597 629 q 521 670 551 663 q 460 678 490 678 z "},"ĕ":{"ha":735,"x_min":38,"x_max":692,"o":"m 311 -14 q 195 10 246 -14 q 109 76 144 35 q 56 174 74 118 q 38 292 38 229 q 70 456 38 376 q 161 598 103 536 q 298 697 219 660 q 468 735 376 735 q 551 722 511 735 q 623 685 592 710 q 673 625 654 661 q 692 542 692 589 q 314 333 692 333 q 220 335 269 333 q 111 340 171 336 q 109 317 110 329 q 108 293 108 304 q 122 196 108 242 q 162 116 135 150 q 230 62 189 82 q 325 42 271 42 q 397 52 360 42 q 467 81 433 63 q 528 127 500 100 q 576 188 557 154 l 635 169 q 574 94 610 128 q 497 37 539 61 q 407 -1 454 13 q 311 -14 360 -14 m 460 678 q 340 653 394 678 q 242 590 285 629 q 168 499 199 550 q 122 393 138 447 q 227 388 181 389 q 318 386 274 386 q 463 398 404 386 q 558 431 522 410 q 610 480 594 451 q 626 543 626 508 q 612 603 626 578 q 574 646 597 629 q 521 670 551 663 q 460 678 490 678 m 499 925 q 554 951 526 925 q 593 1014 582 976 l 638 1014 q 617 964 632 988 q 583 923 603 940 q 539 896 563 906 q 492 886 515 886 q 421 915 447 886 q 394 986 394 943 q 399 1014 394 999 l 444 1014 q 443 994 443 1007 q 459 946 443 967 q 499 925 475 925 z "},"ě":{"ha":735,"x_min":38,"x_max":692,"o":"m 361 990 l 407 1014 l 501 926 l 632 1014 l 668 990 l 517 878 l 465 878 l 361 990 m 311 -14 q 195 10 246 -14 q 109 76 144 35 q 56 174 74 118 q 38 292 38 229 q 70 456 38 376 q 161 598 103 536 q 298 697 219 660 q 468 735 376 735 q 551 722 511 735 q 623 685 592 710 q 673 625 654 661 q 692 542 692 589 q 314 333 692 333 q 220 335 269 333 q 111 340 171 336 q 109 317 110 329 q 108 293 108 304 q 122 196 108 242 q 162 116 135 150 q 230 62 189 82 q 325 42 271 42 q 397 52 360 42 q 467 81 433 63 q 528 127 500 100 q 576 188 557 154 l 635 169 q 574 94 610 128 q 497 37 539 61 q 407 -1 454 13 q 311 -14 360 -14 m 460 678 q 340 653 394 678 q 242 590 285 629 q 168 499 199 550 q 122 393 138 447 q 227 388 181 389 q 318 386 274 386 q 463 398 404 386 q 558 431 522 410 q 610 480 594 451 q 626 543 626 508 q 612 603 626 578 q 574 646 597 629 q 521 670 551 663 q 460 678 490 678 z "},"ê":{"ha":735,"x_min":38,"x_max":692,"o":"m 357 901 l 508 1014 l 560 1014 l 664 901 l 618 878 l 524 965 l 393 878 l 357 901 m 311 -14 q 195 10 246 -14 q 109 76 144 35 q 56 174 74 118 q 38 292 38 229 q 70 456 38 376 q 161 598 103 536 q 298 697 219 660 q 468 735 376 735 q 551 722 511 735 q 623 685 592 710 q 673 625 654 661 q 692 542 692 589 q 314 333 692 333 q 220 335 269 333 q 111 340 171 336 q 109 317 110 329 q 108 293 108 304 q 122 196 108 242 q 162 116 135 150 q 230 62 189 82 q 325 42 271 42 q 397 52 360 42 q 467 81 433 63 q 528 127 500 100 q 576 188 557 154 l 635 169 q 574 94 610 128 q 497 37 539 61 q 407 -1 454 13 q 311 -14 360 -14 m 460 678 q 340 653 394 678 q 242 590 285 629 q 168 499 199 550 q 122 393 138 447 q 227 388 181 389 q 318 386 274 386 q 463 398 404 386 q 558 431 522 410 q 610 480 594 451 q 626 543 626 508 q 612 603 626 578 q 574 646 597 629 q 521 670 551 663 q 460 678 490 678 z "},"ë":{"ha":735,"x_min":38,"x_max":692,"o":"m 374 889 l 399 1011 l 460 1011 l 433 889 l 374 889 m 556 889 l 582 1011 l 642 1011 l 617 889 l 556 889 m 311 -14 q 195 10 246 -14 q 109 76 144 35 q 56 174 74 118 q 38 292 38 229 q 70 456 38 376 q 161 598 103 536 q 298 697 219 660 q 468 735 376 735 q 551 722 511 735 q 623 685 592 710 q 673 625 654 661 q 692 542 692 589 q 314 333 692 333 q 220 335 269 333 q 111 340 171 336 q 109 317 110 329 q 108 293 108 304 q 122 196 108 242 q 162 116 135 150 q 230 62 189 82 q 325 42 271 42 q 397 52 360 42 q 467 81 433 63 q 528 127 500 100 q 576 188 557 154 l 635 169 q 574 94 610 128 q 497 37 539 61 q 407 -1 454 13 q 311 -14 360 -14 m 460 678 q 340 653 394 678 q 242 590 285 629 q 168 499 199 550 q 122 393 138 447 q 227 388 181 389 q 318 386 274 386 q 463 398 404 386 q 558 431 522 410 q 610 480 594 451 q 626 543 626 508 q 612 603 626 578 q 574 646 597 629 q 521 670 551 663 q 460 678 490 678 z "},"ė":{"ha":735,"x_min":38,"x_max":692,"o":"m 311 -14 q 195 10 246 -14 q 109 76 144 35 q 56 174 74 118 q 38 292 38 229 q 70 456 38 376 q 161 598 103 536 q 298 697 219 660 q 468 735 376 735 q 551 722 511 735 q 623 685 592 710 q 673 625 654 661 q 692 542 692 589 q 314 333 692 333 q 220 335 269 333 q 111 340 171 336 q 109 317 110 329 q 108 293 108 304 q 122 196 108 242 q 162 116 135 150 q 230 62 189 82 q 325 42 271 42 q 397 52 360 42 q 467 81 433 63 q 528 127 500 100 q 576 188 557 154 l 635 169 q 574 94 610 128 q 497 37 539 61 q 407 -1 454 13 q 311 -14 360 -14 m 460 678 q 340 653 394 678 q 242 590 285 629 q 168 499 199 550 q 122 393 138 447 q 227 388 181 389 q 318 386 274 386 q 463 398 404 386 q 558 431 522 410 q 610 480 594 451 q 626 543 626 508 q 612 603 626 578 q 574 646 597 629 q 521 670 551 663 q 460 678 490 678 m 468 889 l 494 1014 l 558 1014 l 532 889 l 468 889 z "},"è":{"ha":735,"x_min":38,"x_max":692,"o":"m 311 -14 q 195 10 246 -14 q 109 76 144 35 q 56 174 74 118 q 38 292 38 229 q 70 456 38 376 q 161 598 103 536 q 298 697 219 660 q 468 735 376 735 q 551 722 511 735 q 623 685 592 710 q 673 625 654 661 q 692 542 692 589 q 314 333 692 333 q 220 335 269 333 q 111 340 171 336 q 109 317 110 329 q 108 293 108 304 q 122 196 108 242 q 162 116 135 150 q 230 62 189 82 q 325 42 271 42 q 397 52 360 42 q 467 81 433 63 q 528 127 500 100 q 576 188 557 154 l 635 169 q 574 94 610 128 q 497 37 539 61 q 407 -1 454 13 q 311 -14 360 -14 m 460 678 q 340 653 394 678 q 242 590 285 629 q 168 499 199 550 q 122 393 138 447 q 227 388 181 389 q 318 386 274 386 q 463 398 404 386 q 558 431 522 410 q 610 480 594 451 q 626 543 626 508 q 612 603 626 578 q 574 646 597 629 q 521 670 551 663 q 460 678 490 678 m 429 1014 l 506 1014 l 563 896 l 511 874 l 429 1014 z "},"₈":{"ha":524,"x_min":-28,"x_max":425,"o":"m 392 61 q 371 -12 392 21 q 315 -67 350 -44 q 236 -103 281 -90 q 146 -117 192 -117 q 18 -77 64 -117 q -28 19 -28 -37 q -14 78 -28 51 q 22 124 0 104 q 73 159 44 144 q 129 182 101 174 q 72 219 94 194 q 49 281 49 244 q 69 345 49 317 q 120 394 89 374 q 190 424 151 414 q 265 435 228 435 q 325 427 296 435 q 376 404 354 419 q 412 367 399 389 q 425 318 425 346 q 385 233 425 267 q 293 182 346 199 q 364 136 336 167 q 392 61 392 106 m 342 60 q 330 102 342 83 q 299 133 318 121 q 256 153 281 146 q 206 160 231 160 q 141 150 174 160 q 82 123 108 140 q 39 81 56 106 q 22 28 22 57 q 34 -14 22 4 q 65 -44 46 -32 q 110 -63 85 -57 q 160 -69 135 -69 q 223 -60 190 -69 q 282 -35 256 -51 q 325 6 308 -18 q 342 60 342 31 m 97 282 q 108 248 97 263 q 135 223 118 233 q 173 207 151 213 q 215 201 194 201 q 269 209 242 201 q 321 230 297 217 q 360 263 344 243 q 375 307 375 282 q 339 367 375 346 q 254 389 303 389 q 197 381 225 389 q 147 360 168 374 q 111 326 125 346 q 97 282 97 307 z "},"⁸":{"ha":524,"x_min":118,"x_max":571,"o":"m 538 751 q 517 678 538 711 q 462 622 496 646 q 383 585 428 599 q 293 572 339 572 q 165 613 211 572 q 118 710 118 653 q 132 767 118 742 q 168 814 146 793 q 219 849 190 835 q 275 872 247 864 q 218 910 242 885 q 194 971 194 935 q 215 1035 194 1007 q 266 1084 235 1064 q 335 1115 297 1104 q 411 1125 374 1125 q 471 1117 442 1125 q 522 1094 500 1110 q 558 1058 544 1079 q 571 1008 571 1036 q 532 923 571 957 q 440 872 493 889 q 510 826 483 857 q 538 751 538 796 m 489 750 q 477 792 489 774 q 447 824 465 811 q 403 843 428 836 q 353 850 378 850 q 288 840 321 850 q 228 813 254 831 q 185 772 201 796 q 168 719 168 749 q 180 678 168 696 q 212 647 192 660 q 256 628 232 635 q 306 621 281 621 q 369 630 336 621 q 428 656 401 639 q 472 697 456 672 q 489 750 489 721 m 243 972 q 253 938 243 953 q 281 913 264 924 q 319 897 297 903 q 361 892 340 892 q 415 899 388 892 q 467 919 443 906 q 506 953 490 933 q 521 997 521 972 q 485 1058 521 1036 q 401 1079 449 1079 q 344 1072 372 1079 q 293 1050 315 1064 q 257 1017 271 1036 q 243 972 243 997 z "},"…":{"ha":568,"x_min":6,"x_max":414,"o":"m 6 0 l 32 118 l 92 118 l 67 0 l 6 0 m 167 0 l 193 118 l 251 118 l 228 0 l 167 0 m 326 0 l 353 118 l 414 118 l 388 0 l 326 0 z "},"ē":{"ha":735,"x_min":38,"x_max":706,"o":"m 311 -14 q 195 10 246 -14 q 109 76 144 35 q 56 174 74 118 q 38 292 38 229 q 70 456 38 376 q 161 598 103 536 q 298 697 219 660 q 468 735 376 735 q 551 722 511 735 q 623 685 592 710 q 673 625 654 661 q 692 542 692 589 q 314 333 692 333 q 220 335 269 333 q 111 340 171 336 q 109 317 110 329 q 108 293 108 304 q 122 196 108 242 q 162 116 135 150 q 230 62 189 82 q 325 42 271 42 q 397 52 360 42 q 467 81 433 63 q 528 127 500 100 q 576 188 557 154 l 635 169 q 574 94 610 128 q 497 37 539 61 q 407 -1 454 13 q 311 -14 360 -14 m 460 678 q 340 653 394 678 q 242 590 285 629 q 168 499 199 550 q 122 393 138 447 q 227 388 181 389 q 318 386 274 386 q 463 398 404 386 q 558 431 522 410 q 610 480 594 451 q 626 543 626 508 q 612 603 626 578 q 574 646 597 629 q 521 670 551 663 q 460 678 490 678 m 317 932 l 328 983 l 706 983 l 694 932 l 317 932 z "},"—":{"ha":1185,"x_min":75,"x_max":1092,"o":"m 75 346 l 89 410 l 1092 410 l 1079 346 l 75 346 z "},"–":{"ha":746,"x_min":75,"x_max":653,"o":"m 75 346 l 89 410 l 653 410 l 640 346 l 75 346 z "},"ŋ":{"ha":767,"x_min":17,"x_max":686,"o":"m 333 -246 q 258 -234 292 -246 q 200 -194 224 -222 l 247 -149 q 289 -175 264 -168 q 340 -182 314 -182 q 390 -172 364 -182 q 438 -142 415 -161 q 478 -98 461 -124 q 501 -42 494 -72 l 596 403 q 608 474 604 442 q 611 532 611 506 q 496 671 611 671 q 407 654 453 671 q 319 607 361 638 q 240 535 276 576 q 181 447 204 494 l 86 0 l 17 0 l 169 722 l 235 722 l 197 550 q 265 626 226 592 q 348 684 304 660 q 438 722 392 708 q 531 735 485 735 q 650 690 614 735 q 686 561 686 646 q 681 493 686 529 q 668 415 676 457 l 572 -39 q 538 -122 563 -85 q 479 -187 513 -160 q 408 -231 446 -215 q 333 -246 369 -246 z "},"ę":{"ha":735,"x_min":38,"x_max":692,"o":"m 239 -244 q 185 -215 203 -236 q 168 -167 168 -194 q 196 -92 168 -128 q 290 -12 224 -57 q 183 17 229 -8 q 103 83 136 42 q 54 177 71 124 q 38 292 38 231 q 70 456 38 376 q 161 598 103 536 q 298 697 219 660 q 468 735 376 735 q 551 722 511 735 q 623 685 592 710 q 673 625 654 661 q 692 542 692 589 q 314 333 692 333 q 220 335 269 333 q 111 340 171 336 q 109 317 110 329 q 108 293 108 304 q 122 196 108 242 q 162 116 135 150 q 230 62 189 82 q 325 42 271 42 q 397 52 360 42 q 467 81 433 63 q 528 127 500 100 q 576 188 557 154 l 635 169 q 514 47 590 94 q 350 -11 438 -1 q 245 -88 274 -57 q 217 -151 217 -119 q 271 -203 217 -194 l 239 -244 m 460 678 q 340 653 394 678 q 242 590 285 629 q 168 499 199 550 q 122 393 138 447 q 227 388 181 389 q 318 386 274 386 q 463 398 404 386 q 558 431 522 410 q 610 480 594 451 q 626 543 626 508 q 612 603 626 578 q 574 646 597 629 q 521 670 551 663 q 460 678 490 678 z "},"=":{"ha":644,"x_min":107,"x_max":521,"o":"m 107 289 l 107 342 l 521 342 l 521 289 l 107 289 m 107 425 l 107 478 l 521 478 l 521 425 l 107 425 z "},"ð":{"ha":799,"x_min":32,"x_max":760,"o":"m 760 957 l 626 879 q 717 697 692 792 q 743 514 743 601 q 704 294 743 392 q 603 128 665 197 q 461 23 540 60 q 301 -14 382 -14 q 192 8 242 -14 q 106 67 142 29 q 51 155 71 104 q 32 264 32 206 q 67 415 32 343 q 158 540 101 486 q 288 626 215 594 q 435 658 360 658 q 592 610 528 658 q 675 482 657 561 q 676 503 675 493 q 676 525 676 514 q 656 688 676 607 q 569 851 635 769 l 397 750 l 381 785 l 546 881 q 478 947 515 914 q 392 1014 440 981 l 489 1014 q 551 963 522 989 q 603 908 579 936 l 743 990 l 760 957 m 103 272 q 118 184 103 225 q 162 113 133 143 q 229 66 190 83 q 315 49 268 49 q 438 76 378 49 q 546 151 499 104 q 622 258 593 197 q 650 382 650 318 q 634 467 650 428 q 590 536 618 507 q 523 582 563 565 q 436 599 483 599 q 314 572 374 599 q 207 501 254 546 q 131 397 160 456 q 103 272 103 338 z "},"ẽ":{"ha":735,"x_min":38,"x_max":719,"o":"m 311 -14 q 195 10 246 -14 q 109 76 144 35 q 56 174 74 118 q 38 292 38 229 q 70 456 38 376 q 161 598 103 536 q 298 697 219 660 q 468 735 376 735 q 551 722 511 735 q 623 685 592 710 q 673 625 654 661 q 692 542 692 589 q 314 333 692 333 q 220 335 269 333 q 111 340 171 336 q 109 317 110 329 q 108 293 108 304 q 122 196 108 242 q 162 116 135 150 q 230 62 189 82 q 325 42 271 42 q 397 52 360 42 q 467 81 433 63 q 528 127 500 100 q 576 188 557 154 l 635 169 q 574 94 610 128 q 497 37 539 61 q 407 -1 454 13 q 311 -14 360 -14 m 460 678 q 340 653 394 678 q 242 590 285 629 q 168 499 199 550 q 122 393 138 447 q 227 388 181 389 q 318 386 274 386 q 463 398 404 386 q 558 431 522 410 q 610 480 594 451 q 626 543 626 508 q 612 603 626 578 q 574 646 597 629 q 521 670 551 663 q 460 678 490 678 m 574 899 q 524 907 544 899 q 486 926 503 915 q 454 945 469 936 q 418 954 439 954 q 381 944 396 954 q 356 923 365 935 q 342 901 347 911 q 338 888 338 890 l 290 888 q 300 912 292 893 q 325 951 308 931 q 367 987 342 971 q 428 1003 392 1003 q 473 994 454 1003 q 508 974 492 985 q 542 956 525 964 q 583 947 558 947 q 626 957 610 947 q 653 978 643 967 q 669 1001 664 990 q 674 1014 674 1011 l 719 1014 q 710 988 718 1007 q 684 950 701 969 q 640 915 667 931 q 574 899 613 899 z "},"!":{"ha":332,"x_min":42,"x_max":324,"o":"m 107 303 l 253 996 l 324 996 l 176 303 l 107 303 m 42 0 l 72 142 l 146 142 l 113 0 l 42 0 z "},"¡":{"ha":332,"x_min":42,"x_max":322,"o":"m 258 692 l 111 -1 l 42 -1 l 189 692 l 258 692 m 322 994 l 293 853 l 219 853 l 253 994 l 322 994 z "},"f":{"ha":432,"x_min":-18,"x_max":586,"o":"m 185 665 l 89 665 l 101 722 l 199 722 l 203 746 q 298 953 229 879 q 458 1028 367 1028 q 531 1015 497 1028 q 586 982 565 1003 l 550 932 q 510 957 536 947 q 457 967 485 967 q 340 911 390 967 q 272 747 290 856 l 268 722 l 461 722 l 449 665 l 254 665 l 51 -296 l -18 -296 l 185 665 z "},"ﬀ":{"ha":758,"x_min":44,"x_max":901,"o":"m 185 665 l 89 665 l 101 722 l 199 722 l 200 733 q 231 821 210 778 q 284 898 251 864 q 359 953 317 932 q 456 974 401 974 q 535 962 501 974 q 589 936 569 950 q 672 1003 625 978 q 781 1028 718 1028 q 833 1022 813 1028 q 868 1008 854 1015 q 890 992 882 1000 q 901 982 897 985 l 865 932 q 840 953 857 942 q 779 965 824 965 q 697 945 733 965 q 633 894 660 925 q 590 824 607 863 q 567 747 574 785 l 561 722 l 788 722 l 775 665 l 549 665 l 407 0 l 338 0 l 479 665 l 254 665 l 114 0 l 44 0 l 185 665 m 492 722 q 517 811 501 772 q 554 882 532 850 q 505 906 535 900 q 453 911 475 911 q 378 894 410 911 q 325 851 347 878 q 290 794 303 825 q 269 735 276 764 l 267 722 l 492 722 z "},"ﬃ":{"ha":939,"x_min":44,"x_max":964,"o":"m 185 665 l 89 665 l 101 722 l 197 722 l 200 733 q 229 819 208 776 q 283 896 250 861 q 358 952 315 931 q 456 974 401 974 q 535 962 501 974 q 589 936 569 950 q 677 1003 628 978 q 792 1028 726 1028 q 853 1021 825 1028 q 904 1005 882 1014 q 942 985 926 996 q 964 969 957 975 l 918 921 q 867 951 904 938 q 785 965 829 965 q 699 945 736 965 q 635 894 663 925 q 591 824 608 863 q 567 747 574 785 l 561 722 l 899 722 l 744 0 l 675 0 l 817 665 l 549 665 l 407 0 l 338 0 l 479 665 l 254 665 l 114 0 l 44 0 l 185 665 m 492 722 q 517 808 501 767 q 554 882 532 850 q 505 906 535 900 q 453 911 475 911 q 378 894 410 911 q 324 851 346 876 q 288 794 301 825 q 269 733 275 763 l 267 722 l 492 722 z "},"ﬄ":{"ha":1044,"x_min":44,"x_max":969,"o":"m 846 -8 q 767 19 792 -8 q 742 88 742 47 q 747 133 742 107 l 893 815 q 897 854 897 833 q 870 933 897 900 q 781 965 843 965 q 700 946 735 965 q 640 895 665 926 q 597 824 614 864 q 571 742 579 783 l 567 722 l 717 722 l 704 665 l 554 665 l 413 0 l 343 0 l 485 665 l 254 665 l 114 0 l 44 0 l 185 665 l 89 665 l 101 722 l 197 722 l 200 732 q 235 826 211 782 q 292 902 258 869 q 368 954 325 935 q 464 974 411 974 q 541 962 513 974 q 589 938 569 950 q 675 1004 625 981 q 789 1028 725 1028 q 925 985 881 1028 q 969 875 969 942 q 964 826 969 850 l 819 142 q 817 119 817 128 q 831 76 817 96 q 878 56 844 56 q 929 63 901 56 q 960 69 957 69 l 960 11 q 949 7 960 10 q 921 1 938 4 q 884 -6 904 -3 q 846 -8 864 -8 m 497 722 q 522 814 508 772 q 553 883 535 856 q 510 906 535 901 q 463 911 485 911 q 388 895 421 911 q 331 854 356 879 q 291 797 307 829 q 269 733 275 765 l 267 722 l 497 722 z "},"ﬁ":{"ha":644,"x_min":44,"x_max":669,"o":"m 185 665 l 89 665 l 101 722 l 199 722 l 203 746 q 236 844 213 793 q 297 935 260 894 q 383 1001 333 975 q 496 1028 433 1028 q 561 1021 532 1028 q 613 1005 590 1014 q 649 985 635 996 q 669 969 663 975 l 624 921 q 572 952 608 939 q 486 965 535 965 q 406 945 442 965 q 342 894 369 925 q 298 824 315 863 q 272 747 281 785 l 268 722 l 604 722 l 450 0 l 381 0 l 522 665 l 254 665 l 114 0 l 44 0 l 185 665 z "},"ﬂ":{"ha":744,"x_min":44,"x_max":671,"o":"m 543 -8 q 467 19 493 -8 q 442 88 442 47 q 447 129 442 107 l 593 815 q 597 835 596 825 q 599 854 599 844 q 592 897 599 876 q 572 932 586 917 q 533 956 557 947 q 475 965 510 965 q 399 947 433 965 q 340 897 365 928 q 298 827 315 867 q 272 744 281 788 l 268 722 l 418 722 l 406 665 l 254 665 l 114 0 l 44 0 l 185 665 l 89 665 l 101 722 l 199 722 l 204 750 q 240 860 217 810 q 300 949 264 911 q 383 1007 336 986 q 488 1028 429 1028 q 626 985 581 1028 q 671 876 671 943 q 665 826 671 850 l 519 142 q 517 121 517 128 q 531 76 517 96 q 576 56 544 56 q 603 58 589 56 q 631 63 618 60 q 652 67 643 65 q 661 69 661 69 l 661 11 q 650 7 661 10 q 622 1 639 4 q 585 -6 606 -3 q 543 -8 564 -8 z "},"⅝":{"ha":1115,"x_min":79,"x_max":1046,"o":"m 339 814 q 458 774 413 814 q 504 671 504 735 q 483 586 504 625 q 428 519 463 547 q 348 476 393 492 q 254 461 303 461 q 145 490 190 461 q 85 567 100 518 l 124 592 q 176 530 139 553 q 267 507 214 507 q 338 519 304 507 q 397 551 371 531 q 438 601 422 572 q 453 664 453 631 q 414 745 453 717 q 325 774 375 774 q 242 756 283 774 q 172 707 200 738 l 126 707 q 156 775 136 729 q 198 870 176 821 q 238 960 219 919 q 260 1014 256 1001 l 549 1014 l 538 965 l 286 965 l 199 768 q 264 803 228 792 q 339 814 300 814 m 79 29 l 1014 990 l 1046 958 l 111 -4 l 79 29 m 763 -6 q 635 34 682 -6 q 589 131 589 74 q 603 189 589 163 q 639 235 617 215 q 690 270 661 256 q 746 293 718 285 q 688 331 711 306 q 665 392 665 356 q 685 456 665 428 q 737 505 706 485 q 806 535 768 525 q 882 546 844 546 q 942 538 913 546 q 993 515 971 531 q 1028 478 1015 500 q 1042 429 1042 457 q 1002 344 1042 378 q 910 293 963 310 q 981 247 953 278 q 1008 172 1008 217 q 988 99 1008 132 q 932 44 967 67 q 853 8 897 21 q 763 -6 808 -6 m 776 42 q 840 51 807 42 q 899 76 872 60 q 942 117 925 93 q 958 171 958 142 q 947 213 958 194 q 916 244 935 232 q 872 264 897 257 q 822 271 847 271 q 758 261 790 271 q 699 234 725 251 q 656 192 672 217 q 639 139 639 168 q 651 97 639 115 q 682 67 663 79 q 726 48 701 54 q 776 42 751 42 m 832 313 q 886 320 858 313 q 938 341 914 328 q 976 374 961 354 q 992 418 992 393 q 956 478 992 457 q 871 500 919 500 q 813 492 842 500 q 763 471 785 485 q 728 438 742 457 q 714 393 714 418 q 724 359 714 374 q 751 334 735 344 q 790 318 768 324 q 832 313 811 313 z "},"⁄":{"ha":196,"x_min":-369,"x_max":597,"o":"m -369 29 l 565 990 l 597 958 l -337 -4 l -369 29 z "},"⁵":{"ha":499,"x_min":103,"x_max":567,"o":"m 357 925 q 476 885 431 925 q 522 782 522 846 q 501 697 522 736 q 446 631 481 658 q 366 588 411 603 q 272 572 321 572 q 163 601 207 572 q 103 678 118 629 l 142 703 q 194 641 157 664 q 285 618 232 618 q 356 630 322 618 q 415 663 389 642 q 456 713 440 683 q 471 775 471 742 q 432 856 471 828 q 343 885 393 885 q 260 867 301 885 q 190 818 218 849 l 144 818 q 174 886 154 840 q 216 981 194 932 q 256 1072 238 1031 q 278 1125 274 1113 l 567 1125 l 556 1076 l 304 1076 l 217 879 q 282 914 246 903 q 357 925 318 925 z "},"₅":{"ha":497,"x_min":-44,"x_max":421,"o":"m 211 235 q 330 195 285 235 q 375 92 375 156 q 354 8 375 46 q 299 -59 333 -31 q 219 -103 264 -87 q 126 -118 174 -118 q 16 -90 61 -118 q -44 -14 -29 -61 l -4 13 q 49 -49 11 -26 q 139 -72 86 -72 q 210 -60 176 -72 q 269 -28 243 -49 q 310 22 294 -7 q 325 85 325 51 q 286 166 325 138 q 197 194 247 194 q 114 176 156 194 q 44 128 72 158 l -3 128 q 27 196 7 150 q 69 291 47 242 q 108 381 90 340 q 131 435 126 422 l 421 435 l 410 386 l 158 386 l 71 189 q 136 224 100 213 q 211 235 172 235 z "},"ƒ":{"ha":692,"x_min":-87,"x_max":765,"o":"m 46 -246 q -30 -234 4 -246 q -87 -194 -64 -222 l -40 -149 q 1 -175 -24 -168 q 53 -182 26 -182 q 103 -172 78 -182 q 151 -142 129 -161 q 190 -98 174 -124 q 214 -42 207 -72 l 346 581 l 250 581 l 261 638 l 360 638 l 382 746 q 477 953 410 879 q 636 1028 544 1028 q 710 1015 676 1028 q 765 982 744 1003 l 729 932 q 690 957 715 947 q 636 967 664 967 q 522 910 568 967 q 451 747 475 854 l 429 638 l 622 638 l 610 581 l 415 581 l 283 -40 q 249 -124 274 -86 q 190 -188 224 -161 q 119 -231 157 -215 q 46 -246 82 -246 z "},"₄":{"ha":504,"x_min":-46,"x_max":390,"o":"m 226 -111 l 257 36 l -46 36 l -36 81 l 357 435 l 390 435 l 315 83 l 390 83 l 381 36 l 306 36 l 274 -111 l 226 -111 m 19 83 l 268 83 l 328 364 l 19 83 z "},"⁴":{"ha":506,"x_min":101,"x_max":539,"o":"m 374 579 l 404 725 l 101 725 l 111 771 l 504 1125 l 538 1125 l 463 774 l 539 774 l 528 725 l 453 725 l 422 579 l 374 579 m 167 774 l 415 774 l 475 1054 l 167 774 z "},"g":{"ha":814,"x_min":-40,"x_max":774,"o":"m 229 -310 q 48 -265 110 -310 q -40 -143 -14 -219 l 13 -111 q 100 -219 38 -185 q 242 -253 163 -253 q 343 -237 293 -253 q 434 -192 393 -222 q 505 -118 475 -162 q 547 -14 535 -74 l 581 144 q 518 81 553 110 q 446 32 483 53 q 368 0 408 11 q 290 -11 328 -11 q 183 14 231 -11 q 103 81 136 39 q 53 176 71 122 q 36 290 36 231 q 69 453 36 374 q 159 596 103 533 q 289 697 215 658 q 444 735 363 735 q 590 685 533 735 q 678 565 646 636 l 711 722 l 774 722 l 617 -14 q 563 -143 601 -87 q 472 -235 525 -199 q 357 -291 419 -272 q 229 -310 294 -310 m 321 49 q 409 66 364 49 q 493 111 454 83 q 561 174 532 139 q 603 243 590 208 l 653 481 q 627 558 646 522 q 581 618 608 593 q 517 658 553 643 q 442 672 481 672 q 310 638 371 672 q 205 549 250 603 q 134 430 160 496 q 108 301 108 364 q 124 204 108 250 q 167 124 139 158 q 233 69 194 89 q 321 49 272 49 z "},"ğ":{"ha":814,"x_min":-40,"x_max":774,"o":"m 229 -310 q 48 -265 110 -310 q -40 -143 -14 -219 l 13 -111 q 100 -219 38 -185 q 242 -253 163 -253 q 343 -237 293 -253 q 434 -192 393 -222 q 505 -118 475 -162 q 547 -14 535 -74 l 581 144 q 518 81 553 110 q 446 32 483 53 q 368 0 408 11 q 290 -11 328 -11 q 183 14 231 -11 q 103 81 136 39 q 53 176 71 122 q 36 290 36 231 q 69 453 36 374 q 159 596 103 533 q 289 697 215 658 q 444 735 363 735 q 590 685 533 735 q 678 565 646 636 l 711 722 l 774 722 l 617 -14 q 563 -143 601 -87 q 472 -235 525 -199 q 357 -291 419 -272 q 229 -310 294 -310 m 321 49 q 409 66 364 49 q 493 111 454 83 q 561 174 532 139 q 603 243 590 208 l 653 481 q 627 558 646 522 q 581 618 608 593 q 517 658 553 643 q 442 672 481 672 q 310 638 371 672 q 205 549 250 603 q 134 430 160 496 q 108 301 108 364 q 124 204 108 250 q 167 124 139 158 q 233 69 194 89 q 321 49 272 49 m 482 925 q 538 951 510 925 q 576 1014 565 976 l 621 1014 q 601 964 615 988 q 566 923 586 940 q 522 896 546 906 q 475 886 499 886 q 404 915 431 886 q 378 986 378 943 q 382 1014 378 999 l 428 1014 q 426 994 426 1007 q 442 946 426 967 q 482 925 458 925 z "},"ĝ":{"ha":814,"x_min":-40,"x_max":774,"o":"m 339 901 l 490 1014 l 542 1014 l 646 901 l 600 878 l 506 965 l 375 878 l 339 901 m 229 -310 q 48 -265 110 -310 q -40 -143 -14 -219 l 13 -111 q 100 -219 38 -185 q 242 -253 163 -253 q 343 -237 293 -253 q 434 -192 393 -222 q 505 -118 475 -162 q 547 -14 535 -74 l 581 144 q 518 81 553 110 q 446 32 483 53 q 368 0 408 11 q 290 -11 328 -11 q 183 14 231 -11 q 103 81 136 39 q 53 176 71 122 q 36 290 36 231 q 69 453 36 374 q 159 596 103 533 q 289 697 215 658 q 444 735 363 735 q 590 685 533 735 q 678 565 646 636 l 711 722 l 774 722 l 617 -14 q 563 -143 601 -87 q 472 -235 525 -199 q 357 -291 419 -272 q 229 -310 294 -310 m 321 49 q 409 66 364 49 q 493 111 454 83 q 561 174 532 139 q 603 243 590 208 l 653 481 q 627 558 646 522 q 581 618 608 593 q 517 658 553 643 q 442 672 481 672 q 310 638 371 672 q 205 549 250 603 q 134 430 160 496 q 108 301 108 364 q 124 204 108 250 q 167 124 139 158 q 233 69 194 89 q 321 49 272 49 z "},"ģ":{"ha":814,"x_min":-40,"x_max":774,"o":"m 544 1022 l 504 928 l 526 928 l 506 831 l 439 831 l 458 928 l 507 1022 l 544 1022 m 229 -310 q 48 -265 110 -310 q -40 -143 -14 -219 l 13 -111 q 100 -219 38 -185 q 242 -253 163 -253 q 343 -237 293 -253 q 434 -192 393 -222 q 505 -118 475 -162 q 547 -14 535 -74 l 581 144 q 518 81 553 110 q 446 32 483 53 q 368 0 408 11 q 290 -11 328 -11 q 183 14 231 -11 q 103 81 136 39 q 53 176 71 122 q 36 290 36 231 q 69 453 36 374 q 159 596 103 533 q 289 697 215 658 q 444 735 363 735 q 590 685 533 735 q 678 565 646 636 l 711 722 l 774 722 l 617 -14 q 563 -143 601 -87 q 472 -235 525 -199 q 357 -291 419 -272 q 229 -310 294 -310 m 321 49 q 409 66 364 49 q 493 111 454 83 q 561 174 532 139 q 603 243 590 208 l 653 481 q 627 558 646 522 q 581 618 608 593 q 517 658 553 643 q 442 672 481 672 q 310 638 371 672 q 205 549 250 603 q 134 430 160 496 q 108 301 108 364 q 124 204 108 250 q 167 124 139 158 q 233 69 194 89 q 321 49 272 49 z "},"ġ":{"ha":814,"x_min":-40,"x_max":774,"o":"m 229 -310 q 48 -265 110 -310 q -40 -143 -14 -219 l 13 -111 q 100 -219 38 -185 q 242 -253 163 -253 q 343 -237 293 -253 q 434 -192 393 -222 q 505 -118 475 -162 q 547 -14 535 -74 l 581 144 q 518 81 553 110 q 446 32 483 53 q 368 0 408 11 q 290 -11 328 -11 q 183 14 231 -11 q 103 81 136 39 q 53 176 71 122 q 36 290 36 231 q 69 453 36 374 q 159 596 103 533 q 289 697 215 658 q 444 735 363 735 q 590 685 533 735 q 678 565 646 636 l 711 722 l 774 722 l 617 -14 q 563 -143 601 -87 q 472 -235 525 -199 q 357 -291 419 -272 q 229 -310 294 -310 m 321 49 q 409 66 364 49 q 493 111 454 83 q 561 174 532 139 q 603 243 590 208 l 653 481 q 627 558 646 522 q 581 618 608 593 q 517 658 553 643 q 442 672 481 672 q 310 638 371 672 q 205 549 250 603 q 134 430 160 496 q 108 301 108 364 q 124 204 108 250 q 167 124 139 158 q 233 69 194 89 q 321 49 272 49 m 450 889 l 476 1014 l 540 1014 l 514 889 l 450 889 z "},"ß":{"ha":732,"x_min":17,"x_max":686,"o":"m 236 56 q 378 76 315 57 q 487 131 442 96 q 556 218 532 167 q 581 336 581 269 q 530 473 581 422 q 389 524 479 524 l 364 524 l 378 589 l 401 589 q 483 605 444 589 q 551 648 522 621 q 598 712 581 675 q 615 790 615 749 q 574 892 615 854 q 468 929 533 929 q 385 912 424 929 q 316 865 346 894 q 265 793 286 835 q 233 703 243 751 l 83 0 l 17 0 l 168 713 q 210 826 181 775 q 283 915 240 878 q 376 972 325 951 q 485 992 428 992 q 631 940 576 992 q 686 808 686 889 q 669 724 686 765 q 625 649 653 683 q 562 592 597 615 q 490 560 526 568 q 612 483 571 540 q 653 343 653 425 q 622 198 653 261 q 535 90 592 135 q 399 20 479 44 q 222 -8 319 -4 l 236 56 z "},">":{"ha":754,"x_min":106,"x_max":688,"o":"m 688 338 l 106 -10 l 106 67 l 586 360 l 106 653 l 106 728 l 688 379 l 688 338 z "},"«":{"ha":739,"x_min":40,"x_max":694,"o":"m 50 379 l 424 622 l 411 560 l 104 360 l 326 161 l 313 99 l 40 338 l 50 379 m 319 379 l 694 622 l 681 560 l 374 360 l 596 161 l 583 99 l 311 338 l 319 379 z "},"»":{"ha":739,"x_min":19,"x_max":672,"o":"m 663 338 l 290 99 l 303 161 l 610 360 l 388 560 l 400 622 l 672 379 l 663 338 m 393 338 l 19 99 l 33 161 l 340 360 l 118 560 l 131 622 l 401 379 l 393 338 z "},"‹":{"ha":468,"x_min":40,"x_max":424,"o":"m 50 379 l 424 622 l 411 560 l 104 360 l 326 161 l 313 99 l 40 338 l 50 379 z "},"›":{"ha":468,"x_min":19,"x_max":401,"o":"m 393 338 l 19 99 l 33 161 l 340 360 l 118 560 l 131 622 l 401 379 l 393 338 z "},"h":{"ha":767,"x_min":17,"x_max":683,"o":"m 232 1014 l 301 1014 l 203 550 q 347 685 263 635 q 518 735 432 735 q 644 685 606 735 q 683 547 683 636 q 680 485 683 518 q 668 415 676 451 l 581 0 l 511 0 l 596 403 q 610 518 610 468 q 483 671 610 671 q 398 654 442 671 q 313 607 354 638 q 238 535 272 576 q 181 447 203 494 l 86 0 l 17 0 l 232 1014 z "},"ħ":{"ha":767,"x_min":17,"x_max":683,"o":"m 113 910 l 210 910 l 232 1014 l 301 1014 l 279 910 l 432 910 l 421 860 l 268 860 l 203 550 q 347 685 263 635 q 518 735 432 735 q 644 685 606 735 q 683 547 683 636 q 680 485 683 518 q 668 415 676 451 l 581 0 l 511 0 l 596 403 q 610 518 610 467 q 483 671 610 671 q 398 654 442 671 q 313 607 354 638 q 238 535 272 576 q 181 447 203 494 l 86 0 l 17 0 l 199 860 l 103 860 l 113 910 z "},"ĥ":{"ha":767,"x_min":17,"x_max":686,"o":"m 389 901 l 536 1014 l 586 1014 l 686 901 l 642 878 l 550 965 l 424 878 l 389 901 m 232 1014 l 301 1014 l 203 550 q 347 685 263 635 q 518 735 432 735 q 644 685 606 735 q 683 547 683 636 q 680 485 683 518 q 668 415 676 451 l 581 0 l 511 0 l 596 403 q 610 518 610 468 q 483 671 610 671 q 398 654 442 671 q 313 607 354 638 q 238 535 272 576 q 181 447 203 494 l 86 0 l 17 0 l 232 1014 z "},"-":{"ha":563,"x_min":75,"x_max":469,"o":"m 75 346 l 89 410 l 469 410 l 456 346 l 75 346 z "},"i":{"ha":279,"x_min":17,"x_max":301,"o":"m 169 722 l 239 722 l 86 0 l 17 0 l 169 722 m 232 1014 l 301 1014 l 275 886 l 206 886 l 232 1014 z "},"í":{"ha":279,"x_min":17,"x_max":378,"o":"m 236 874 l 193 896 l 299 1014 l 378 1014 l 236 874 m 169 722 l 239 722 l 86 0 l 17 0 l 169 722 z "},"ĭ":{"ha":279,"x_min":17,"x_max":374,"o":"m 169 722 l 239 722 l 86 0 l 17 0 l 169 722 m 235 925 q 290 951 263 925 q 329 1014 318 976 l 374 1014 q 353 964 368 988 q 319 923 339 940 q 275 896 299 906 q 228 886 251 886 q 157 915 183 886 q 131 986 131 943 q 135 1014 131 999 l 181 1014 q 179 994 179 1007 q 195 946 179 967 q 235 925 211 925 z "},"î":{"ha":279,"x_min":17,"x_max":396,"o":"m 89 901 l 240 1014 l 292 1014 l 396 901 l 350 878 l 256 965 l 125 878 l 89 901 m 169 722 l 239 722 l 86 0 l 17 0 l 169 722 z "},"ï":{"ha":279,"x_min":17,"x_max":385,"o":"m 117 889 l 142 1011 l 203 1011 l 176 889 l 117 889 m 299 889 l 325 1011 l 385 1011 l 360 889 l 299 889 m 169 722 l 239 722 l 86 0 l 17 0 l 169 722 z "},"ì":{"ha":279,"x_min":17,"x_max":265,"o":"m 169 722 l 239 722 l 86 0 l 17 0 l 169 722 m 132 1014 l 208 1014 l 265 896 l 214 874 l 132 1014 z "},"ĳ":{"ha":569,"x_min":-6,"x_max":590,"o":"m 169 722 l 239 722 l 86 0 l 17 0 l 169 722 m 232 1014 l 301 1014 l 275 886 l 206 886 l 232 1014 m 128 -246 q 52 -234 86 -246 q -6 -194 18 -222 l 42 -149 q 83 -175 58 -168 q 135 -182 108 -182 q 185 -172 160 -182 q 233 -142 211 -161 q 272 -98 256 -124 q 296 -42 289 -72 l 458 722 l 528 722 l 367 -39 q 332 -122 357 -85 q 274 -187 307 -160 q 202 -231 240 -215 q 128 -246 164 -246 m 521 1014 l 590 1014 l 563 886 l 493 886 l 521 1014 z "},"j":{"ha":290,"x_min":-285,"x_max":311,"o":"m -151 -246 q -227 -234 -193 -246 q -285 -194 -261 -222 l -237 -149 q -196 -175 -221 -168 q -144 -182 -171 -182 q -94 -172 -119 -182 q -46 -142 -68 -161 q -7 -98 -24 -124 q 17 -42 10 -72 l 179 722 l 249 722 l 88 -39 q 53 -122 78 -85 q -6 -187 28 -160 q -77 -231 -39 -215 q -151 -246 -115 -246 m 242 1014 l 311 1014 l 283 886 l 214 886 l 242 1014 z "},"ī":{"ha":279,"x_min":17,"x_max":438,"o":"m 169 722 l 239 722 l 86 0 l 17 0 l 169 722 m 49 932 l 60 983 l 438 983 l 426 932 l 49 932 z "},"į":{"ha":281,"x_min":-99,"x_max":303,"o":"m 171 722 l 240 722 l 88 0 q -20 -78 10 -47 q -50 -142 -50 -110 q 4 -193 -50 -185 l -28 -235 q -81 -206 -64 -226 q -99 -157 -99 -185 q -69 -81 -99 -117 q 31 0 -39 -44 l 18 0 l 171 722 m 233 1014 l 303 1014 l 276 886 l 207 886 l 233 1014 z "},"ĩ":{"ha":279,"x_min":17,"x_max":457,"o":"m 169 722 l 239 722 l 86 0 l 17 0 l 169 722 m 311 899 q 261 907 282 899 q 224 926 240 915 q 192 945 207 936 q 156 954 176 954 q 118 944 133 954 q 94 923 103 935 q 80 901 85 911 q 75 888 75 890 l 28 888 q 38 912 29 893 q 63 951 46 931 q 104 987 79 971 q 165 1003 129 1003 q 210 994 192 1003 q 246 974 229 985 q 279 956 263 964 q 321 947 296 947 q 364 957 347 947 q 391 978 381 967 q 406 1001 401 990 q 411 1014 411 1011 l 457 1014 q 447 988 456 1007 q 422 950 439 969 q 377 915 404 931 q 311 899 350 899 z "},"ĵ":{"ha":279,"x_min":-294,"x_max":390,"o":"m -161 -246 q -237 -234 -203 -246 q -294 -194 -271 -222 l -247 -149 q -206 -175 -231 -168 q -154 -182 -181 -182 q -103 -172 -129 -182 q -56 -142 -78 -161 q -17 -98 -33 -124 q 7 -42 0 -72 l 169 722 l 239 722 l 76 -39 q 42 -122 67 -85 q -15 -187 18 -160 q -87 -231 -49 -215 q -161 -246 -125 -246 m 83 901 l 235 1014 l 286 1014 l 390 901 l 344 878 l 250 965 l 119 878 l 83 901 z "},"k":{"ha":736,"x_min":17,"x_max":711,"o":"m 232 1014 l 301 1014 l 193 501 q 362 674 272 610 q 550 738 451 738 q 670 699 629 738 q 711 592 711 660 q 638 429 711 500 q 432 322 565 358 l 596 0 l 519 0 l 347 354 q 569 446 493 385 q 644 582 644 507 q 615 655 644 631 q 533 679 586 679 q 347 603 442 679 q 169 392 253 528 l 86 0 l 17 0 l 232 1014 z "},"ķ":{"ha":736,"x_min":17,"x_max":711,"o":"m 194 -260 l 235 -165 l 213 -165 l 233 -68 l 300 -68 l 281 -165 l 232 -260 l 194 -260 m 232 1014 l 301 1014 l 193 501 q 362 674 272 610 q 550 738 451 738 q 670 699 629 738 q 711 592 711 660 q 638 429 711 500 q 432 322 565 358 l 596 0 l 519 0 l 347 354 q 569 446 493 385 q 644 582 644 507 q 615 655 644 631 q 533 679 586 679 q 347 603 442 679 q 169 392 253 528 l 86 0 l 17 0 l 232 1014 z "},"ĸ":{"ha":693,"x_min":17,"x_max":732,"o":"m 169 722 l 239 722 l 151 306 l 651 721 l 732 721 l 383 428 l 589 0 l 513 0 l 328 386 l 135 229 l 86 0 l 17 0 l 169 722 z "},"l":{"ha":346,"x_min":43,"x_max":306,"o":"m 143 -8 q 69 17 96 -8 q 43 88 43 43 q 47 122 43 103 l 236 1014 l 306 1014 l 121 143 q 119 131 119 136 q 118 118 118 125 q 135 72 118 89 q 186 56 153 56 q 222 59 201 56 q 261 69 243 63 l 261 14 q 202 -2 238 4 q 143 -8 167 -8 z "},"ĺ":{"ha":346,"x_min":43,"x_max":421,"o":"m 279 1076 l 236 1099 l 342 1217 l 421 1217 l 279 1076 m 143 -8 q 69 17 96 -8 q 43 88 43 43 q 47 122 43 103 l 236 1014 l 306 1014 l 121 143 q 119 131 119 136 q 118 118 118 125 q 135 72 118 89 q 186 56 153 56 q 222 59 201 56 q 261 69 243 63 l 261 14 q 202 -2 238 4 q 143 -8 167 -8 z "},"ľ":{"ha":335,"x_min":43,"x_max":540,"o":"m 356 896 l 461 1014 l 540 1014 l 399 874 l 356 896 m 143 -8 q 69 17 96 -8 q 43 88 43 43 q 47 122 43 103 l 236 1014 l 306 1014 l 121 143 q 119 131 119 136 q 118 118 118 125 q 135 72 118 89 q 186 56 153 56 q 222 59 201 56 q 261 69 243 63 l 261 14 q 202 -2 238 4 q 143 -8 167 -8 z "},"ļ":{"ha":346,"x_min":43,"x_max":306,"o":"m 49 -260 l 89 -165 l 67 -165 l 88 -68 l 154 -68 l 135 -165 l 86 -260 l 49 -260 m 143 -8 q 69 17 96 -8 q 43 88 43 43 q 47 122 43 103 l 236 1014 l 306 1014 l 121 143 q 119 131 119 136 q 118 118 118 125 q 135 72 118 89 q 186 56 153 56 q 222 59 201 56 q 261 69 243 63 l 261 14 q 202 -2 238 4 q 143 -8 167 -8 z "},"ŀ":{"ha":385,"x_min":43,"x_max":383,"o":"m 143 -8 q 69 17 96 -8 q 43 88 43 43 q 47 122 43 103 l 236 1014 l 306 1014 l 121 143 q 119 131 119 136 q 118 118 118 125 q 135 72 118 89 q 186 56 153 56 q 222 59 201 56 q 261 69 243 63 l 261 14 q 202 -2 238 4 q 143 -8 167 -8 m 293 360 l 324 500 l 383 500 l 354 360 l 293 360 z "},"<":{"ha":756,"x_min":43,"x_max":624,"o":"m 43 379 l 624 728 l 624 653 l 143 360 l 624 67 l 624 -10 l 43 338 l 43 379 z "},"¬":{"ha":769,"x_min":110,"x_max":688,"o":"m 688 492 l 621 182 l 560 182 l 613 428 l 110 428 l 124 492 l 688 492 z "},"ł":{"ha":369,"x_min":25,"x_max":406,"o":"m 25 450 l 163 553 l 260 1014 l 329 1014 l 244 615 l 386 722 l 406 681 l 231 550 l 147 154 q 142 118 142 136 q 159 72 142 89 q 208 56 176 56 q 245 59 224 56 q 286 69 267 63 l 286 14 q 226 -2 261 4 q 167 -8 190 -8 q 92 17 118 -8 q 67 86 67 42 q 71 122 67 103 l 149 488 l 43 410 l 25 450 z "},"m":{"ha":1214,"x_min":17,"x_max":1132,"o":"m 169 722 l 235 722 l 197 550 q 338 686 258 638 q 499 735 417 735 q 623 683 583 735 q 663 535 663 631 q 803 684 721 633 q 974 735 886 735 q 1094 688 1057 735 q 1132 556 1132 642 q 1115 415 1132 494 l 1026 0 l 957 0 l 1043 403 q 1057 526 1057 471 q 938 671 1057 671 q 855 654 896 671 q 776 608 814 638 q 706 538 739 579 q 650 446 674 496 l 557 0 l 488 0 l 572 403 q 584 472 581 440 q 588 529 588 503 q 469 671 588 671 q 386 655 428 671 q 307 609 344 639 q 238 538 269 579 q 181 447 206 497 l 86 0 l 17 0 l 169 722 z "},"−":{"ha":763,"x_min":97,"x_max":657,"o":"m 97 368 l 97 426 l 657 426 l 657 368 l 97 368 z "},"µ":{"ha":821,"x_min":-35,"x_max":757,"o":"m 182 722 l 251 722 l 165 315 q 150 197 150 246 q 281 49 150 49 q 367 65 322 49 q 452 109 411 81 q 528 178 493 138 q 589 267 564 218 l 686 722 l 757 722 l 624 97 q 622 83 622 93 q 646 63 622 63 l 631 0 q 570 16 582 0 q 558 56 558 32 q 560 73 558 58 q 565 106 563 88 q 572 142 568 124 q 578 171 575 160 q 513 97 550 131 q 435 38 476 63 q 351 0 394 14 q 264 -14 307 -14 q 162 20 197 -14 q 118 114 126 54 l 35 -294 l -35 -294 l 182 722 z "},"×":{"ha":646,"x_min":92,"x_max":533,"o":"m 533 201 l 488 157 l 313 332 l 136 157 l 92 203 l 267 376 l 92 553 l 138 597 l 313 422 l 488 599 l 532 553 l 357 376 l 533 201 z "},"n":{"ha":767,"x_min":17,"x_max":686,"o":"m 169 722 l 235 722 l 197 550 q 265 626 226 592 q 348 684 304 660 q 438 722 392 708 q 531 735 485 735 q 650 690 614 735 q 686 561 686 646 q 681 493 686 529 q 668 415 676 457 l 581 0 l 511 0 l 596 403 q 608 474 604 442 q 611 532 611 506 q 496 671 611 671 q 407 654 453 671 q 319 607 361 638 q 240 535 276 576 q 181 447 204 494 l 86 0 l 17 0 l 169 722 z "},"ń":{"ha":767,"x_min":17,"x_max":686,"o":"m 503 874 l 460 896 l 565 1014 l 644 1014 l 503 874 m 169 722 l 235 722 l 197 550 q 265 626 226 592 q 348 684 304 660 q 438 722 392 708 q 531 735 485 735 q 650 690 614 735 q 686 561 686 646 q 681 493 686 529 q 668 415 676 457 l 581 0 l 511 0 l 596 403 q 608 474 604 442 q 611 532 611 506 q 496 671 611 671 q 407 654 453 671 q 319 607 361 638 q 240 535 276 576 q 181 447 204 494 l 86 0 l 17 0 l 169 722 z "},"ŉ":{"ha":767,"x_min":-43,"x_max":686,"o":"m -43 896 l 24 971 l 33 1014 l 142 1014 l -1 874 l -43 896 m 169 722 l 235 722 l 197 550 q 265 626 226 592 q 348 684 304 660 q 438 722 392 708 q 531 735 485 735 q 650 690 614 735 q 686 561 686 646 q 681 493 686 529 q 668 415 676 457 l 581 0 l 511 0 l 596 403 q 608 474 604 442 q 611 532 611 506 q 496 671 611 671 q 407 654 453 671 q 319 607 361 638 q 240 535 276 576 q 181 447 204 494 l 86 0 l 17 0 l 169 722 z "},"ň":{"ha":767,"x_min":17,"x_max":686,"o":"m 350 990 l 396 1014 l 490 926 l 621 1014 l 657 990 l 506 878 l 454 878 l 350 990 m 169 722 l 235 722 l 197 550 q 265 626 226 592 q 348 684 304 660 q 438 722 392 708 q 531 735 485 735 q 650 690 614 735 q 686 561 686 646 q 681 493 686 529 q 668 415 676 457 l 581 0 l 511 0 l 596 403 q 608 474 604 442 q 611 532 611 506 q 496 671 611 671 q 407 654 453 671 q 319 607 361 638 q 240 535 276 576 q 181 447 204 494 l 86 0 l 17 0 l 169 722 z "},"ņ":{"ha":767,"x_min":17,"x_max":686,"o":"m 213 -260 l 253 -165 l 231 -165 l 251 -68 l 318 -68 l 299 -165 l 250 -260 l 213 -260 m 169 722 l 235 722 l 197 550 q 265 626 226 592 q 348 684 304 660 q 438 722 392 708 q 531 735 485 735 q 650 690 614 735 q 686 561 686 646 q 681 493 686 529 q 668 415 676 457 l 581 0 l 511 0 l 596 403 q 608 474 604 442 q 611 532 611 506 q 496 671 611 671 q 407 654 453 671 q 319 607 361 638 q 240 535 276 576 q 181 447 204 494 l 86 0 l 17 0 l 169 722 z "},"ṅ":{"ha":767,"x_min":17,"x_max":686,"o":"m 450 889 l 476 1014 l 540 1014 l 514 889 l 450 889 m 169 722 l 235 722 l 197 550 q 265 626 226 592 q 348 684 304 660 q 438 722 392 708 q 531 735 485 735 q 650 690 614 735 q 686 561 686 646 q 681 493 686 529 q 668 415 676 457 l 581 0 l 511 0 l 596 403 q 608 474 604 442 q 611 532 611 506 q 496 671 611 671 q 407 654 453 671 q 319 607 361 638 q 240 535 276 576 q 181 447 204 494 l 86 0 l 17 0 l 169 722 z "},"₉":{"ha":540,"x_min":-15,"x_max":439,"o":"m 8 222 q 30 306 8 267 q 87 375 51 346 q 169 422 122 404 q 265 439 215 439 q 392 392 344 439 q 439 261 439 344 q 417 113 439 182 q 356 -7 396 44 q 263 -88 317 -58 q 142 -118 208 -118 q 40 -92 82 -118 q -15 -17 -3 -65 l 24 14 q 67 -49 32 -26 q 151 -72 101 -72 q 290 -10 229 -72 q 376 165 351 53 q 292 94 346 121 q 181 67 239 67 q 56 111 103 67 q 8 222 8 156 m 254 394 q 181 381 217 394 q 119 346 146 368 q 75 294 92 324 q 58 232 58 264 q 97 145 58 181 q 194 110 135 110 q 267 123 232 110 q 331 158 303 136 q 375 210 358 181 q 392 272 392 240 q 353 358 392 322 q 254 394 314 394 z "},"⁹":{"ha":539,"x_min":131,"x_max":583,"o":"m 154 908 q 175 992 154 953 q 231 1061 196 1032 q 313 1108 267 1090 q 410 1125 360 1125 q 536 1078 489 1125 q 583 947 583 1031 q 562 799 583 868 q 501 678 540 731 q 407 597 461 626 q 286 567 353 567 q 185 594 226 567 q 131 669 143 621 l 168 699 q 213 636 178 660 q 297 613 247 613 q 435 675 374 613 q 521 851 496 738 q 438 779 492 807 q 326 751 383 751 q 201 797 249 751 q 154 908 154 842 m 399 1079 q 326 1066 361 1079 q 264 1031 292 1053 q 219 979 236 1008 q 203 918 203 950 q 241 831 203 867 q 340 796 279 796 q 413 809 378 796 q 475 844 447 822 q 519 896 503 867 q 536 957 536 925 q 498 1043 536 1007 q 399 1079 460 1079 z "},"ñ":{"ha":767,"x_min":17,"x_max":703,"o":"m 169 722 l 235 722 l 197 550 q 265 626 226 592 q 348 684 304 660 q 438 722 392 708 q 531 735 485 735 q 650 690 614 735 q 686 561 686 646 q 681 493 686 529 q 668 415 676 457 l 581 0 l 511 0 l 596 403 q 608 474 604 442 q 611 532 611 506 q 496 671 611 671 q 407 654 453 671 q 319 607 361 638 q 240 535 276 576 q 181 447 204 494 l 86 0 l 17 0 l 169 722 m 557 899 q 507 907 528 899 q 469 926 486 915 q 438 945 453 936 q 401 954 422 954 q 364 944 379 954 q 340 923 349 935 q 326 901 331 911 q 321 888 321 890 l 274 888 q 283 912 275 893 q 308 951 292 931 q 350 987 325 971 q 411 1003 375 1003 q 456 994 438 1003 q 492 974 475 985 q 525 956 508 964 q 567 947 542 947 q 610 957 593 947 q 637 978 626 967 q 652 1001 647 990 q 657 1014 657 1011 l 703 1014 q 693 988 701 1007 q 667 950 685 969 q 623 915 650 931 q 557 899 596 899 z "},"#":{"ha":890,"x_min":26,"x_max":899,"o":"m 886 647 l 721 647 l 592 351 l 768 351 l 757 294 l 565 294 l 436 0 l 375 0 l 507 294 l 235 294 l 106 0 l 44 0 l 175 294 l 26 294 l 39 351 l 203 351 l 331 647 l 157 647 l 169 701 l 357 701 l 482 986 l 543 986 l 415 701 l 688 701 l 813 986 l 874 986 l 746 701 l 899 701 l 886 647 m 532 351 l 661 647 l 390 647 l 261 351 l 532 351 z "},"o":{"ha":790,"x_min":36,"x_max":728,"o":"m 303 -14 q 191 10 240 -14 q 108 74 142 33 q 55 170 74 115 q 36 288 36 225 q 72 456 36 375 q 167 599 107 538 q 303 698 226 661 q 463 735 381 735 q 573 710 524 735 q 656 645 622 686 q 709 549 690 604 q 728 431 728 493 q 692 264 728 344 q 598 122 657 183 q 463 23 539 60 q 303 -14 386 -14 m 315 49 q 440 79 378 49 q 549 161 501 110 q 627 280 597 213 q 657 421 657 347 q 642 519 657 474 q 599 599 626 565 q 533 653 572 633 q 449 672 494 672 q 326 642 386 672 q 217 559 265 611 q 138 439 168 507 q 108 296 108 371 q 124 198 108 243 q 166 119 139 153 q 231 67 193 86 q 315 49 269 49 z "},"ó":{"ha":790,"x_min":36,"x_max":728,"o":"m 486 874 l 443 896 l 549 1014 l 628 1014 l 486 874 m 303 -14 q 191 10 240 -14 q 108 74 142 33 q 55 170 74 115 q 36 288 36 225 q 72 456 36 375 q 167 599 107 538 q 303 698 226 661 q 463 735 381 735 q 573 710 524 735 q 656 645 622 686 q 709 549 690 604 q 728 431 728 493 q 692 264 728 344 q 598 122 657 183 q 463 23 539 60 q 303 -14 386 -14 m 315 49 q 440 79 378 49 q 549 161 501 110 q 627 280 597 213 q 657 421 657 347 q 642 519 657 474 q 599 599 626 565 q 533 653 572 633 q 449 672 494 672 q 326 642 386 672 q 217 559 265 611 q 138 439 168 507 q 108 296 108 371 q 124 198 108 243 q 166 119 139 153 q 231 67 193 86 q 315 49 269 49 z "},"ŏ":{"ha":790,"x_min":36,"x_max":728,"o":"m 303 -14 q 191 10 240 -14 q 108 74 142 33 q 55 170 74 115 q 36 288 36 225 q 72 456 36 375 q 167 599 107 538 q 303 698 226 661 q 463 735 381 735 q 573 710 524 735 q 656 645 622 686 q 709 549 690 604 q 728 431 728 493 q 692 264 728 344 q 598 122 657 183 q 463 23 539 60 q 303 -14 386 -14 m 315 49 q 440 79 378 49 q 549 161 501 110 q 627 280 597 213 q 657 421 657 347 q 642 519 657 474 q 599 599 626 565 q 533 653 572 633 q 449 672 494 672 q 326 642 386 672 q 217 559 265 611 q 138 439 168 507 q 108 296 108 371 q 124 198 108 243 q 166 119 139 153 q 231 67 193 86 q 315 49 269 49 m 494 925 q 550 951 522 925 q 589 1014 578 976 l 633 1014 q 613 964 628 988 q 578 923 599 940 q 535 896 558 906 q 488 886 511 886 q 417 915 443 886 q 390 986 390 943 q 394 1014 390 999 l 440 1014 q 439 994 439 1007 q 455 946 439 967 q 494 925 471 925 z "},"ô":{"ha":790,"x_min":36,"x_max":728,"o":"m 346 901 l 497 1014 l 549 1014 l 653 901 l 607 878 l 513 965 l 382 878 l 346 901 m 303 -14 q 191 10 240 -14 q 108 74 142 33 q 55 170 74 115 q 36 288 36 225 q 72 456 36 375 q 167 599 107 538 q 303 698 226 661 q 463 735 381 735 q 573 710 524 735 q 656 645 622 686 q 709 549 690 604 q 728 431 728 493 q 692 264 728 344 q 598 122 657 183 q 463 23 539 60 q 303 -14 386 -14 m 315 49 q 440 79 378 49 q 549 161 501 110 q 627 280 597 213 q 657 421 657 347 q 642 519 657 474 q 599 599 626 565 q 533 653 572 633 q 449 672 494 672 q 326 642 386 672 q 217 559 265 611 q 138 439 168 507 q 108 296 108 371 q 124 198 108 243 q 166 119 139 153 q 231 67 193 86 q 315 49 269 49 z "},"ö":{"ha":790,"x_min":36,"x_max":728,"o":"m 371 889 l 396 1011 l 457 1011 l 431 889 l 371 889 m 553 889 l 579 1011 l 639 1011 l 614 889 l 553 889 m 303 -14 q 191 10 240 -14 q 108 74 142 33 q 55 170 74 115 q 36 288 36 225 q 72 456 36 375 q 167 599 107 538 q 303 698 226 661 q 463 735 381 735 q 573 710 524 735 q 656 645 622 686 q 709 549 690 604 q 728 431 728 493 q 692 264 728 344 q 598 122 657 183 q 463 23 539 60 q 303 -14 386 -14 m 315 49 q 440 79 378 49 q 549 161 501 110 q 627 280 597 213 q 657 421 657 347 q 642 519 657 474 q 599 599 626 565 q 533 653 572 633 q 449 672 494 672 q 326 642 386 672 q 217 559 265 611 q 138 439 168 507 q 108 296 108 371 q 124 198 108 243 q 166 119 139 153 q 231 67 193 86 q 315 49 269 49 z "},"œ":{"ha":1376,"x_min":36,"x_max":1328,"o":"m 301 -14 q 192 9 242 -14 q 108 72 143 32 q 55 167 74 113 q 36 285 36 222 q 72 458 36 376 q 168 601 108 539 q 305 699 228 663 q 464 735 382 735 q 634 669 568 735 q 710 490 700 603 q 862 670 768 606 q 1065 735 956 735 q 1259 651 1190 735 q 1328 428 1328 568 q 1323 362 1328 382 q 1315 333 1318 342 l 717 333 q 713 285 713 308 q 728 188 713 232 q 774 111 744 143 q 844 60 803 79 q 935 42 885 42 q 1010 52 972 42 q 1081 81 1047 63 q 1142 124 1114 99 q 1188 181 1169 150 l 1244 164 q 1183 91 1219 124 q 1103 35 1146 58 q 1013 -1 1060 13 q 919 -14 965 -14 q 824 3 868 -14 q 744 53 779 21 q 687 131 710 86 q 656 229 664 175 q 583 128 624 174 q 497 52 543 83 q 401 3 451 21 q 301 -14 351 -14 m 315 49 q 441 78 379 49 q 551 160 503 108 q 628 279 599 211 q 657 422 657 347 q 642 521 657 475 q 601 600 628 567 q 535 653 574 633 q 450 672 497 672 q 325 642 386 672 q 216 559 264 611 q 138 438 168 507 q 108 293 108 369 q 123 196 108 240 q 165 119 138 151 q 230 67 192 86 q 315 49 268 49 m 1258 385 q 1263 442 1263 414 q 1247 538 1263 494 q 1205 612 1232 581 q 1138 660 1178 643 q 1051 678 1099 678 q 946 656 997 678 q 851 594 894 633 q 774 502 807 556 q 725 385 742 449 l 1258 385 z "},"ò":{"ha":790,"x_min":36,"x_max":728,"o":"m 303 -14 q 191 10 240 -14 q 108 74 142 33 q 55 170 74 115 q 36 288 36 225 q 72 456 36 375 q 167 599 107 538 q 303 698 226 661 q 463 735 381 735 q 573 710 524 735 q 656 645 622 686 q 709 549 690 604 q 728 431 728 493 q 692 264 728 344 q 598 122 657 183 q 463 23 539 60 q 303 -14 386 -14 m 315 49 q 440 79 378 49 q 549 161 501 110 q 627 280 597 213 q 657 421 657 347 q 642 519 657 474 q 599 599 626 565 q 533 653 572 633 q 449 672 494 672 q 326 642 386 672 q 217 559 265 611 q 138 439 168 507 q 108 296 108 371 q 124 198 108 243 q 166 119 139 153 q 231 67 193 86 q 315 49 269 49 m 422 1014 l 499 1014 l 556 896 l 504 874 l 422 1014 z "},"ő":{"ha":790,"x_min":36,"x_max":728,"o":"m 385 874 l 349 896 l 453 1014 l 524 1014 l 385 874 m 540 874 l 504 896 l 607 1014 l 679 1014 l 540 874 m 303 -14 q 191 10 240 -14 q 108 74 142 33 q 55 170 74 115 q 36 288 36 225 q 72 456 36 375 q 167 599 107 538 q 303 698 226 661 q 463 735 381 735 q 573 710 524 735 q 656 645 622 686 q 709 549 690 604 q 728 431 728 493 q 692 264 728 344 q 598 122 657 183 q 463 23 539 60 q 303 -14 386 -14 m 315 49 q 440 79 378 49 q 549 161 501 110 q 627 280 597 213 q 657 421 657 347 q 642 519 657 474 q 599 599 626 565 q 533 653 572 633 q 449 672 494 672 q 326 642 386 672 q 217 559 265 611 q 138 439 168 507 q 108 296 108 371 q 124 198 108 243 q 166 119 139 153 q 231 67 193 86 q 315 49 269 49 z "},"ō":{"ha":790,"x_min":36,"x_max":728,"o":"m 313 932 l 324 983 l 701 983 l 690 932 l 313 932 m 303 -14 q 191 10 240 -14 q 108 74 142 33 q 55 170 74 115 q 36 288 36 225 q 72 456 36 375 q 167 599 107 538 q 303 698 226 661 q 463 735 381 735 q 573 710 524 735 q 656 645 622 686 q 709 549 690 604 q 728 431 728 493 q 692 264 728 344 q 598 122 657 183 q 463 23 539 60 q 303 -14 386 -14 m 315 49 q 440 79 378 49 q 549 161 501 110 q 627 280 597 213 q 657 421 657 347 q 642 519 657 474 q 599 599 626 565 q 533 653 572 633 q 449 672 494 672 q 326 642 386 672 q 217 559 265 611 q 138 439 168 507 q 108 296 108 371 q 124 198 108 243 q 166 119 139 153 q 231 67 193 86 q 315 49 269 49 z "},"⅛":{"ha":1103,"x_min":53,"x_max":1032,"o":"m 53 29 l 988 990 l 1019 958 l 85 -4 l 53 29 m 356 510 l 346 461 l 89 461 l 99 510 l 207 510 l 301 957 q 276 937 293 949 q 238 915 258 925 q 198 897 218 904 q 161 890 178 890 l 171 939 q 217 950 192 939 q 263 975 242 961 q 298 1001 283 989 q 314 1015 313 1014 l 364 1015 l 256 510 l 356 510 m 753 -6 q 626 34 672 -6 q 579 131 579 74 q 593 189 579 163 q 629 235 607 215 q 680 270 651 256 q 736 293 708 285 q 678 331 701 306 q 656 392 656 356 q 676 456 656 428 q 727 505 696 485 q 797 535 758 525 q 872 546 835 546 q 932 538 903 546 q 983 515 961 531 q 1019 478 1006 500 q 1032 429 1032 457 q 992 344 1032 378 q 900 293 953 310 q 971 247 943 278 q 999 172 999 217 q 978 99 999 132 q 922 44 957 67 q 843 8 888 21 q 753 -6 799 -6 m 767 42 q 830 51 797 42 q 889 76 863 60 q 932 117 915 93 q 949 171 949 142 q 937 213 949 194 q 906 244 925 232 q 863 264 888 257 q 813 271 838 271 q 748 261 781 271 q 689 234 715 251 q 646 192 663 217 q 629 139 629 168 q 641 97 629 115 q 672 67 653 79 q 717 48 692 54 q 767 42 742 42 m 822 313 q 876 320 849 313 q 928 341 904 328 q 967 374 951 354 q 982 418 982 393 q 946 478 982 457 q 861 500 910 500 q 803 492 832 500 q 753 471 775 485 q 718 438 732 457 q 704 393 704 418 q 715 359 704 374 q 742 334 725 344 q 780 318 758 324 q 822 313 801 313 z "},"¹":{"ha":351,"x_min":100,"x_max":375,"o":"m 367 621 l 357 572 l 100 572 l 110 621 l 218 621 l 313 1068 q 287 1048 304 1060 q 249 1026 269 1036 q 209 1008 229 1015 q 172 1001 189 1001 l 182 1050 q 228 1061 203 1050 q 274 1086 253 1072 q 309 1113 294 1100 q 325 1126 324 1125 l 375 1126 l 267 621 l 367 621 z "},"½":{"ha":1104,"x_min":35,"x_max":1047,"o":"m 565 0 q 641 162 588 106 q 782 250 694 218 q 854 275 817 263 q 922 305 892 288 q 972 348 953 322 q 992 413 992 374 q 965 478 992 451 q 878 506 938 506 q 816 497 844 506 q 765 477 788 489 q 724 451 742 465 q 694 425 707 438 l 668 460 q 691 481 674 465 q 738 512 708 496 q 806 540 767 528 q 893 553 844 553 q 1010 515 972 553 q 1047 424 1047 478 q 1028 346 1047 378 q 978 292 1010 314 q 907 253 947 269 q 822 222 867 238 q 742 183 774 206 q 690 138 710 161 q 661 90 671 114 q 647 47 651 67 l 972 47 l 961 0 l 565 0 m 35 29 l 969 990 l 1001 958 l 67 -4 l 35 29 m 358 510 l 349 461 l 92 461 l 101 510 l 210 510 l 304 957 q 278 937 296 949 q 241 915 261 925 q 201 897 221 904 q 164 890 181 890 l 174 939 q 219 950 194 939 q 265 975 244 961 q 301 1001 286 989 q 317 1015 315 1014 l 367 1015 l 258 510 l 358 510 z "},"₂":{"ha":511,"x_min":-60,"x_max":429,"o":"m -60 -111 q 17 51 -37 -6 q 160 139 71 107 q 233 164 194 151 q 302 194 271 176 q 353 237 333 211 q 374 301 374 263 q 346 367 374 340 q 257 394 318 394 q 194 386 222 394 q 142 366 165 378 q 101 340 118 354 q 71 314 83 326 l 44 349 q 68 369 50 354 q 115 401 86 385 q 184 429 144 417 q 272 442 224 442 q 392 404 354 442 q 429 313 429 367 q 410 235 429 267 q 359 180 390 203 q 286 141 328 157 q 201 111 244 125 q 119 72 151 94 q 67 26 86 50 q 38 -21 47 3 q 24 -64 28 -44 l 353 -64 l 342 -111 l -60 -111 z "},"₁":{"ha":365,"x_min":-46,"x_max":236,"o":"m 236 -64 l 226 -111 l -46 -111 l -36 -64 l 79 -64 l 174 385 q 147 364 165 375 q 108 342 129 353 q 65 325 88 332 q 26 318 43 318 l 36 367 q 84 378 58 367 q 132 403 110 389 q 169 429 154 417 q 186 443 185 442 l 236 443 l 129 -64 l 236 -64 z "},"¼":{"ha":1053,"x_min":74,"x_max":1040,"o":"m 821 147 l 518 147 l 528 192 l 921 546 l 954 546 l 879 194 l 954 194 l 944 147 l 869 147 l 838 0 l 790 0 l 821 147 m 832 194 l 892 475 l 583 194 l 832 194 m 74 29 l 1008 990 l 1040 958 l 106 -4 l 74 29 m 353 510 l 343 461 l 86 461 l 96 510 l 204 510 l 299 957 q 273 937 290 949 q 235 915 256 925 q 195 897 215 904 q 158 890 175 890 l 168 939 q 214 950 189 939 q 260 975 239 961 q 295 1001 281 989 q 311 1015 310 1014 l 361 1015 l 253 510 l 353 510 z "},"⅓":{"ha":1104,"x_min":39,"x_max":1036,"o":"m 39 29 l 974 990 l 1006 958 l 71 -4 l 39 29 m 358 510 l 349 461 l 92 461 l 101 510 l 210 510 l 304 957 q 278 937 296 949 q 241 915 261 925 q 201 897 221 904 q 164 890 181 890 l 174 939 q 219 950 194 939 q 265 975 244 961 q 301 1001 286 989 q 317 1015 315 1014 l 367 1015 l 258 510 l 358 510 m 754 -7 q 690 1 721 -7 q 634 24 658 8 q 594 65 610 40 q 579 121 579 89 l 617 149 q 655 75 617 108 q 764 42 693 42 q 833 51 800 42 q 892 76 867 60 q 931 113 917 92 q 946 161 946 135 q 900 231 946 206 q 772 257 854 257 l 742 257 l 751 301 l 781 301 q 929 330 875 301 q 983 415 983 358 q 947 483 983 457 q 857 508 911 508 q 756 486 801 508 q 685 428 711 464 l 660 464 q 747 528 690 504 q 865 553 803 553 q 990 516 943 553 q 1036 424 1036 479 q 888 281 1036 313 q 967 240 939 272 q 996 164 996 208 q 976 93 996 125 q 922 39 956 61 q 844 5 888 17 q 754 -7 800 -7 z "},"₃":{"ha":515,"x_min":-37,"x_max":419,"o":"m 138 -118 q 73 -111 104 -118 q 17 -90 42 -104 q -22 -51 -7 -75 q -37 10 -37 -26 l 0 38 q 38 -38 0 -7 q 147 -69 76 -69 q 217 -60 183 -69 q 275 -35 250 -51 q 315 2 300 -19 q 329 50 329 24 q 283 120 329 94 q 156 146 236 146 l 125 146 l 135 190 l 164 190 q 313 219 258 190 q 367 304 367 247 q 331 372 367 346 q 240 397 294 397 q 140 375 185 397 q 68 317 94 353 l 43 353 q 130 417 74 393 q 249 442 186 442 q 373 405 326 442 q 419 313 419 368 q 271 169 419 201 q 351 129 322 161 q 379 53 379 97 q 359 -18 379 14 q 305 -72 339 -50 q 227 -106 271 -94 q 138 -118 183 -118 z "},"ǫ":{"ha":790,"x_min":36,"x_max":728,"o":"m 235 -244 q 181 -215 199 -236 q 164 -167 164 -194 q 192 -93 164 -128 q 286 -14 219 -58 q 181 14 228 -11 q 103 80 135 39 q 53 174 71 121 q 36 288 36 228 q 72 456 36 375 q 167 599 107 538 q 303 698 226 661 q 463 735 381 735 q 573 710 524 735 q 656 645 622 686 q 709 549 690 604 q 728 431 728 493 q 697 274 728 350 q 613 139 665 199 q 492 39 561 79 q 347 -11 424 -1 q 283 -53 308 -35 q 241 -87 257 -71 q 219 -119 225 -104 q 213 -151 213 -135 q 267 -203 213 -194 l 235 -244 m 315 49 q 440 79 378 49 q 549 161 501 110 q 627 280 597 213 q 657 421 657 347 q 642 519 657 474 q 599 599 626 565 q 533 653 572 633 q 449 672 494 672 q 326 642 386 672 q 217 559 265 611 q 138 439 168 507 q 108 296 108 371 q 124 198 108 243 q 166 119 139 153 q 231 67 193 86 q 315 49 269 49 z "},"ª":{"ha":569,"x_min":106,"x_max":551,"o":"m 233 483 q 140 519 175 483 q 106 608 106 556 q 124 678 106 646 q 174 733 142 710 q 247 769 206 756 q 338 782 289 782 q 410 776 375 782 q 472 757 444 769 l 481 800 q 485 836 485 818 q 457 909 485 882 q 378 936 429 936 q 214 879 308 936 l 200 922 q 393 986 306 986 q 510 950 468 986 q 551 847 551 914 q 546 792 551 818 l 500 579 q 499 569 499 576 q 517 551 499 554 l 504 492 q 452 506 464 492 q 440 549 440 519 q 440 560 440 554 q 442 574 440 567 q 346 506 400 529 q 233 483 292 483 m 261 536 q 321 544 290 536 q 378 566 351 553 q 423 598 404 579 q 446 638 442 617 l 463 714 q 403 733 435 728 q 339 738 372 738 q 219 706 267 738 q 171 621 171 674 q 196 560 171 585 q 261 536 221 536 z "},"º":{"ha":599,"x_min":122,"x_max":607,"o":"m 310 483 q 231 499 265 483 q 172 544 196 515 q 135 609 147 572 q 122 688 122 646 q 147 800 122 746 q 211 895 171 854 q 305 961 251 936 q 417 986 358 986 q 495 970 460 986 q 556 926 531 954 q 594 861 581 899 q 607 781 607 824 q 583 670 607 724 q 517 575 558 617 q 423 508 476 533 q 310 483 369 483 m 321 535 q 403 554 363 535 q 475 606 443 574 q 526 682 507 639 q 546 772 546 725 q 507 886 546 840 q 406 932 468 932 q 324 913 364 932 q 253 862 285 894 q 201 786 221 829 q 182 694 182 743 q 220 581 182 626 q 321 535 258 535 z "},"ø":{"ha":790,"x_min":36,"x_max":728,"o":"m 113 68 q 56 165 75 108 q 36 288 36 222 q 72 456 36 375 q 167 599 108 538 q 303 698 226 661 q 463 735 381 735 q 622 678 557 735 l 664 724 l 717 724 l 650 651 q 708 553 688 610 q 728 431 728 496 q 692 264 728 344 q 599 122 657 183 q 464 23 540 60 q 304 -14 388 -14 q 142 40 208 -14 l 103 -1 l 50 -1 l 113 68 m 315 49 q 440 79 378 49 q 549 161 501 110 q 627 280 597 213 q 657 421 657 347 q 642 517 657 472 q 601 596 628 563 l 188 96 q 246 61 214 74 q 315 49 278 49 m 108 296 q 164 122 108 190 l 575 624 q 518 660 550 647 q 449 672 486 672 q 325 642 386 672 q 216 559 264 611 q 138 439 168 507 q 108 296 108 371 z "},"ǿ":{"ha":790,"x_min":36,"x_max":728,"o":"m 113 68 q 56 165 75 108 q 36 288 36 222 q 72 456 36 375 q 167 599 108 538 q 303 698 226 661 q 463 735 381 735 q 622 678 557 735 l 664 724 l 717 724 l 650 651 q 708 553 688 610 q 728 431 728 496 q 692 264 728 344 q 599 122 657 183 q 464 23 540 60 q 304 -14 388 -14 q 142 40 208 -14 l 103 -1 l 50 -1 l 113 68 m 315 49 q 440 79 378 49 q 549 161 501 110 q 627 280 597 213 q 657 421 657 347 q 642 517 657 472 q 601 596 628 563 l 188 96 q 246 61 214 74 q 315 49 278 49 m 108 296 q 164 122 108 190 l 575 624 q 518 660 550 647 q 449 672 486 672 q 325 642 386 672 q 216 559 264 611 q 138 439 168 507 q 108 296 108 371 m 486 874 l 443 896 l 549 1014 l 628 1014 l 486 874 z "},"õ":{"ha":790,"x_min":36,"x_max":728,"o":"m 303 -14 q 191 10 240 -14 q 108 74 142 33 q 55 170 74 115 q 36 288 36 225 q 72 456 36 375 q 167 599 107 538 q 303 698 226 661 q 463 735 381 735 q 573 710 524 735 q 656 645 622 686 q 709 549 690 604 q 728 431 728 493 q 692 264 728 344 q 598 122 657 183 q 463 23 539 60 q 303 -14 386 -14 m 315 49 q 440 79 378 49 q 549 161 501 110 q 627 280 597 213 q 657 421 657 347 q 642 519 657 474 q 599 599 626 565 q 533 653 572 633 q 449 672 494 672 q 326 642 386 672 q 217 559 265 611 q 138 439 168 507 q 108 296 108 371 q 124 198 108 243 q 166 119 139 153 q 231 67 193 86 q 315 49 269 49 m 571 899 q 521 907 542 899 q 483 926 500 915 q 451 945 467 936 q 415 954 436 954 q 378 944 393 954 q 353 923 363 935 q 340 901 344 911 q 335 888 335 890 l 288 888 q 297 912 289 893 q 322 951 306 931 q 364 987 339 971 q 425 1003 389 1003 q 470 994 451 1003 q 506 974 489 985 q 539 956 522 964 q 581 947 556 947 q 624 957 607 947 q 651 978 640 967 q 666 1001 661 990 q 671 1014 671 1011 l 717 1014 q 707 988 715 1007 q 681 950 699 969 q 637 915 664 931 q 571 899 610 899 z "},"p":{"ha":815,"x_min":-46,"x_max":753,"o":"m 171 722 l 233 722 l 203 578 q 338 691 260 647 q 496 735 417 735 q 605 710 557 735 q 685 642 653 685 q 735 544 718 600 q 753 429 753 489 q 721 266 753 346 q 634 124 689 186 q 506 24 579 61 q 350 -14 432 -14 q 204 35 263 -14 q 119 156 146 85 l 24 -296 l -46 -296 l 171 722 m 347 49 q 476 82 415 49 q 582 168 536 115 q 654 287 628 221 q 681 419 681 353 q 665 517 681 471 q 622 597 650 563 q 556 652 594 632 q 468 672 517 672 q 389 656 432 672 q 306 613 346 640 q 233 551 265 586 q 188 478 200 517 l 136 240 q 163 165 144 200 q 209 104 182 131 q 272 63 236 78 q 347 49 307 49 z "},"¶":{"ha":785,"x_min":89,"x_max":840,"o":"m 89 589 q 121 751 89 678 q 212 877 153 825 q 354 958 271 929 q 540 986 438 986 l 840 986 l 828 929 l 736 929 l 514 -111 l 453 -111 l 547 329 l 442 329 l 347 -111 l 286 -111 l 379 329 q 165 401 240 332 q 89 589 89 469 m 151 603 q 170 509 151 549 q 221 444 189 469 q 297 404 253 418 q 392 388 342 390 l 507 929 q 356 904 422 929 q 244 836 290 879 q 175 733 199 793 q 151 603 151 674 m 674 929 l 569 929 l 454 388 l 558 388 l 674 929 z "},"(":{"ha":347,"x_min":64,"x_max":422,"o":"m 64 358 q 88 535 64 451 q 155 700 113 619 q 254 859 197 781 q 375 1019 311 938 l 422 992 q 327 867 378 939 q 233 712 276 794 q 160 541 189 629 q 131 369 131 453 q 135 277 131 326 q 150 178 140 228 q 174 78 160 128 q 207 -15 188 29 l 150 -46 q 87 156 110 49 q 64 358 64 263 z "},")":{"ha":347,"x_min":-44,"x_max":311,"o":"m 311 601 q 289 435 311 517 q 226 274 267 354 q 128 115 185 194 q 1 -46 71 36 l -44 -15 q 72 135 19 60 q 163 286 125 210 q 222 438 201 363 q 243 589 243 514 q 237 699 243 642 q 220 810 231 756 q 196 911 210 864 q 168 992 182 958 l 228 1019 q 288 814 264 922 q 311 601 311 706 z "},"%":{"ha":933,"x_min":-1,"x_max":965,"o":"m 293 607 q 180 653 222 607 q 138 768 138 700 q 158 857 138 815 q 211 931 178 899 q 288 981 244 963 q 376 1000 331 1000 q 490 953 447 1000 q 532 838 532 907 q 512 749 532 792 q 458 676 492 707 q 382 626 425 644 q 293 607 339 607 m 303 651 q 367 667 336 651 q 423 707 399 682 q 462 765 447 732 q 476 832 476 797 q 445 920 476 885 q 367 956 414 956 q 302 940 333 956 q 247 900 271 925 q 208 842 222 875 q 193 775 193 810 q 224 687 193 722 q 303 651 254 651 m 589 -14 q 476 33 519 -14 q 433 149 433 79 q 454 237 433 194 q 508 310 475 279 q 585 360 542 342 q 672 379 628 379 q 784 333 742 379 q 826 218 826 286 q 806 129 826 171 q 753 56 786 88 q 677 5 719 24 q 589 -14 635 -14 m 597 31 q 662 46 631 31 q 717 86 693 61 q 757 143 742 111 q 772 210 772 175 q 741 299 772 263 q 663 335 710 335 q 598 319 629 335 q 542 279 567 304 q 503 222 518 254 q 488 154 488 189 q 518 66 488 101 q 597 31 549 31 m -1 29 l 933 990 l 965 958 l 31 -4 l -1 29 z "},".":{"ha":246,"x_min":6,"x_max":92,"o":"m 6 0 l 32 118 l 92 118 l 67 0 l 6 0 z "},"‰":{"ha":1382,"x_min":7,"x_max":1290,"o":"m 304 607 q 189 653 232 607 q 146 767 146 700 q 167 856 146 814 q 221 931 188 899 q 297 981 254 963 q 383 1000 339 1000 q 497 953 454 1000 q 540 839 540 907 q 519 750 540 792 q 465 676 499 708 q 390 626 432 644 q 304 607 347 607 m 314 651 q 376 667 346 651 q 431 707 407 682 q 470 765 456 732 q 485 833 485 797 q 453 920 485 885 q 372 956 421 956 q 310 940 340 956 q 256 899 279 925 q 217 841 232 874 q 201 774 201 808 q 233 687 201 722 q 314 651 264 651 m 600 -14 q 485 33 528 -14 q 442 147 442 79 q 462 236 442 194 q 515 310 482 278 q 591 360 549 342 q 678 379 633 379 q 792 333 750 379 q 835 218 835 286 q 815 129 835 171 q 761 56 794 88 q 685 5 728 24 q 600 -14 643 -14 m 608 31 q 671 46 640 31 q 726 86 701 61 q 765 144 750 111 q 781 213 781 176 q 749 299 781 263 q 668 335 718 335 q 606 319 636 335 q 551 279 575 304 q 511 221 526 254 q 496 153 496 188 q 526 66 496 101 q 608 31 557 31 m 1056 -14 q 940 32 983 -14 q 897 147 897 78 q 918 236 897 194 q 972 310 939 278 q 1048 360 1006 342 q 1135 379 1090 379 q 1248 333 1206 379 q 1290 218 1290 286 q 1270 129 1290 171 q 1217 56 1250 88 q 1141 5 1183 24 q 1056 -14 1099 -14 m 1064 31 q 1127 46 1096 31 q 1183 86 1158 61 q 1222 144 1207 111 q 1236 211 1236 176 q 1205 299 1236 263 q 1124 335 1174 335 q 1061 319 1092 335 q 1006 279 1031 304 q 967 221 982 254 q 953 153 953 188 q 983 66 953 101 q 1064 31 1014 31 m 7 29 l 942 990 l 974 958 l 39 -4 l 7 29 z "},"+":{"ha":574,"x_min":86,"x_max":513,"o":"m 513 522 l 513 464 l 332 464 l 332 268 l 268 268 l 268 464 l 86 464 l 86 522 l 268 522 l 268 718 l 332 718 l 332 522 l 513 522 z "},"±":{"ha":672,"x_min":99,"x_max":535,"o":"m 99 97 l 99 157 l 535 157 l 535 97 l 99 97 m 535 531 l 535 471 l 350 471 l 350 271 l 285 271 l 285 471 l 99 471 l 99 531 l 285 531 l 285 731 l 350 731 l 350 531 l 535 531 z "},"q":{"ha":814,"x_min":36,"x_max":774,"o":"m 281 -14 q 176 10 221 -14 q 99 76 131 35 q 52 170 68 117 q 36 283 36 224 q 72 453 36 372 q 167 597 108 535 q 300 697 225 660 q 454 735 375 735 q 594 690 535 735 q 679 576 654 644 l 710 722 l 774 722 l 579 -196 q 576 -210 576 -207 q 599 -232 576 -231 l 586 -293 q 581 -294 583 -293 q 575 -294 578 -294 q 523 -281 544 -294 q 501 -237 501 -268 q 504 -221 501 -232 l 583 156 q 281 -14 442 -14 m 311 49 q 395 64 354 49 q 473 104 436 79 q 542 163 510 129 q 600 235 574 197 l 653 479 q 633 553 649 518 q 591 615 617 589 q 530 657 565 642 q 453 672 494 672 q 323 639 385 672 q 213 552 261 606 q 137 431 165 499 q 108 294 108 364 q 122 200 108 244 q 163 122 136 156 q 226 68 189 88 q 311 49 264 49 z "},"?":{"ha":632,"x_min":126,"x_max":651,"o":"m 182 268 q 244 428 204 375 q 346 514 285 482 q 424 553 382 533 q 503 601 467 572 q 563 673 539 629 q 586 783 586 717 q 540 900 586 861 q 431 939 494 939 q 288 897 357 939 q 175 789 219 856 l 131 819 q 195 896 158 863 q 273 952 232 929 q 358 987 314 975 q 444 999 403 999 q 524 985 486 999 q 590 947 561 972 q 635 882 618 921 q 651 792 651 843 q 630 671 651 719 q 573 588 608 622 q 493 529 538 553 q 401 485 449 506 q 353 458 376 474 q 308 419 329 443 q 271 359 288 396 q 243 268 254 322 l 182 268 m 126 0 l 156 136 l 215 136 l 188 0 l 126 0 z "},"¿":{"ha":625,"x_min":-51,"x_max":474,"o":"m 418 435 q 391 342 407 381 q 355 274 375 303 q 310 226 335 246 q 254 189 285 206 q 176 150 218 169 q 97 102 133 131 q 38 30 61 74 q 14 -81 14 -14 q 60 -197 14 -158 q 169 -236 106 -236 q 312 -194 243 -236 q 425 -86 381 -153 l 469 -117 q 405 -193 442 -160 q 327 -249 368 -226 q 242 -284 286 -272 q 156 -296 197 -296 q 76 -283 114 -296 q 10 -244 39 -269 q -35 -179 -18 -218 q -51 -89 -51 -140 q -30 32 -51 -17 q 27 115 -8 81 q 107 174 63 150 q 199 218 151 197 q 247 244 224 229 q 292 283 271 260 q 329 344 313 307 q 357 435 346 381 l 418 435 m 474 703 l 444 567 l 385 567 l 413 703 l 474 703 z "},"\"":{"ha":360,"x_min":164,"x_max":383,"o":"m 164 750 l 215 992 l 278 992 l 225 750 l 164 750 m 269 750 l 321 992 l 383 992 l 332 750 l 269 750 z "},"„":{"ha":465,"x_min":18,"x_max":274,"o":"m 18 -129 l 65 0 l 39 0 l 67 128 l 138 128 l 110 0 l 56 -129 l 18 -129 m 153 -129 l 200 0 l 175 0 l 201 128 l 274 128 l 246 0 l 190 -129 l 153 -129 z "},"‚":{"ha":329,"x_min":18,"x_max":138,"o":"m 18 -129 l 65 0 l 39 0 l 67 128 l 138 128 l 110 0 l 56 -129 l 18 -129 z "},"“":{"ha":392,"x_min":158,"x_max":419,"o":"m 281 1014 l 232 876 l 257 876 l 231 750 l 158 750 l 186 876 l 243 1014 l 281 1014 m 419 1014 l 371 876 l 396 876 l 369 750 l 297 750 l 325 876 l 382 1014 l 419 1014 z "},"‘":{"ha":251,"x_min":158,"x_max":281,"o":"m 281 1014 l 232 876 l 257 876 l 231 750 l 158 750 l 186 876 l 243 1014 l 281 1014 z "},"”":{"ha":385,"x_min":164,"x_max":425,"o":"m 164 750 l 213 886 l 188 886 l 214 1014 l 286 1014 l 258 886 l 201 750 l 164 750 m 304 750 l 351 886 l 326 886 l 353 1014 l 425 1014 l 397 886 l 340 750 l 304 750 z "},"’":{"ha":246,"x_min":164,"x_max":286,"o":"m 164 750 l 213 888 l 188 888 l 214 1014 l 286 1014 l 258 888 l 201 750 l 164 750 z "},"'":{"ha":253,"x_min":164,"x_max":278,"o":"m 164 749 l 215 992 l 278 992 l 225 749 l 164 749 z "},"r":{"ha":463,"x_min":17,"x_max":497,"o":"m 169 722 l 236 722 l 197 544 q 331 676 256 628 q 478 724 407 724 q 497 722 492 724 l 483 660 q 310 602 390 657 q 182 451 231 547 l 86 0 l 17 0 l 169 722 z "},"ŕ":{"ha":463,"x_min":17,"x_max":497,"o":"m 336 874 l 293 896 l 399 1014 l 478 1014 l 336 874 m 169 722 l 236 722 l 197 544 q 331 676 256 628 q 478 724 407 724 q 497 722 492 724 l 483 660 q 310 602 390 657 q 182 451 231 547 l 86 0 l 17 0 l 169 722 z "},"ř":{"ha":463,"x_min":17,"x_max":519,"o":"m 213 990 l 258 1014 l 353 926 l 483 1014 l 519 990 l 368 878 l 317 878 l 213 990 m 169 722 l 236 722 l 197 544 q 331 676 256 628 q 478 724 407 724 q 497 722 492 724 l 483 660 q 310 602 390 657 q 182 451 231 547 l 86 0 l 17 0 l 169 722 z "},"ŗ":{"ha":463,"x_min":-42,"x_max":497,"o":"m -42 -260 l -1 -165 l -24 -165 l -3 -68 l 64 -68 l 44 -165 l -4 -260 l -42 -260 m 169 722 l 236 722 l 197 544 q 331 676 256 628 q 478 724 407 724 q 497 722 492 724 l 483 660 q 310 602 390 657 q 182 451 231 547 l 86 0 l 17 0 l 169 722 z "},"®":{"ha":1169,"x_min":93,"x_max":1108,"o":"m 600 -10 q 397 28 490 -10 q 237 134 304 67 q 131 293 169 201 q 93 493 93 385 q 131 692 93 600 q 237 850 169 783 q 397 955 304 917 q 600 993 490 993 q 801 955 708 993 q 963 850 894 917 q 1069 692 1031 783 q 1108 493 1108 600 q 1069 293 1108 385 q 963 134 1031 201 q 801 28 894 67 q 600 -10 708 -10 m 600 29 q 783 63 699 29 q 931 157 868 96 q 1029 303 993 218 q 1065 493 1065 389 q 1031 676 1065 592 q 933 822 996 760 q 785 919 871 883 q 600 954 700 954 q 415 919 500 954 q 267 822 329 883 q 169 676 204 760 q 135 493 135 592 q 169 308 135 393 q 266 162 204 224 q 413 65 328 100 q 600 29 499 29 m 392 807 l 656 807 q 730 790 696 807 q 788 744 764 772 q 826 681 813 717 q 840 610 840 646 q 829 543 840 575 q 799 485 818 511 q 751 442 779 460 q 689 421 722 425 l 847 174 l 783 174 l 631 414 l 449 414 l 449 174 l 392 174 l 392 807 m 657 464 q 752 507 719 464 q 785 610 785 550 q 747 713 785 672 q 651 754 710 754 l 449 754 l 449 464 l 657 464 z "},"s":{"ha":640,"x_min":-24,"x_max":613,"o":"m 232 -14 q 85 14 153 -14 q -24 97 18 42 l 19 144 q 119 67 65 92 q 243 42 172 42 q 335 54 293 42 q 409 89 378 67 q 458 143 440 111 q 475 215 475 175 q 426 293 475 268 q 288 342 378 318 q 203 367 239 354 q 142 395 167 379 q 106 433 118 411 q 93 488 93 456 q 118 594 93 547 q 185 672 143 640 q 281 719 226 703 q 396 735 336 735 q 533 706 476 735 q 613 633 589 678 l 567 596 q 492 658 543 638 q 379 679 442 679 q 297 669 336 679 q 228 637 258 658 q 181 583 199 615 q 163 506 163 550 q 172 466 163 482 q 201 438 182 450 q 249 417 219 426 q 317 399 278 408 q 413 371 371 385 q 485 338 456 357 q 531 294 515 319 q 546 232 546 268 q 522 133 546 178 q 457 55 499 88 q 358 4 415 22 q 232 -14 300 -14 z "},"ﬆ":{"ha":1051,"x_min":-14,"x_max":1054,"o":"m 239 -14 q 88 18 153 -14 q -14 94 24 50 l 29 142 q 251 42 121 42 q 331 51 290 42 q 406 82 372 61 q 462 134 440 103 q 483 210 483 165 q 454 283 483 260 q 381 317 425 306 q 285 334 336 328 q 189 356 233 340 q 115 401 144 371 q 86 493 86 432 q 114 603 86 557 q 185 678 142 649 q 282 721 229 707 q 386 735 335 735 q 472 724 432 735 q 539 692 511 714 q 528 749 533 721 q 522 808 522 776 q 534 890 522 849 q 575 965 546 932 q 653 1019 604 999 q 775 1040 701 1040 q 892 1009 861 1040 q 924 915 924 978 q 915 831 924 878 q 896 722 907 783 l 1054 722 l 1042 665 l 883 665 l 771 138 q 769 126 769 131 q 768 119 768 122 q 789 72 768 88 q 842 57 810 57 q 878 61 860 57 q 912 72 896 65 q 938 83 928 78 q 953 90 949 88 l 961 35 q 940 24 954 32 q 904 10 925 17 q 859 -3 883 3 q 810 -8 835 -8 q 727 17 760 -8 q 694 88 694 42 q 696 110 694 99 q 700 133 697 122 l 814 665 l 717 665 l 729 722 l 826 722 q 846 829 839 785 q 853 906 853 874 q 830 978 853 958 q 754 997 807 997 q 660 981 697 997 q 601 937 622 964 q 571 874 579 910 q 563 803 563 839 q 576 697 563 742 q 597 635 590 653 l 551 596 q 474 663 522 646 q 378 679 426 679 q 297 670 338 679 q 225 641 257 661 q 173 590 193 621 q 153 513 153 558 q 183 435 153 460 q 257 399 213 410 q 353 381 301 388 q 449 361 404 375 q 523 317 493 347 q 553 225 553 286 q 524 119 553 164 q 449 44 494 74 q 349 1 404 15 q 239 -14 293 -14 z "},"ś":{"ha":640,"x_min":-24,"x_max":613,"o":"m 404 874 l 361 896 l 467 1014 l 546 1014 l 404 874 m 232 -14 q 85 14 153 -14 q -24 97 18 42 l 19 144 q 119 67 65 92 q 243 42 172 42 q 335 54 293 42 q 409 89 378 67 q 458 143 440 111 q 475 215 475 175 q 426 293 475 268 q 288 342 378 318 q 203 367 239 354 q 142 395 167 379 q 106 433 118 411 q 93 488 93 456 q 118 594 93 547 q 185 672 143 640 q 281 719 226 703 q 396 735 336 735 q 533 706 476 735 q 613 633 589 678 l 567 596 q 492 658 543 638 q 379 679 442 679 q 297 669 336 679 q 228 637 258 658 q 181 583 199 615 q 163 506 163 550 q 172 466 163 482 q 201 438 182 450 q 249 417 219 426 q 317 399 278 408 q 413 371 371 385 q 485 338 456 357 q 531 294 515 319 q 546 232 546 268 q 522 133 546 178 q 457 55 499 88 q 358 4 415 22 q 232 -14 300 -14 z "},"š":{"ha":640,"x_min":-24,"x_max":613,"o":"m 286 990 l 332 1014 l 426 926 l 557 1014 l 593 990 l 442 878 l 390 878 l 286 990 m 232 -14 q 85 14 153 -14 q -24 97 18 42 l 19 144 q 119 67 65 92 q 243 42 172 42 q 335 54 293 42 q 409 89 378 67 q 458 143 440 111 q 475 215 475 175 q 426 293 475 268 q 288 342 378 318 q 203 367 239 354 q 142 395 167 379 q 106 433 118 411 q 93 488 93 456 q 118 594 93 547 q 185 672 143 640 q 281 719 226 703 q 396 735 336 735 q 533 706 476 735 q 613 633 589 678 l 567 596 q 492 658 543 638 q 379 679 442 679 q 297 669 336 679 q 228 637 258 658 q 181 583 199 615 q 163 506 163 550 q 172 466 163 482 q 201 438 182 450 q 249 417 219 426 q 317 399 278 408 q 413 371 371 385 q 485 338 456 357 q 531 294 515 319 q 546 232 546 268 q 522 133 546 178 q 457 55 499 88 q 358 4 415 22 q 232 -14 300 -14 z "},"ə":{"ha":772,"x_min":18,"x_max":711,"o":"m 288 -14 q 176 8 225 -14 q 91 67 126 29 q 37 158 56 106 q 18 272 18 211 q 22 330 18 299 q 35 386 25 361 l 635 386 q 639 439 639 413 q 624 535 639 490 q 581 610 608 579 q 514 660 553 642 q 428 678 475 678 q 355 667 392 678 q 285 639 318 657 q 224 596 251 621 q 176 540 196 571 l 119 557 q 177 627 142 594 q 256 684 213 660 q 347 722 299 708 q 443 735 394 735 q 554 711 504 735 q 639 646 604 688 q 692 548 674 604 q 711 428 711 492 q 676 260 711 340 q 583 119 642 181 q 447 22 524 58 q 288 -14 371 -14 m 300 42 q 405 64 354 42 q 499 125 456 86 q 576 218 543 164 q 625 335 608 272 l 92 335 q 88 279 88 306 q 103 183 88 226 q 146 108 118 139 q 213 59 174 76 q 300 42 251 42 z "},"ŝ":{"ha":640,"x_min":-24,"x_max":613,"o":"m 285 901 l 436 1014 l 488 1014 l 592 901 l 546 878 l 451 965 l 321 878 l 285 901 m 232 -14 q 85 14 153 -14 q -24 97 18 42 l 19 144 q 119 67 65 92 q 243 42 172 42 q 335 54 293 42 q 409 89 378 67 q 458 143 440 111 q 475 215 475 175 q 426 293 475 268 q 288 342 378 318 q 203 367 239 354 q 142 395 167 379 q 106 433 118 411 q 93 488 93 456 q 118 594 93 547 q 185 672 143 640 q 281 719 226 703 q 396 735 336 735 q 533 706 476 735 q 613 633 589 678 l 567 596 q 492 658 543 638 q 379 679 442 679 q 297 669 336 679 q 228 637 258 658 q 181 583 199 615 q 163 506 163 550 q 172 466 163 482 q 201 438 182 450 q 249 417 219 426 q 317 399 278 408 q 413 371 371 385 q 485 338 456 357 q 531 294 515 319 q 546 232 546 268 q 522 133 546 178 q 457 55 499 88 q 358 4 415 22 q 232 -14 300 -14 z "},"§":{"ha":668,"x_min":0,"x_max":651,"o":"m 508 264 q 549 163 549 235 q 517 38 549 92 q 439 -51 486 -15 q 335 -104 392 -86 q 231 -122 279 -122 q 150 -112 186 -122 q 86 -84 114 -101 q 37 -44 58 -67 q 0 0 15 -22 l 56 43 q 140 -31 94 -7 q 243 -56 185 -56 q 323 -42 282 -56 q 397 -2 364 -28 q 452 60 431 24 q 474 144 474 97 q 460 199 474 178 q 424 231 446 219 q 374 248 401 243 q 318 254 346 253 q 165 302 225 258 q 106 432 106 346 q 128 528 106 485 q 175 597 150 572 q 144 645 156 613 q 133 718 133 678 q 163 832 133 781 q 236 919 192 883 q 335 974 281 954 q 442 993 390 993 q 524 983 489 993 q 583 957 558 974 q 624 918 607 940 q 651 871 640 896 l 590 846 q 567 887 583 871 q 528 912 550 903 q 481 925 506 921 q 431 929 456 929 q 351 915 392 929 q 278 875 311 901 q 225 812 246 849 q 204 728 204 775 q 249 635 204 661 q 364 606 293 608 q 445 595 406 604 q 516 565 485 586 q 566 513 547 544 q 585 433 585 481 q 562 336 585 382 q 508 264 539 290 m 172 432 q 204 350 172 375 q 280 315 236 325 q 370 302 324 306 q 447 285 417 299 q 497 344 476 307 q 517 422 517 382 q 501 481 517 457 q 463 519 486 504 q 410 540 439 533 q 354 546 382 546 q 235 569 282 546 q 192 512 211 549 q 172 432 172 475 z "},";":{"ha":249,"x_min":-17,"x_max":217,"o":"m 131 600 l 156 718 l 217 718 l 190 600 l 131 600 m -17 -112 l 26 -3 l 1 -3 l 28 118 l 97 118 l 71 -3 l 21 -112 l -17 -112 z "},"⅞":{"ha":1096,"x_min":-4,"x_max":1025,"o":"m -4 29 l 931 990 l 963 958 l 28 -4 l -4 29 m 746 -6 q 619 34 665 -6 q 572 131 572 74 q 586 189 572 163 q 622 235 600 215 q 673 270 644 256 q 729 293 701 285 q 672 331 694 306 q 649 392 649 356 q 669 456 649 428 q 720 505 689 485 q 790 535 751 525 q 865 546 828 546 q 925 538 896 546 q 976 515 954 531 q 1012 478 999 500 q 1025 429 1025 457 q 985 344 1025 378 q 893 293 946 310 q 964 247 936 278 q 992 172 992 217 q 971 99 992 132 q 915 44 950 67 q 836 8 881 21 q 746 -6 792 -6 m 760 42 q 823 51 790 42 q 882 76 856 60 q 925 117 908 93 q 942 171 942 142 q 930 213 942 194 q 899 244 918 232 q 856 264 881 257 q 806 271 831 271 q 741 261 774 271 q 682 234 708 251 q 639 192 656 217 q 622 139 622 168 q 634 97 622 115 q 665 67 646 79 q 710 48 685 54 q 760 42 735 42 m 815 313 q 869 320 842 313 q 921 341 897 328 q 960 374 944 354 q 975 418 975 393 q 939 478 975 457 q 854 500 903 500 q 797 492 825 500 q 747 471 768 485 q 711 438 725 457 q 697 393 697 418 q 708 359 697 374 q 735 334 718 344 q 773 318 751 324 q 815 313 794 313 m 506 965 l 172 965 l 183 1014 l 593 1014 l 171 468 l 115 468 l 506 965 z "},"⁷":{"ha":460,"x_min":117,"x_max":593,"o":"m 507 1076 l 174 1076 l 183 1125 l 593 1125 l 171 579 l 117 579 l 507 1076 z "},"₇":{"ha":460,"x_min":-31,"x_max":447,"o":"m 360 386 l 26 386 l 38 435 l 447 435 l 25 -111 l -31 -111 l 360 386 z "},"₆":{"ha":538,"x_min":-8,"x_max":444,"o":"m 419 99 q 398 15 419 54 q 341 -54 376 -25 q 260 -101 306 -83 q 164 -118 214 -118 q 38 -71 85 -118 q -8 60 -8 -24 q 13 208 -8 139 q 74 328 35 276 q 169 409 114 379 q 289 439 224 439 q 390 413 347 439 q 444 338 432 386 l 407 307 q 363 369 397 346 q 279 393 328 393 q 140 331 200 393 q 54 154 79 269 q 138 226 83 199 q 249 254 192 254 q 373 210 326 254 q 419 99 419 165 m 176 -74 q 249 -60 214 -74 q 311 -25 283 -47 q 356 27 339 -3 q 372 89 372 57 q 334 175 372 139 q 235 211 296 211 q 162 198 197 211 q 99 163 126 185 q 54 110 71 140 q 38 49 38 81 q 76 -37 38 -1 q 176 -74 115 -74 z "},"⁶":{"ha":539,"x_min":136,"x_max":590,"o":"m 567 785 q 545 701 567 740 q 488 631 524 661 q 406 584 453 601 q 310 567 360 567 q 183 614 231 567 q 136 744 136 661 q 158 892 136 824 q 220 1013 181 961 q 315 1095 260 1065 q 435 1125 369 1125 q 535 1099 493 1125 q 590 1024 578 1072 l 551 993 q 508 1056 543 1032 q 424 1079 474 1079 q 285 1017 346 1079 q 200 840 225 954 q 283 912 228 885 q 394 939 338 939 q 519 895 472 939 q 567 785 567 851 m 321 613 q 394 626 358 613 q 457 661 429 639 q 501 713 485 683 q 518 775 518 743 q 480 861 518 825 q 381 897 442 897 q 308 884 343 897 q 244 849 272 871 q 200 797 217 826 q 183 735 183 767 q 222 648 183 683 q 321 613 261 613 z "}," ":{"ha":349,"x_min":0,"x_max":0,"o":""},"£":{"ha":647,"x_min":-3,"x_max":663,"o":"m 92 514 l 222 514 q 191 615 207 567 q 175 717 175 664 q 200 823 175 772 q 265 911 225 874 q 357 971 306 949 q 463 993 408 993 q 586 953 533 993 q 663 847 639 914 l 611 804 q 547 899 592 864 q 447 933 503 933 q 372 917 408 933 q 306 871 335 900 q 259 803 276 842 q 242 721 242 764 q 258 621 242 671 q 289 514 275 571 l 524 514 l 511 457 l 300 457 q 302 433 301 446 q 303 410 303 421 q 296 332 303 368 q 267 256 289 296 q 202 169 244 217 q 90 57 160 121 q 188 68 142 68 q 240 64 217 68 q 284 55 263 60 q 326 46 306 50 q 372 42 347 42 q 500 68 421 42 l 506 13 q 356 -21 428 -21 q 301 -16 326 -21 q 253 -6 276 -11 q 203 5 229 0 q 147 10 178 10 q 79 4 118 10 q 7 -10 40 -1 l -3 42 q 122 158 74 110 q 195 247 169 207 q 230 322 221 286 q 239 403 239 358 q 235 457 239 429 l 81 457 l 92 514 z "},"t":{"ha":425,"x_min":67,"x_max":428,"o":"m 179 -8 q 99 17 131 -8 q 67 90 67 42 q 67 105 67 97 q 69 121 68 113 l 186 665 l 89 665 l 101 722 l 199 722 l 250 969 l 319 969 l 268 722 l 428 722 l 415 665 l 256 665 l 151 176 q 142 121 142 132 q 162 73 142 89 q 211 57 182 57 q 251 61 232 57 q 285 72 269 65 q 310 83 300 78 q 325 90 321 88 l 333 35 q 313 24 328 31 q 278 9 299 17 q 232 -3 257 1 q 179 -8 207 -8 z "},"ŧ":{"ha":426,"x_min":43,"x_max":428,"o":"m 54 493 l 149 493 l 186 665 l 90 665 l 103 722 l 199 722 l 251 969 l 321 969 l 268 722 l 428 722 l 417 665 l 256 665 l 218 493 l 379 493 l 369 443 l 207 443 l 151 179 q 143 122 143 138 q 163 73 143 89 q 213 57 182 57 q 251 61 232 57 q 285 72 269 65 q 312 83 301 78 q 326 90 322 88 l 335 35 q 313 23 328 31 q 278 8 299 15 q 233 -3 258 1 q 181 -8 207 -8 q 100 17 132 -8 q 68 90 68 42 q 69 105 68 97 q 71 121 69 113 l 139 443 l 43 443 l 54 493 z "},"ť":{"ha":425,"x_min":67,"x_max":575,"o":"m 390 896 l 496 1014 l 575 1014 l 433 874 l 390 896 m 179 -8 q 99 17 131 -8 q 67 90 67 42 q 67 105 67 97 q 69 121 68 113 l 186 665 l 89 665 l 101 722 l 199 722 l 250 969 l 319 969 l 268 722 l 428 722 l 415 665 l 256 665 l 151 176 q 142 121 142 132 q 162 73 142 89 q 211 57 182 57 q 251 61 232 57 q 285 72 269 65 q 310 83 300 78 q 325 90 321 88 l 333 35 q 313 24 328 31 q 278 9 299 17 q 232 -3 257 1 q 179 -8 207 -8 z "},"þ":{"ha":801,"x_min":-46,"x_max":742,"o":"m 226 986 l 297 986 l 211 585 q 338 693 269 650 q 490 736 406 736 q 600 712 553 736 q 678 647 647 688 q 726 553 710 606 q 742 446 742 501 q 711 284 742 367 q 626 134 681 201 q 495 24 571 67 q 329 -19 419 -19 q 188 22 239 -19 q 113 121 136 63 l 25 -296 l -46 -296 l 226 986 m 344 46 q 466 77 407 46 q 570 161 525 108 q 642 283 615 214 q 669 429 669 353 q 656 525 669 481 q 618 602 643 569 q 556 653 593 635 q 472 672 519 672 q 391 658 431 672 q 315 617 351 643 q 248 558 279 592 q 190 488 217 525 l 138 238 q 135 226 135 231 q 135 217 135 221 q 152 151 135 182 q 198 97 169 119 q 265 60 226 74 q 344 46 303 46 z "},"⅜":{"ha":1111,"x_min":85,"x_max":1051,"o":"m 265 454 q 201 463 232 454 q 145 487 169 471 q 106 526 121 503 q 90 582 90 550 l 129 611 q 167 538 129 571 q 275 504 204 504 q 344 513 311 504 q 403 538 378 522 q 443 576 428 554 q 458 624 458 597 q 411 694 458 668 q 283 719 364 719 l 254 719 l 263 764 l 293 764 q 441 792 388 764 q 494 878 494 821 q 458 944 494 919 q 368 969 422 969 q 269 948 314 969 q 197 890 224 926 l 171 926 q 259 991 203 967 q 378 1015 315 1015 q 501 978 456 1015 q 547 886 547 942 q 400 743 547 774 q 478 701 450 733 q 507 626 507 669 q 487 556 507 588 q 433 501 467 524 q 355 467 399 479 q 265 454 311 454 m 85 29 l 1019 990 l 1051 958 l 117 -4 l 85 29 m 757 -6 q 630 34 676 -6 q 583 131 583 74 q 597 189 583 163 q 633 235 611 215 q 684 270 656 256 q 740 293 713 285 q 683 331 706 306 q 660 392 660 356 q 680 456 660 428 q 731 505 700 485 q 801 535 763 525 q 876 546 839 546 q 936 538 907 546 q 988 515 965 531 q 1023 478 1010 500 q 1036 429 1036 457 q 997 344 1036 378 q 904 293 957 310 q 975 247 947 278 q 1003 172 1003 217 q 982 99 1003 132 q 926 44 961 67 q 847 8 892 21 q 757 -6 803 -6 m 771 42 q 834 51 801 42 q 893 76 867 60 q 936 117 919 93 q 953 171 953 142 q 941 213 953 194 q 910 244 929 232 q 867 264 892 257 q 817 271 842 271 q 752 261 785 271 q 693 234 719 251 q 650 192 667 217 q 633 139 633 168 q 645 97 633 115 q 676 67 657 79 q 721 48 696 54 q 771 42 746 42 m 826 313 q 881 320 853 313 q 932 341 908 328 q 971 374 956 354 q 986 418 986 393 q 950 478 986 457 q 865 500 914 500 q 808 492 836 500 q 758 471 779 485 q 722 438 736 457 q 708 393 708 418 q 719 359 708 374 q 746 334 729 344 q 784 318 763 324 q 826 313 806 313 z "},"³":{"ha":514,"x_min":107,"x_max":564,"o":"m 285 565 q 158 601 203 565 q 107 693 114 636 l 146 722 q 183 647 146 678 q 293 615 219 615 q 362 624 329 615 q 419 649 394 633 q 460 687 444 665 q 475 735 475 708 q 428 805 475 779 q 300 831 382 831 l 271 831 l 279 875 l 310 875 q 458 904 404 875 q 511 988 511 933 q 476 1056 511 1031 q 385 1081 440 1081 q 285 1059 331 1081 q 214 1001 240 1038 l 188 1038 q 276 1102 219 1078 q 394 1126 332 1126 q 518 1090 472 1126 q 564 996 564 1054 q 526 906 564 943 q 417 854 489 869 q 495 813 467 844 q 524 738 524 782 q 503 667 524 699 q 449 613 482 635 q 372 578 415 590 q 285 565 329 565 z "},"¾":{"ha":1071,"x_min":88,"x_max":1086,"o":"m 263 454 q 198 463 229 454 q 142 487 167 471 q 103 526 118 503 q 88 582 88 550 l 126 611 q 164 538 126 571 q 272 504 201 504 q 342 513 308 504 q 400 538 375 522 q 440 576 425 554 q 456 624 456 597 q 408 694 456 668 q 281 719 361 719 l 251 719 l 260 764 l 290 764 q 438 792 385 764 q 492 878 492 821 q 456 944 492 919 q 365 969 419 969 q 266 948 311 969 q 194 890 221 926 l 168 926 q 256 991 200 967 q 375 1015 313 1015 q 499 978 453 1015 q 544 886 544 942 q 397 743 544 774 q 476 701 447 733 q 504 626 504 669 q 484 556 504 588 q 430 501 464 524 q 352 467 396 479 q 263 454 308 454 m 833 147 l 531 147 l 540 192 l 933 546 l 967 546 l 892 194 l 967 194 l 957 147 l 882 147 l 850 0 l 803 0 l 833 147 m 844 194 l 904 475 l 596 194 l 844 194 m 119 29 l 1054 990 l 1086 958 l 151 -4 l 119 29 z "},"™":{"ha":931,"x_min":189,"x_max":942,"o":"m 490 936 l 365 936 l 293 593 l 240 593 l 314 936 l 189 936 l 200 989 l 501 989 l 490 936 m 563 986 l 631 986 l 693 715 l 872 986 l 942 986 l 858 593 l 807 593 l 874 907 l 703 651 l 660 651 l 597 907 l 531 593 l 479 593 l 563 986 z "},"²":{"ha":510,"x_min":86,"x_max":575,"o":"m 86 574 q 117 666 97 626 q 163 735 136 706 q 225 785 190 764 q 304 822 260 806 q 378 849 340 836 q 448 878 417 861 q 499 922 479 896 q 519 986 519 947 q 491 1051 519 1024 q 401 1079 463 1079 q 339 1071 368 1079 q 287 1051 310 1063 q 246 1025 264 1039 q 217 1000 228 1011 l 190 1033 q 213 1054 194 1039 q 260 1085 231 1069 q 330 1114 290 1101 q 418 1126 369 1126 q 537 1089 499 1126 q 575 997 575 1051 q 556 918 575 950 q 504 864 536 886 q 431 826 472 842 q 347 796 390 810 q 265 757 297 779 q 213 711 232 735 q 183 664 193 688 q 169 621 174 640 l 493 621 l 483 574 l 86 574 z "},"⅔":{"ha":1125,"x_min":68,"x_max":1078,"o":"m 68 463 q 98 555 79 515 q 144 624 117 594 q 206 674 171 653 q 283 711 240 694 q 356 738 318 725 q 424 767 393 750 q 475 810 456 785 q 494 875 494 836 q 467 940 494 913 q 379 968 439 968 q 317 960 346 968 q 266 940 289 951 q 226 914 243 928 q 197 889 208 900 l 171 922 q 193 943 175 928 q 240 974 211 958 q 308 1003 269 990 q 396 1015 347 1015 q 513 978 475 1015 q 550 886 550 940 q 531 808 550 840 q 481 753 513 776 q 409 715 450 731 q 325 685 368 699 q 243 646 275 668 q 192 600 211 624 q 163 553 172 576 q 150 510 154 529 l 469 510 l 460 463 l 68 463 m 111 29 l 1046 990 l 1078 958 l 143 -4 l 111 29 m 774 -7 q 709 1 740 -7 q 653 24 678 8 q 614 65 629 40 q 599 121 599 89 l 636 149 q 674 75 636 108 q 783 42 713 42 q 853 51 819 42 q 911 76 886 60 q 951 113 936 92 q 965 161 965 135 q 919 231 965 206 q 792 257 874 257 l 761 257 l 771 301 l 800 301 q 949 330 894 301 q 1003 415 1003 358 q 967 483 1003 457 q 876 508 931 508 q 776 486 821 508 q 704 428 731 464 l 679 464 q 766 528 710 504 q 885 553 822 553 q 1009 516 963 553 q 1056 424 1056 479 q 907 281 1056 313 q 987 240 958 272 q 1015 164 1015 208 q 995 93 1015 125 q 941 39 975 61 q 863 5 907 17 q 774 -7 819 -7 z "},"u":{"ha":781,"x_min":57,"x_max":735,"o":"m 225 -14 q 57 175 57 -14 q 60 235 57 203 q 72 306 64 268 l 163 722 l 231 722 l 144 315 q 129 197 129 246 q 258 49 129 49 q 346 65 301 49 q 431 109 390 81 q 508 178 472 138 q 569 267 544 218 l 665 722 l 735 722 l 607 118 q 602 97 604 107 q 600 85 600 88 q 624 63 600 63 l 610 0 q 593 -1 600 -1 q 579 -1 586 -1 q 545 13 557 -1 q 533 47 533 28 q 534 57 533 51 q 537 75 535 63 q 544 110 539 88 q 557 171 549 133 q 405 35 493 83 q 225 -14 317 -14 z "},"ú":{"ha":781,"x_min":57,"x_max":735,"o":"m 447 874 l 404 896 l 510 1014 l 589 1014 l 447 874 m 225 -14 q 57 175 57 -14 q 60 235 57 203 q 72 306 64 268 l 163 722 l 231 722 l 144 315 q 129 197 129 246 q 258 49 129 49 q 346 65 301 49 q 431 109 390 81 q 508 178 472 138 q 569 267 544 218 l 665 722 l 735 722 l 607 118 q 602 97 604 107 q 600 85 600 88 q 624 63 600 63 l 610 0 q 593 -1 600 -1 q 579 -1 586 -1 q 545 13 557 -1 q 533 47 533 28 q 534 57 533 51 q 537 75 535 63 q 544 110 539 88 q 557 171 549 133 q 405 35 493 83 q 225 -14 317 -14 z "},"ŭ":{"ha":781,"x_min":57,"x_max":735,"o":"m 225 -14 q 57 175 57 -14 q 60 235 57 203 q 72 306 64 268 l 163 722 l 231 722 l 144 315 q 129 197 129 246 q 258 49 129 49 q 346 65 301 49 q 431 109 390 81 q 508 178 472 138 q 569 267 544 218 l 665 722 l 735 722 l 607 118 q 602 97 604 107 q 600 85 600 88 q 624 63 600 63 l 610 0 q 593 -1 600 -1 q 579 -1 586 -1 q 545 13 557 -1 q 533 47 533 28 q 534 57 533 51 q 537 75 535 63 q 544 110 539 88 q 557 171 549 133 q 405 35 493 83 q 225 -14 317 -14 m 469 925 q 525 951 497 925 q 564 1014 553 976 l 608 1014 q 588 964 603 988 q 553 923 574 940 q 510 896 533 906 q 463 886 486 886 q 392 915 418 886 q 365 986 365 943 q 369 1014 365 999 l 415 1014 q 414 994 414 1007 q 430 946 414 967 q 469 925 446 925 z "},"û":{"ha":781,"x_min":57,"x_max":735,"o":"m 332 901 l 483 1014 l 535 1014 l 639 901 l 593 878 l 499 965 l 368 878 l 332 901 m 225 -14 q 57 175 57 -14 q 60 235 57 203 q 72 306 64 268 l 163 722 l 231 722 l 144 315 q 129 197 129 246 q 258 49 129 49 q 346 65 301 49 q 431 109 390 81 q 508 178 472 138 q 569 267 544 218 l 665 722 l 735 722 l 607 118 q 602 97 604 107 q 600 85 600 88 q 624 63 600 63 l 610 0 q 593 -1 600 -1 q 579 -1 586 -1 q 545 13 557 -1 q 533 47 533 28 q 534 57 533 51 q 537 75 535 63 q 544 110 539 88 q 557 171 549 133 q 405 35 493 83 q 225 -14 317 -14 z "},"ü":{"ha":781,"x_min":57,"x_max":735,"o":"m 354 889 l 379 1011 l 440 1011 l 414 889 l 354 889 m 536 889 l 563 1011 l 622 1011 l 597 889 l 536 889 m 225 -14 q 57 175 57 -14 q 60 235 57 203 q 72 306 64 268 l 163 722 l 231 722 l 144 315 q 129 197 129 246 q 258 49 129 49 q 346 65 301 49 q 431 109 390 81 q 508 178 472 138 q 569 267 544 218 l 665 722 l 735 722 l 607 118 q 602 97 604 107 q 600 85 600 88 q 624 63 600 63 l 610 0 q 593 -1 600 -1 q 579 -1 586 -1 q 545 13 557 -1 q 533 47 533 28 q 534 57 533 51 q 537 75 535 63 q 544 110 539 88 q 557 171 549 133 q 405 35 493 83 q 225 -14 317 -14 z "},"ù":{"ha":781,"x_min":57,"x_max":735,"o":"m 225 -14 q 57 175 57 -14 q 60 235 57 203 q 72 306 64 268 l 163 722 l 231 722 l 144 315 q 129 197 129 246 q 258 49 129 49 q 346 65 301 49 q 431 109 390 81 q 508 178 472 138 q 569 267 544 218 l 665 722 l 735 722 l 607 118 q 602 97 604 107 q 600 85 600 88 q 624 63 600 63 l 610 0 q 593 -1 600 -1 q 579 -1 586 -1 q 545 13 557 -1 q 533 47 533 28 q 534 57 533 51 q 537 75 535 63 q 544 110 539 88 q 557 171 549 133 q 405 35 493 83 q 225 -14 317 -14 m 378 1014 l 454 1014 l 511 896 l 460 874 l 378 1014 z "},"ű":{"ha":781,"x_min":57,"x_max":735,"o":"m 225 -14 q 57 175 57 -14 q 60 235 57 203 q 72 306 64 268 l 163 722 l 231 722 l 144 315 q 129 197 129 246 q 258 49 129 49 q 346 65 301 49 q 431 109 390 81 q 508 178 472 138 q 569 267 544 218 l 665 722 l 735 722 l 607 118 q 602 97 604 107 q 600 85 600 88 q 624 63 600 63 l 610 0 q 593 -1 600 -1 q 579 -1 586 -1 q 545 13 557 -1 q 533 47 533 28 q 534 57 533 51 q 537 75 535 63 q 544 110 539 88 q 557 171 549 133 q 405 35 493 83 q 225 -14 317 -14 m 358 874 l 322 896 l 426 1014 l 497 1014 l 358 874 m 514 874 l 478 896 l 581 1014 l 653 1014 l 514 874 z "},"ū":{"ha":781,"x_min":57,"x_max":735,"o":"m 225 -14 q 57 175 57 -14 q 60 235 57 203 q 72 306 64 268 l 163 722 l 231 722 l 144 315 q 129 197 129 246 q 258 49 129 49 q 346 65 301 49 q 431 109 390 81 q 508 178 472 138 q 569 267 544 218 l 665 722 l 735 722 l 607 118 q 602 97 604 107 q 600 85 600 88 q 624 63 600 63 l 610 0 q 593 -1 600 -1 q 579 -1 586 -1 q 545 13 557 -1 q 533 47 533 28 q 534 57 533 51 q 537 75 535 63 q 544 110 539 88 q 557 171 549 133 q 405 35 493 83 q 225 -14 317 -14 m 288 932 l 299 983 l 676 983 l 665 932 l 288 932 z "},"_":{"ha":694,"x_min":-12,"x_max":510,"o":"m -12 -64 l 1 0 l 510 0 l 496 -64 l -12 -64 z "}," ":{"ha":349,"x_min":0,"x_max":0,"o":""},"­":{"ha":746,"x_min":75,"x_max":653,"o":"m 75 346 l 89 410 l 653 410 l 640 346 l 75 346 z "},"Ş":{"ha":811,"x_min":-7,"x_max":808,"o":"m 206 -174 q 253 -192 224 -183 q 315 -200 282 -200 q 406 -137 406 -200 q 390 -107 406 -115 q 349 -99 374 -99 q 289 -106 321 -99 q 239 -118 257 -112 l 319 -8 q -7 139 111 -4 l 43 196 q 165 92 88 131 q 350 54 242 54 q 572 113 490 54 q 654 281 654 171 q 590 397 654 357 q 403 464 525 436 q 292 494 340 478 q 211 534 244 511 q 160 590 178 557 q 143 668 143 622 q 174 805 143 744 q 257 907 204 865 q 383 971 310 949 q 540 993 456 993 q 698 965 632 993 q 808 878 764 936 l 760 822 q 526 929 693 929 q 387 910 444 929 q 292 860 329 892 q 237 784 254 828 q 219 689 219 740 q 234 628 219 653 q 278 585 249 603 q 351 553 307 567 q 453 525 394 539 q 567 492 515 510 q 656 449 619 475 q 712 388 692 424 q 732 301 732 353 q 705 173 732 229 q 628 78 678 117 q 512 17 579 39 q 365 -7 444 -4 l 314 -74 q 341 -67 326 -68 q 367 -65 356 -65 q 447 -129 447 -65 q 410 -210 447 -182 q 301 -237 372 -237 q 234 -230 265 -237 q 179 -211 203 -222 l 206 -174 z "},"ş":{"ha":640,"x_min":-24,"x_max":613,"o":"m 96 -174 q 143 -192 114 -183 q 206 -200 172 -200 q 296 -137 296 -200 q 280 -107 296 -115 q 239 -99 264 -99 q 179 -106 211 -99 q 129 -118 147 -112 l 207 -12 q 75 19 135 -8 q -24 97 15 46 l 19 144 q 119 67 65 92 q 243 42 172 42 q 335 54 293 42 q 409 89 378 67 q 458 143 440 111 q 475 215 475 175 q 426 293 475 268 q 288 342 378 318 q 203 367 239 354 q 142 395 167 379 q 106 433 118 411 q 93 488 93 456 q 118 594 93 547 q 185 672 143 640 q 281 719 226 703 q 396 735 336 735 q 533 706 476 735 q 613 633 589 678 l 567 596 q 492 658 543 638 q 379 679 442 679 q 297 669 336 679 q 228 637 258 658 q 181 583 199 615 q 163 506 163 550 q 172 466 163 482 q 201 438 182 450 q 249 417 219 426 q 317 399 278 408 q 413 371 371 385 q 485 338 456 357 q 531 294 515 319 q 546 232 546 268 q 524 135 546 179 q 463 59 503 92 q 369 8 424 26 q 251 -14 315 -11 l 204 -74 q 231 -67 217 -68 q 257 -65 246 -65 q 338 -129 338 -65 q 300 -210 338 -182 q 192 -237 263 -237 q 124 -230 156 -237 q 69 -211 93 -222 l 96 -174 z "},"Ţ":{"ha":803,"x_min":128,"x_max":896,"o":"m 469 922 l 128 922 l 140 986 l 896 986 l 882 922 l 540 922 l 343 0 l 332 0 l 275 -74 q 302 -67 288 -68 q 328 -65 317 -65 q 408 -129 408 -65 q 371 -210 408 -182 q 263 -237 333 -237 q 195 -230 226 -237 q 140 -211 164 -222 l 167 -174 q 214 -192 185 -183 q 276 -200 243 -200 q 367 -137 367 -200 q 351 -107 367 -115 q 310 -99 335 -99 q 250 -106 282 -99 q 200 -118 218 -112 l 288 0 l 274 0 l 469 922 z "},"ţ":{"ha":425,"x_min":15,"x_max":428,"o":"m 42 -174 q 89 -192 60 -183 q 151 -200 118 -200 q 242 -137 242 -200 q 226 -107 242 -115 q 185 -99 210 -99 q 125 -106 157 -99 q 75 -118 93 -112 l 157 -7 q 92 23 117 -1 q 67 90 67 47 q 67 105 67 97 q 69 121 67 113 l 186 665 l 89 665 l 101 722 l 199 722 l 250 969 l 319 969 l 268 722 l 428 722 l 415 665 l 256 665 l 151 176 q 142 121 142 132 q 162 73 142 89 q 211 57 182 57 q 251 61 232 57 q 285 72 269 65 q 310 83 300 78 q 325 90 321 88 l 333 35 q 286 13 322 28 q 201 -7 250 -3 l 150 -74 q 177 -67 163 -68 q 203 -65 192 -65 q 283 -129 283 -65 q 246 -210 283 -182 q 138 -237 208 -237 q 70 -230 101 -237 q 15 -211 39 -222 l 42 -174 z "},"Ș":{"ha":810,"x_min":-8,"x_max":807,"o":"m 246 -260 l 286 -165 l 264 -165 l 285 -68 l 351 -68 l 332 -165 l 283 -260 l 246 -260 m 333 -8 q -8 139 114 -8 l 42 196 q 163 92 86 131 q 349 54 240 54 q 571 113 489 54 q 653 281 653 171 q 588 397 653 357 q 401 464 524 436 q 291 494 339 478 q 210 534 243 511 q 159 590 176 557 q 142 668 142 622 q 172 805 142 744 q 256 907 203 865 q 381 971 308 949 q 539 993 454 993 q 697 965 631 993 q 807 878 763 936 l 758 822 q 525 929 692 929 q 385 910 443 929 q 290 860 328 892 q 235 784 253 828 q 218 689 218 740 q 233 628 218 653 q 276 585 247 603 q 349 553 306 567 q 451 525 393 539 q 566 492 514 510 q 654 449 618 475 q 710 388 690 424 q 731 301 731 353 q 701 168 731 226 q 617 71 671 110 q 491 12 564 32 q 333 -8 418 -8 z "},"ș":{"ha":640,"x_min":-24,"x_max":613,"o":"m 153 -260 l 193 -165 l 171 -165 l 192 -68 l 258 -68 l 239 -165 l 190 -260 l 153 -260 m 232 -14 q 85 14 153 -14 q -24 97 18 42 l 19 144 q 119 67 65 92 q 243 42 172 42 q 335 54 293 42 q 409 89 378 67 q 458 143 440 111 q 475 215 475 175 q 426 293 475 268 q 288 342 378 318 q 203 367 239 354 q 142 395 167 379 q 106 433 118 411 q 93 488 93 456 q 118 594 93 547 q 185 672 143 640 q 281 719 226 703 q 396 735 336 735 q 533 706 476 735 q 613 633 589 678 l 567 596 q 492 658 543 638 q 379 679 442 679 q 297 669 336 679 q 228 637 258 658 q 181 583 199 615 q 163 506 163 550 q 172 466 163 482 q 201 438 182 450 q 249 417 219 426 q 317 399 278 408 q 413 371 371 385 q 485 338 456 357 q 531 294 515 319 q 546 232 546 268 q 522 133 546 178 q 457 55 499 88 q 358 4 415 22 q 232 -14 300 -14 z "},"Ț":{"ha":804,"x_min":129,"x_max":897,"o":"m 222 -260 l 263 -165 l 240 -165 l 261 -68 l 328 -68 l 308 -165 l 260 -260 l 222 -260 m 471 922 l 129 922 l 142 986 l 897 986 l 883 922 l 542 922 l 344 0 l 275 0 l 471 922 z "},"ț":{"ha":425,"x_min":67,"x_max":428,"o":"m 90 -260 l 131 -165 l 108 -165 l 129 -68 l 196 -68 l 176 -165 l 128 -260 l 90 -260 m 179 -8 q 99 17 131 -8 q 67 90 67 42 q 67 105 67 97 q 69 121 68 113 l 186 665 l 89 665 l 101 722 l 199 722 l 250 969 l 319 969 l 268 722 l 428 722 l 415 665 l 256 665 l 151 176 q 142 121 142 132 q 162 73 142 89 q 211 57 182 57 q 251 61 232 57 q 285 72 269 65 q 310 83 300 78 q 325 90 321 88 l 333 35 q 313 24 328 31 q 278 9 299 17 q 232 -3 257 1 q 179 -8 207 -8 z "},"μ":{"ha":790,"x_min":-46,"x_max":746,"o":"m 171 722 l 240 722 l 154 315 q 139 197 139 246 q 269 49 139 49 q 356 65 311 49 q 441 109 400 81 q 517 178 482 138 q 578 267 553 218 l 675 722 l 746 722 l 613 97 q 611 83 611 93 q 635 63 611 63 l 619 0 q 559 16 571 0 q 547 56 547 32 q 549 73 547 58 q 554 106 551 88 q 560 142 557 124 q 567 171 564 160 q 502 97 539 131 q 424 38 465 63 q 340 0 383 14 q 253 -14 296 -14 q 151 20 186 -14 q 107 114 115 54 l 24 -294 l -46 -294 l 171 722 z "},"∕":{"ha":775,"x_min":-86,"x_max":894,"o":"m -86 32 l 858 990 l 894 954 l -50 -4 l -86 32 z "},"∙":{"ha":242,"x_min":74,"x_max":164,"o":"m 74 344 l 104 485 l 164 485 l 135 344 l 74 344 z "},"ų":{"ha":781,"x_min":57,"x_max":735,"o":"m 225 -14 q 57 175 57 -14 q 60 235 57 203 q 72 306 64 268 l 163 722 l 231 722 l 144 315 q 129 197 129 246 q 258 49 129 49 q 346 65 301 49 q 431 109 390 81 q 508 178 472 138 q 569 267 544 218 l 665 722 l 735 722 l 607 118 q 602 97 604 107 q 600 85 600 88 q 624 63 600 63 l 610 0 q 502 -78 532 -47 q 472 -142 472 -110 q 526 -193 472 -185 l 494 -235 q 441 -206 458 -226 q 424 -157 424 -185 q 454 -80 424 -117 q 558 3 485 -43 q 533 47 533 15 q 534 57 533 51 q 537 75 535 63 q 544 110 539 88 q 557 171 549 133 q 405 35 493 83 q 225 -14 317 -14 z "},"ů":{"ha":781,"x_min":57,"x_max":735,"o":"m 386 911 q 419 985 386 956 q 497 1014 453 1014 q 550 994 531 1014 q 569 944 569 975 q 537 870 569 900 q 460 840 504 840 q 406 860 425 840 q 386 911 386 879 m 489 982 q 444 964 464 982 q 424 917 424 946 q 435 885 424 897 q 467 872 447 872 q 511 891 489 872 q 533 938 533 910 q 521 970 533 958 q 489 982 508 982 m 225 -14 q 57 175 57 -14 q 60 235 57 203 q 72 306 64 268 l 163 722 l 231 722 l 144 315 q 129 197 129 246 q 258 49 129 49 q 346 65 301 49 q 431 109 390 81 q 508 178 472 138 q 569 267 544 218 l 665 722 l 735 722 l 607 118 q 602 97 604 107 q 600 85 600 88 q 624 63 600 63 l 610 0 q 593 -1 600 -1 q 579 -1 586 -1 q 545 13 557 -1 q 533 47 533 28 q 534 57 533 51 q 537 75 535 63 q 544 110 539 88 q 557 171 549 133 q 405 35 493 83 q 225 -14 317 -14 z "},"ũ":{"ha":781,"x_min":57,"x_max":735,"o":"m 225 -14 q 57 175 57 -14 q 60 235 57 203 q 72 306 64 268 l 163 722 l 231 722 l 144 315 q 129 197 129 246 q 258 49 129 49 q 346 65 301 49 q 431 109 390 81 q 508 178 472 138 q 569 267 544 218 l 665 722 l 735 722 l 607 118 q 602 97 604 107 q 600 85 600 88 q 624 63 600 63 l 610 0 q 593 -1 600 -1 q 579 -1 586 -1 q 545 13 557 -1 q 533 47 533 28 q 534 57 533 51 q 537 75 535 63 q 544 110 539 88 q 557 171 549 133 q 405 35 493 83 q 225 -14 317 -14 m 553 899 q 503 907 524 899 q 465 926 482 915 q 433 945 449 936 q 397 954 418 954 q 360 944 375 954 q 335 923 344 935 q 322 901 326 911 q 317 888 317 890 l 269 888 q 279 912 271 893 q 304 951 288 931 q 346 987 321 971 q 407 1003 371 1003 q 452 994 433 1003 q 488 974 471 985 q 521 956 504 964 q 563 947 538 947 q 606 957 589 947 q 633 978 622 967 q 648 1001 643 990 q 653 1014 653 1011 l 699 1014 q 689 988 697 1007 q 663 950 681 969 q 619 915 646 931 q 553 899 592 899 z "},"v":{"ha":661,"x_min":83,"x_max":667,"o":"m 83 722 l 156 722 l 253 69 q 467 396 379 225 q 600 722 556 567 l 667 722 q 516 358 614 540 q 271 0 418 176 l 199 0 l 83 722 z "},"w":{"ha":1032,"x_min":78,"x_max":1042,"o":"m 78 722 l 150 722 l 268 69 q 388 224 333 143 q 486 386 442 304 l 414 722 l 486 722 l 535 478 q 590 603 567 542 q 632 722 614 664 l 699 722 q 556 385 649 557 l 619 69 q 839 396 750 225 q 974 722 928 567 l 1042 722 q 888 358 986 540 q 638 0 789 176 l 565 0 l 506 301 q 407 149 461 225 q 288 0 353 74 l 215 0 l 78 722 z "},"ẃ":{"ha":1032,"x_min":78,"x_max":1042,"o":"m 583 874 l 540 896 l 646 1014 l 725 1014 l 583 874 m 78 722 l 150 722 l 268 69 q 388 224 333 143 q 486 386 442 304 l 414 722 l 486 722 l 535 478 q 590 603 567 542 q 632 722 614 664 l 699 722 q 556 385 649 557 l 619 69 q 839 396 750 225 q 974 722 928 567 l 1042 722 q 888 358 986 540 q 638 0 789 176 l 565 0 l 506 301 q 407 149 461 225 q 288 0 353 74 l 215 0 l 78 722 z "},"ŵ":{"ha":1032,"x_min":78,"x_max":1042,"o":"m 456 901 l 607 1014 l 658 1014 l 763 901 l 717 878 l 622 965 l 492 878 l 456 901 m 78 722 l 150 722 l 268 69 q 388 224 333 143 q 486 386 442 304 l 414 722 l 486 722 l 535 478 q 590 603 567 542 q 632 722 614 664 l 699 722 q 556 385 649 557 l 619 69 q 839 396 750 225 q 974 722 928 567 l 1042 722 q 888 358 986 540 q 638 0 789 176 l 565 0 l 506 301 q 407 149 461 225 q 288 0 353 74 l 215 0 l 78 722 z "},"ẅ":{"ha":1032,"x_min":78,"x_max":1042,"o":"m 471 889 l 496 1011 l 557 1011 l 531 889 l 471 889 m 653 889 l 679 1011 l 739 1011 l 714 889 l 653 889 m 78 722 l 150 722 l 268 69 q 388 224 333 143 q 486 386 442 304 l 414 722 l 486 722 l 535 478 q 590 603 567 542 q 632 722 614 664 l 699 722 q 556 385 649 557 l 619 69 q 839 396 750 225 q 974 722 928 567 l 1042 722 q 888 358 986 540 q 638 0 789 176 l 565 0 l 506 301 q 407 149 461 225 q 288 0 353 74 l 215 0 l 78 722 z "},"ẁ":{"ha":1032,"x_min":78,"x_max":1042,"o":"m 78 722 l 150 722 l 268 69 q 388 224 333 143 q 486 386 442 304 l 414 722 l 486 722 l 535 478 q 590 603 567 542 q 632 722 614 664 l 699 722 q 556 385 649 557 l 619 69 q 839 396 750 225 q 974 722 928 567 l 1042 722 q 888 358 986 540 q 638 0 789 176 l 565 0 l 506 301 q 407 149 461 225 q 288 0 353 74 l 215 0 l 78 722 m 531 1014 l 607 1014 l 664 896 l 613 874 l 531 1014 z "},"x":{"ha":656,"x_min":-67,"x_max":699,"o":"m 275 360 l 86 722 l 163 722 l 318 424 l 324 404 l 338 421 l 622 722 l 699 722 l 356 360 l 544 0 l 467 0 l 313 297 l 306 315 l 292 299 l 11 0 l -67 0 l 275 360 z "},"y":{"ha":664,"x_min":-50,"x_max":678,"o":"m -50 -254 q 23 -235 -7 -247 q 78 -204 53 -224 q 126 -155 103 -185 q 176 -82 149 -125 l 226 -7 l 72 722 l 144 722 l 275 68 l 342 174 q 447 348 404 274 q 519 485 489 422 q 571 603 550 547 q 608 722 592 660 l 678 722 q 638 598 658 656 q 585 476 617 540 q 508 332 554 411 q 392 143 461 253 l 278 -36 q 191 -165 229 -114 q 117 -247 153 -215 q 43 -292 81 -278 q -42 -311 6 -307 l -50 -254 z "},"ý":{"ha":664,"x_min":-50,"x_max":678,"o":"m -50 -254 q 23 -235 -7 -247 q 78 -204 53 -224 q 126 -155 103 -185 q 176 -82 149 -125 l 226 -7 l 72 722 l 144 722 l 275 68 l 342 174 q 447 348 404 274 q 519 485 489 422 q 571 603 550 547 q 608 722 592 660 l 678 722 q 638 598 658 656 q 585 476 617 540 q 508 332 554 411 q 392 143 461 253 l 278 -36 q 191 -165 229 -114 q 117 -247 153 -215 q 43 -292 81 -278 q -42 -311 6 -307 l -50 -254 m 396 874 l 353 896 l 458 1014 l 538 1014 l 396 874 z "},"ŷ":{"ha":664,"x_min":-50,"x_max":678,"o":"m -50 -254 q 23 -235 -7 -247 q 78 -204 53 -224 q 126 -155 103 -185 q 176 -82 149 -125 l 226 -7 l 72 722 l 144 722 l 275 68 l 342 174 q 447 348 404 274 q 519 485 489 422 q 571 603 550 547 q 608 722 592 660 l 678 722 q 638 598 658 656 q 585 476 617 540 q 508 332 554 411 q 392 143 461 253 l 278 -36 q 191 -165 229 -114 q 117 -247 153 -215 q 43 -292 81 -278 q -42 -311 6 -307 l -50 -254 m 263 901 l 414 1014 l 465 1014 l 569 901 l 524 878 l 429 965 l 299 878 l 263 901 z "},"ÿ":{"ha":664,"x_min":-50,"x_max":678,"o":"m -50 -254 q 23 -235 -7 -247 q 78 -204 53 -224 q 126 -155 103 -185 q 176 -82 149 -125 l 226 -7 l 72 722 l 144 722 l 275 68 l 342 174 q 447 348 404 274 q 519 485 489 422 q 571 603 550 547 q 608 722 592 660 l 678 722 q 638 598 658 656 q 585 476 617 540 q 508 332 554 411 q 392 143 461 253 l 278 -36 q 191 -165 229 -114 q 117 -247 153 -215 q 43 -292 81 -278 q -42 -311 6 -307 l -50 -254 m 286 889 l 311 1011 l 372 1011 l 346 889 l 286 889 m 468 889 l 494 1011 l 554 1011 l 529 889 l 468 889 z "},"¥":{"ha":892,"x_min":156,"x_max":963,"o":"m 561 496 l 676 496 l 665 443 l 521 443 l 463 372 l 456 336 l 643 336 l 633 285 l 444 285 l 383 0 l 313 0 l 374 285 l 186 285 l 197 336 l 385 336 l 393 375 l 367 443 l 221 443 l 232 496 l 349 496 l 156 986 l 235 986 l 442 440 l 883 986 l 963 986 l 561 496 z "},"ỳ":{"ha":664,"x_min":-50,"x_max":678,"o":"m -50 -254 q 23 -235 -7 -247 q 78 -204 53 -224 q 126 -155 103 -185 q 176 -82 149 -125 l 226 -7 l 72 722 l 144 722 l 275 68 l 342 174 q 447 348 404 274 q 519 485 489 422 q 571 603 550 547 q 608 722 592 660 l 678 722 q 638 598 658 656 q 585 476 617 540 q 508 332 554 411 q 392 143 461 253 l 278 -36 q 191 -165 229 -114 q 117 -247 153 -215 q 43 -292 81 -278 q -42 -311 6 -307 l -50 -254 m 328 1014 l 404 1014 l 461 896 l 410 874 l 328 1014 z "}}}
